<svg width="221" height="201" viewBox="0 0 221 201" fill="none" xmlns="http://www.w3.org/2000/svg">
<g style="mix-blend-mode:overlay" opacity="0.45">
<path d="M0.00537109 195.746C12.5051 199.253 24.3582 200.721 35.2801 200.119C41.1194 199.812 46.9083 198.872 52.5456 197.318C59.2635 195.441 65.6644 192.574 71.5377 188.81C77.7154 184.896 83.2349 180.029 87.8915 174.389C95.9617 164.593 100.178 152.275 100.327 137.75C100.378 133.868 100.081 129.934 99.7963 126.149C99.1497 117.486 98.5353 109.283 101.885 101.946C104.252 96.7698 108.791 92.2409 114.669 89.213C123.858 84.4641 133.72 83.0731 144.137 81.598C152.854 80.3622 161.849 79.0877 170.714 75.7169C176.146 73.6601 181.282 70.8928 185.988 67.4872C194.398 63.1277 201.848 57.1237 207.897 49.8309C216.077 39.9061 220.474 27.3352 220.959 12.4157C221.088 8.40436 220.888 4.38657 220.687 0.49171C220.687 0.329963 220.687 0.161747 220.687 0H0.00537109V195.746Z" fill="#7C2629" fill-opacity="0.5"/>
</g>
</svg>
