<svg width="24" height="24" viewBox="0 0 24 24" fill="none" xmlns="http://www.w3.org/2000/svg">
<path fill-rule="evenodd" clip-rule="evenodd" d="M12.1534 9.07284C11.5521 8.03123 13.4322 5.82121 16.3525 4.13474C19.2715 2.44963 22.1264 1.92609 22.7276 2.96769C23.0603 3.5444 23.3929 4.1211 23.7269 4.69916C24.3282 5.73941 22.4481 7.94943 19.5278 9.6359C16.6075 11.321 13.7539 11.8446 13.1527 10.8043C12.8201 10.2262 12.486 9.64954 12.1534 9.07284Z" fill="#FE9923"/>
<path fill-rule="evenodd" clip-rule="evenodd" d="M16.3525 4.13474C19.2715 2.44963 22.1264 1.92609 22.7276 2.96769C23.3289 4.00794 21.4488 6.21796 18.5285 7.90443C15.6081 9.5909 12.7546 10.1131 12.1534 9.07284C11.5521 8.03123 13.4322 5.82121 16.3525 4.13474Z" fill="#FECD3D"/>
<path fill-rule="evenodd" clip-rule="evenodd" d="M16.8611 5.01553C19.1843 3.67533 21.3261 3.03731 21.6465 3.59081C21.9669 4.14572 20.3432 5.68224 18.0199 7.02375C15.6968 8.36531 13.5536 9.00338 13.2345 8.44847C12.9142 7.89361 14.5379 6.3571 16.8611 5.01553Z" fill="#FEA832"/>
<path d="M22.5095 5.89083L23.0412 6.81243C23.168 6.657 23.2825 6.50433 23.3807 6.35433L22.9608 5.62903L22.5095 5.89083ZM22.0541 7.83225C21.926 7.94676 21.791 8.06264 21.6519 8.1772L21.1448 7.29783L21.596 7.03879L22.0541 7.83225ZM20.549 8.99657C20.4072 9.09337 20.2613 9.18881 20.1127 9.28289L19.6287 8.44443L20.08 8.1854L20.549 8.99657ZM18.9307 9.96454C18.7739 10.0477 18.6185 10.1254 18.4644 10.2018L17.994 9.3892L18.4466 9.12745L18.9307 9.96454ZM17.2033 10.7458C17.0329 10.8098 16.8665 10.8685 16.7029 10.9216L16.2435 10.1282L16.6961 9.86779L17.2033 10.7458ZM15.3259 11.2665C15.1283 11.2993 14.9387 11.3211 14.7601 11.332L14.3416 10.6067L14.7942 10.3449L15.3259 11.2665Z" fill="#C85929"/>
<path fill-rule="evenodd" clip-rule="evenodd" d="M11.709 13.5924C12.3102 12.5522 10.4302 10.3408 7.50984 8.6557C4.59089 6.96924 1.73596 6.44705 1.13474 7.4873C0.802073 8.064 0.469448 8.64206 0.135416 9.21877C-0.465849 10.259 1.41426 12.4704 4.33457 14.1555C7.25488 15.842 10.1084 16.3642 10.7097 15.3239C11.0437 14.7473 11.3763 14.1691 11.709 13.5924Z" fill="#FE9923"/>
<path fill-rule="evenodd" clip-rule="evenodd" d="M7.5098 8.6557C4.59085 6.96924 1.73593 6.44705 1.13471 7.4873C0.534851 8.52891 2.41491 10.7389 5.33387 12.424C8.25418 14.1105 11.1091 14.6327 11.709 13.5924C12.3102 12.5522 10.4301 10.3408 7.5098 8.6557Z" fill="#FECD3D"/>
<path fill-rule="evenodd" clip-rule="evenodd" d="M7.00128 9.53643C4.67947 8.19487 2.53625 7.55685 2.21586 8.11171C1.89547 8.66526 3.51922 10.2031 5.84239 11.5433C8.16557 12.8849 10.3088 13.5229 10.6292 12.968C10.9482 12.4145 9.32446 10.878 7.00128 9.53643Z" fill="#FEA832"/>
<path d="M1.35284 10.4104L0.821142 11.332C0.694345 11.1765 0.581188 11.0239 0.483032 10.8752L0.901579 10.1486L1.35284 10.4104ZM1.80819 12.3518C1.93634 12.4663 2.0713 12.5822 2.21038 12.6967L2.71752 11.8187L2.26625 11.5583L1.80819 12.3518ZM3.31334 13.5175C3.45514 13.6129 3.60102 13.7083 3.75097 13.8024L4.23495 12.964L3.78233 12.7049L3.31334 13.5175ZM4.93166 14.4854C5.08845 14.5672 5.24389 14.6463 5.39933 14.7213L5.86831 13.9087L5.41569 13.647L4.93166 14.4854ZM6.66041 15.2653C6.82949 15.3294 6.9958 15.388 7.16075 15.4412L7.61886 14.6477L7.16623 14.3887L6.66041 15.2653ZM8.53639 15.7874C8.73547 15.8188 8.92358 15.8406 9.10217 15.8515L9.52072 15.1262L9.06945 14.8645L8.53639 15.7874Z" fill="#C85929"/>
<path fill-rule="evenodd" clip-rule="evenodd" d="M11.2877 19.3009C10.6878 18.2606 12.5666 16.0506 15.4869 14.3641C18.4072 12.679 21.2608 12.1555 21.862 13.1957C22.196 13.7738 22.5287 14.3505 22.8613 14.9272C23.4626 15.9688 21.5825 18.1788 18.6635 19.8653C15.7432 21.5504 12.8883 22.0739 12.2871 21.0323C11.9544 20.4556 11.6218 19.8789 11.2877 19.3009Z" fill="#FE9923"/>
<path fill-rule="evenodd" clip-rule="evenodd" d="M15.4869 14.364C18.4072 12.6789 21.2608 12.1553 21.862 13.1956C22.4633 14.2372 20.5831 16.4472 17.6628 18.1337C14.7439 19.8188 11.889 20.3423 11.2877 19.3007C10.6878 18.2605 12.5666 16.0505 15.4869 14.364Z" fill="#FECD3D"/>
<path fill-rule="evenodd" clip-rule="evenodd" d="M15.9954 15.2449C18.3186 13.9033 20.4618 13.2666 20.7808 13.8201C21.1012 14.375 19.4774 15.9115 17.1542 17.2531C14.8311 18.5933 12.6892 19.2313 12.3688 18.6778C12.0485 18.1229 13.6722 16.5864 15.9954 15.2449Z" fill="#FEA832"/>
<path d="M21.6438 16.12L22.1768 17.0417C22.3036 16.8862 22.4168 16.7322 22.515 16.5836L22.0964 15.8583L21.6438 16.12ZM21.1897 18.0601C21.0602 18.176 20.9266 18.2905 20.7862 18.405L20.279 17.527L20.7316 17.268L21.1897 18.0601ZM19.6846 19.2258C19.5414 19.3226 19.3956 19.418 19.247 19.5121L18.763 18.6736L19.2156 18.4132L19.6846 19.2258ZM18.0649 20.1937C17.9095 20.2755 17.7527 20.3546 17.5987 20.4296L17.1296 19.617L17.5809 19.3553L18.0649 20.1937ZM16.3375 20.975C16.1685 21.0377 16.0008 21.0963 15.8372 21.1508L15.3791 20.356L15.8303 20.0969L16.3375 20.975ZM14.4615 21.4958C14.2625 21.5285 14.073 21.5489 13.8957 21.5599L13.4772 20.8346L13.9284 20.5728L14.4615 21.4958Z" fill="#C85929"/>
<path d="M10.1165 4.875V5.65078H10.8923V6.32428H10.1165V7.10137H9.44303V6.32428H8.66589V5.65078H9.44303V4.875H10.1165Z" fill="#FEA832"/>
<path d="M7.71706 17.3185V18.0943H8.49415V18.7677H7.71706V19.5449H7.04356V18.7677H6.26782V18.0943H7.04356V17.3185H7.71706Z" fill="#FEA832"/>
<path d="M23.1994 9.70959V10.4853H23.9765V11.1589H23.1994V11.936H22.5259V11.1589H21.7501V10.4853H22.5259V9.70959H23.1994Z" fill="#FEA832"/>
</svg>
