<?xml version='1.0' encoding='utf-8'?>
<svg xmlns="http://www.w3.org/2000/svg" width="80" height="80" fill="none"><path d="M80 40a40 40 0 1 1-80 0 40 40 0 0 1 80 0Z" fill="#7D2AE8"/><path d="M42.43 48.08a3.92 3.92 0 1 0-4.87.01c.2.16.3.42.26.68l-.87 5.25h6.09l-.88-5.26a.72.72 0 0 1 .27-.68ZM25.66 37.04l-.13-.07.13.07Zm-2.62-7.98.08-.05-.07.05Zm34.64 4.41-.02.04a3.77 3.77 0 0 0 .02-.04Z" fill="#FFD501"/><path d="M29.77 35.38a1.41 1.41 0 0 0-1.75.1l-.19.15-.11.08-.54.3-.56.25-.12.05-.32.12c-.18.05-.36.1-.55.13l-.3.06c-.3.05-.03.02.04 0-.17.06-.44.02-.62.03-.16 0-.43.02-.63 0a5.6 5.6 0 0 1-1.04-.28.8.8 0 0 1-.13-.07l-.23-.1a6.84 6.84 0 0 1-.88-.54l-.04-.04a11.5 11.5 0 0 1-1.18-1.11l-.11-.13a11.25 11.25 0 0 1-.77-1.14l-.2-.37-.04-.07a6.4 6.4 0 0 1-.42-1.41l-.02-.4c0-.21 0-.41.02-.62l.02-.05.08-.33.12-.33.02-.05a5 5 0 0 1 .25-.44c.05-.08.12-.16.16-.24l.02-.02.01-.02a7.08 7.08 0 0 1 .53-.5l-.02.02.03-.02a3.47 3.47 0 0 1 .58-.32l.22-.08.23-.06.06-.02h.54a3.4 3.4 0 0 1 .74.18c.2.07.03 0 .2.09.49.25.8.44 1.17.82.72.7 1.17 1.58 1.55 2.48.19.46.64.78 1.19.64.48-.13.84-.65.67-1.12-.8-2.2-2.03-4.42-4.5-5.29-2.4-.84-4.89.37-6.13 2.35-1.35 2.15-.88 4.82.32 6.92 1.18 2.07 3.2 3.96 5.69 4.54 1.3.3 2.68.26 3.95-.15A6.46 6.46 0 0 0 30.12 37c.37-.5.15-1.26-.35-1.61Zm-7.8-7.48c.02 0 .03 0 0 0Zm-2.64 1.7c.04-.08.02-.05 0 0Zm-.24 1.84c.01.07.03.15 0 0Zm44.51-2.53c-.92-2.2-3.17-3.81-5.72-3.4-2.86.47-4.33 3.12-5.19 5.49-.17.46.2 1 .67 1.12.54.14.98-.18 1.17-.64.33-.8.72-1.63 1.33-2.29a3.86 3.86 0 0 1 2.27-1.29h.35l.23.03c.15.04.29.07.43.12l.03.02.31.15c.1.05.18.11.27.17l.02.01a5.34 5.34 0 0 1 .56.57l.07.1c.11.17.21.35.3.53l.13.34.1.4c-.03-.14.03.19.03.24a4.88 4.88 0 0 1 0 .67l-.04.27a7.52 7.52 0 0 1-.37 1.22l-.03.07a8.66 8.66 0 0 1-.5.9l-.41.58a5.05 5.05 0 0 0-.1.12l-.17.2A10.97 10.97 0 0 1 58 35.8c-.17.12-.34.22-.52.32l-.36.18-.07.04a5.36 5.36 0 0 1-.9.25l-.13.02h-.05c-.2.01-.41.03-.62.02a6.93 6.93 0 0 1-.57-.01c-.2-.03-.4-.09-.6-.14a6.23 6.23 0 0 1-.23-.06l-.27-.1-.16-.07-.34-.15c-.22-.1-.44-.21-.65-.34l-.2-.13a5.28 5.28 0 0 1-.2-.16c-.5-.41-1.2-.5-1.73-.1-.47.36-.72 1.1-.34 1.61A6.3 6.3 0 0 0 53 39.25c1 .38 2.14.55 3.22.43 2.66-.29 4.75-1.9 6.2-3.99 1.33-1.93 2.1-4.54 1.18-6.78Zm-3.88-.55c-.07-.06-.04-.03 0 0Z" fill="#FFD501"/><path d="M40 44.96c-6.9 0-12.77-4.49-13.86-10.59l-2.92-11.01c-.17-.92.63-1.75 1.66-1.75h30.24c1.03 0 1.83.83 1.66 1.75l-2.92 11.01C52.77 40.47 46.9 44.96 40 44.96Z" fill="#FFD501"/><path d="M48.49 58.12h-1.7v-3.2c0-.5-.44-.9-1-.9H34.21c-.56 0-1 .4-1 .9v3.2h-1.7c-.73 0-1.33.53-1.33 1.19V64h19.64v-4.7c0-.65-.6-1.18-1.33-1.18Z" fill="#A548FF"/><path d="M44.81 56.47h-9.64v4.59h9.64v-4.6ZM41.9 16.6c-.12.5-.37.91-.76 1.24-.4.34-.91.5-1.36.75-.5.3-.42 1.14.17 1.28 1.68.39 3.23-1.32 3.55-2.83.22-1.04-1.36-1.5-1.6-.44Zm-1.45 16.37c.57-.57 1.55-.68 2.12-.05.3.32.45.74.4 1.18-.02.25-.23.78-.53.75 0 0-.02-.04 0 .01a.22.22 0 0 1-.01-.14.5.5 0 0 1 .22-.3c.37-.24.98-.1 1.38-.05.85.12 1.82.38 2.29 1.16.37.62 1.2.18.98-.48-.43-1.25-1.84-1.67-3.02-1.85-1.18-.18-2.85-.1-3.06 1.4-.08.59.2 1.2.79 1.4.6.24 1.26-.04 1.68-.5.9-.96.7-2.64-.23-3.5a2.67 2.67 0 0 0-3.73.14c-.46.51.22 1.34.72.83Z" fill="#D46BE4"/><path d="m23 46.22-2.16-1.03 1.68-3.51 2.63 1.26L23 46.22Zm29.44-23.71-1.31-.69.81-2.48 1.7.9-1.2 2.27Z" fill="#A548FF"/><path d="m33.09 20.03-1.6 1.56-2.54-2.61 1.96-1.9 2.18 2.95ZM50.9 45.79a4.8 4.8 0 0 0 1.15 1.74c.46.43 1.15.98 1.8.66 1.47-.7.46-3-.03-4l-1.25.74c.63.84 2.37 2.62 3.47 1.52.49-.48.42-1.2.3-1.82-.12-.69-.37-1.5-.99-1.9-.4-.24-.84.09-.87.5-.02.39.12.7.23 1.07.1.31.08.76.22 1.04v.15c.35-.11.4-.2.16-.26-.1-.12-.36-.2-.48-.28-.3-.2-.57-.47-.79-.76-.55-.73-1.67-.12-1.25.74.19.38.37.76.49 1.17.05.2.09.4.08.61.01.1 0 .19-.02.28-.06.17.05.14.32-.1 0-.01-.77-.57-.85-.66a3.67 3.67 0 0 1-.6-.9c-.29-.6-1.35-.17-1.09.46ZM30.35 53.5l-1.43 1.4-2.26-2.34 1.75-1.7 1.94 2.64Z" fill="#00C4CC"/><path d="M23.58 25.46c.1.42.3.78.64 1.06.33.29.77.42 1.16.64.43.25.35.97-.15 1.08-1.43.33-2.74-1.11-3.02-2.4-.19-.89 1.16-1.27 1.37-.38ZM53.7 56.07l-1.72.57-.91-2.8 2.1-.7.54 2.93Z" fill="#D46BE4"/><path d="M36.78 38.28a12.5 12.5 0 0 1-.99-1l-.24-.3c-.13-.15-.07-.08.02.04-.22-.29-.42-.59-.65-.87.15.2.12.17 0-.02a12.89 12.89 0 0 1-1.25-2.12c-.03-.08-.06-.2-.12-.27.24.32.09.2.02.02l-.23-.63c-.15-.45-.3-.9-.43-1.35-.27-.92-.57-1.82-.85-2.74-.48-1.52-2.7-1.58-3.16 0a8 8 0 0 0-.13 3.8c.2 1.13.7 2.22 1.26 3.22a12.68 12.68 0 0 0 4.73 4.84c.72.42 1.65.22 2.15-.43.48-.63.48-1.63-.13-2.19Z" fill="#FFEBC3"/></svg>