<svg width="16" height="16" viewBox="0 0 16 16" fill="none" xmlns="http://www.w3.org/2000/svg">
<path d="M9.2767 16H2.35415C1.05605 16 0 14.946 0 13.6505V2.34949C0 1.05396 1.05605 0 2.35415 0H7.64681C8.22289 0 8.7627 0.255294 9.1279 0.700471L11.1983 3.22576C11.4772 3.56596 11.6308 3.99557 11.6308 4.43545V5.17647C11.6308 5.43635 11.4197 5.64706 11.1593 5.64706C10.8989 5.64706 10.6878 5.43635 10.6878 5.17647V4.43545C10.6878 4.21227 10.6099 3.99431 10.4684 3.8218L8.3981 1.29659C8.21283 1.07075 7.93896 0.941177 7.64681 0.941177H2.35415C1.57606 0.941177 0.943042 1.57294 0.943042 2.34949V13.6505C0.943042 14.4271 1.57606 15.0588 2.35415 15.0588H9.2767C9.93216 15.0588 10.4964 14.6156 10.6489 13.9809C10.7097 13.7282 10.9641 13.5725 11.2174 13.6331C11.4706 13.6936 11.6267 13.9476 11.566 14.2004C11.3114 15.26 10.37 16 9.2767 16Z" fill="#333333"/>
<path d="M10.845 5.01958H8.51285C7.63213 5.01958 6.91565 4.30452 6.91565 3.42554V2.35291C6.91565 2.09303 7.12677 1.88232 7.38717 1.88232C7.64757 1.88232 7.85869 2.09303 7.85869 2.35291V3.42554C7.85869 3.78554 8.15217 4.0784 8.51285 4.0784H10.845C11.1054 4.0784 11.3165 4.28911 11.3165 4.54899C11.3165 4.80887 11.1054 5.01958 10.845 5.01958Z" fill="#333333"/>
<path d="M10.3014 11.8278C9.92604 11.8278 9.55082 11.7616 9.19369 11.6292L5.24045 10.1641C4.85895 10.0226 4.60272 9.65469 4.60272 9.24865C4.60272 8.84202 4.85919 8.47406 5.24093 8.333L9.19373 6.86775C9.908 6.603 10.6947 6.603 11.409 6.86775C12.4659 7.25963 14.1848 7.89677 15.3623 8.3332C15.7436 8.4741 16 8.8421 16 9.24869C16 9.65473 15.7438 10.0226 15.3624 10.1641C14.554 10.4636 13.6619 10.7941 13.6619 10.7941C13.4177 10.8848 13.1464 10.7605 13.0558 10.5168C12.9651 10.2732 13.0895 10.0023 13.3336 9.91187C13.3336 9.91187 14.2258 9.58116 15.034 9.28187C15.0476 9.27681 15.0569 9.26343 15.0569 9.24869C15.0569 9.23391 15.0479 9.22065 15.0343 9.21563C13.8564 8.77908 12.1375 8.14191 11.0806 7.75006C10.578 7.56379 10.0245 7.56379 9.52198 7.75006L5.56871 9.21547C5.5548 9.22065 5.54572 9.23391 5.54572 9.24869C5.54572 9.26343 5.55504 9.27681 5.56891 9.28194L9.52198 10.747C10.0246 10.9333 10.5781 10.9333 11.0807 10.747L12.0816 10.3761C12.3259 10.2857 12.5972 10.4099 12.6878 10.6535C12.7785 10.8972 12.654 11.168 12.4099 11.2585L11.4089 11.6293C11.0518 11.7616 10.6766 11.8278 10.3014 11.8278Z" fill="#333333"/>
<path d="M10.3013 14.5886C9.83996 14.5886 9.37858 14.5478 8.92034 14.4661C8.7647 14.4385 8.60442 14.4099 8.44638 14.3816C7.39238 14.1939 6.62714 13.2819 6.62714 12.213V10.4671C6.62714 10.2072 6.83826 9.99652 7.09866 9.99652C7.35905 9.99652 7.57018 10.2072 7.57018 10.4671V12.213C7.57018 12.8252 8.0085 13.3476 8.6124 13.4551C8.77032 13.4834 8.93004 13.5119 9.08569 13.5395C9.89242 13.6833 10.7101 13.6833 11.5163 13.5396C11.6728 13.5119 11.8325 13.4833 11.99 13.4552C12.5941 13.3477 13.0323 12.8253 13.0323 12.213V10.3529C13.0323 10.093 13.2434 9.88232 13.5038 9.88232C13.7642 9.88232 13.9753 10.093 13.9753 10.3529V12.213C13.9753 13.2819 13.2102 14.194 12.156 14.3817C11.9983 14.4099 11.8379 14.4385 11.6814 14.4662C11.2237 14.5478 10.7625 14.5886 10.3013 14.5886Z" fill="#333333"/>
<path d="M12.2551 12.1085C11.9947 12.1085 11.7836 11.8978 11.7836 11.6379V10.6306C11.7836 10.1201 11.4182 9.68544 10.9147 9.59697L10.2287 9.47615C9.97232 9.43105 9.80104 9.18693 9.8463 8.93101C9.89149 8.67513 10.1359 8.50379 10.3925 8.54932L11.0785 8.67011C12.0335 8.83799 12.7267 9.66254 12.7267 10.6306V11.638C12.7267 11.8978 12.5155 12.1085 12.2551 12.1085Z" fill="#333333"/>
</svg>
