<svg width="60" height="60" viewBox="0 0 60 60" fill="none" xmlns="http://www.w3.org/2000/svg">
<path d="M52.1725 50.8572C52.1725 55.9066 48.0791 60 43.0297 60H16.9703C11.9209 60 7.82754 55.9066 7.82754 50.8572V4.49351L11.3319 2.07898H48.0497L52.1726 4.49351V50.8572H52.1725Z" fill="#D3EFFB"/>
<path d="M7.82754 4.49353V6.74037H43.9561C46.627 6.74037 48.7922 8.90564 48.7922 11.5765V50.8571C48.7922 55.9065 44.6988 59.9999 39.6494 59.9999H43.0297C48.0791 59.9999 52.1725 55.9065 52.1725 50.8571V4.49353H7.82754Z" fill="#B1E4F9"/>
<path d="M43.0297 60.0001H16.9703C11.9209 60.0001 7.82754 55.9067 7.82754 50.8573V44.8314H52.1726V50.8573C52.1725 55.9067 48.0792 60.0001 43.0297 60.0001Z" fill="#F4D8A5"/>
<path d="M48.7922 50.8573C48.7922 55.9066 44.6991 59.9998 39.6498 60.0001H43.0298C48.0792 60.0001 52.1726 55.9067 52.1726 50.8573V44.8314H48.7922V50.8573Z" fill="#F1CB86"/>
<path d="M54.232 0H5.76797C4.52707 0 3.52113 1.00594 3.52113 2.24684C3.52113 3.48773 4.52707 4.49367 5.76797 4.49367H54.232C55.4729 4.49367 56.4789 3.48773 56.4789 2.24684C56.4789 1.00594 55.4729 0 54.232 0Z" fill="#90D8F9"/>
<path d="M54.232 0H51.6919C52.9328 0 53.9387 1.00594 53.9387 2.24684C53.9387 3.48773 52.9328 4.49367 51.6919 4.49367H54.232C55.4729 4.49367 56.4789 3.48773 56.4789 2.24684C56.4789 1.00594 55.4729 0 54.232 0Z" fill="#75CEF9"/>
<path d="M27.4607 49.6071C27.1573 49.6071 26.8608 49.4546 26.6897 49.1776C26.4268 48.7521 26.5584 48.1943 26.9838 47.9313L29.524 46.3614C29.9493 46.0988 30.5074 46.2302 30.7703 46.6556C31.0331 47.0811 30.9015 47.6389 30.4761 47.9019L27.936 49.4717C27.7875 49.5634 27.6231 49.6071 27.4607 49.6071Z" fill="#AA7A63"/>
<path d="M33.3134 52.0007C33.2273 52.0007 33.1398 51.9883 33.0531 51.9624L29.74 50.9693C29.2609 50.8258 28.9891 50.321 29.1326 49.842C29.2763 49.363 29.7804 49.0915 30.2599 49.2346L33.573 50.2276C34.0521 50.3712 34.3239 50.8759 34.1804 51.355C34.0628 51.7472 33.7029 52.0007 33.3134 52.0007Z" fill="#AA7A63"/>
<path d="M27.4601 54.3385C27.2156 54.3385 26.9722 54.2402 26.7936 54.0462C26.4551 53.6782 26.4788 53.1056 26.8467 52.7668L29.3869 50.4286C29.7547 50.0901 30.3275 50.1138 30.6663 50.4817C31.0049 50.8497 30.9812 51.4224 30.6132 51.7612L28.0731 54.0993C27.8991 54.2594 27.6792 54.3385 27.4601 54.3385Z" fill="#AA7A63"/>
<path d="M30 54.6798C29.4998 54.6798 29.0946 54.2744 29.0946 53.7744V26.5741C29.0946 26.0739 29.5 25.6687 30 25.6687C30.5 25.6687 30.9054 26.0741 30.9054 26.5741V53.7744C30.9054 54.2744 30.5 54.6798 30 54.6798Z" fill="#D8AA8B"/>
<path d="M30.2107 28.778C30.0943 28.8944 29.9057 28.8944 29.7893 28.778L27.8085 26.7972C25.0186 24.0073 25.0186 19.4841 27.8085 16.6943L29.7893 14.7135C29.9057 14.5971 30.0943 14.5971 30.2107 14.7135L32.1915 16.6943C34.9814 19.4842 34.9814 24.0074 32.1915 26.7972L30.2107 28.778Z" fill="#9BD069"/>
<path d="M32.1915 26.7972C34.9814 24.0073 34.9814 19.4841 32.1915 16.6943L30.2107 14.7135C30.0943 14.5971 29.9057 14.5971 29.7893 14.7135L28.8771 15.6257L29.9457 16.6943C32.7356 19.4842 32.7356 24.0074 29.9457 26.7972L28.8771 27.8658L29.7893 28.778C29.9057 28.8944 30.0943 28.8944 30.2107 28.778L32.1915 26.7972Z" fill="#7DBE3B"/>
<path d="M30 39.2096H27.2727C23.8008 39.2096 20.9862 36.395 20.9862 32.9231V30.4938C20.9862 30.3293 21.1195 30.1958 21.2842 30.1958H23.7135C27.1854 30.1958 30 33.0104 30 36.4823V39.2096Z" fill="#9BD069"/>
<path d="M30 36.4823C30 33.0104 27.1854 30.1958 23.7135 30.1958H21.2842C21.1197 30.1958 20.9862 30.3292 20.9862 30.4938V31.5627H22.1188C25.5907 31.5627 28.4053 34.3773 28.4053 37.8492V39.2096H30V36.4823Z" fill="#7DBE3B"/>
<path d="M30 39.2096H32.7273C36.1992 39.2096 39.0138 36.395 39.0138 32.9231V30.4938C39.0138 30.3293 38.8805 30.1958 38.7158 30.1958H36.2865C32.8146 30.1958 30 33.0104 30 36.4823V39.2096Z" fill="#9BD069"/>
<path d="M37.457 30.1959V31.2146C37.457 34.6865 34.6425 37.5012 31.1705 37.5012H30V39.2098H32.7273C36.1992 39.2098 39.0138 36.3951 39.0138 32.9232V30.4939C39.0138 30.3294 38.8805 30.1959 38.7158 30.1959H37.457Z" fill="#7DBE3B"/>
<path d="M12.7083 50.7173C12.2081 50.7173 11.8029 50.3119 11.8029 49.8119V49.7414C11.8029 49.2413 12.2082 48.8361 12.7083 48.8361C13.2084 48.8361 13.6137 49.2414 13.6137 49.7414V49.8119C13.6138 50.3119 13.2084 50.7173 12.7083 50.7173Z" fill="#D8AA8B"/>
<path d="M16.2729 55.7237C15.7727 55.7237 15.3675 55.3184 15.3675 54.8183V54.7479C15.3675 54.2478 15.7729 53.8425 16.2729 53.8425C16.773 53.8425 17.1783 54.2479 17.1783 54.7479V54.8183C17.1783 55.3185 16.7729 55.7237 16.2729 55.7237Z" fill="#D8AA8B"/>
<path d="M21.1591 52.0709C20.659 52.0709 20.2538 51.6656 20.2538 51.1655V51.0951C20.2538 50.5949 20.6591 50.1897 21.1591 50.1897C21.6592 50.1897 22.0645 50.595 22.0645 51.0951V51.1655C22.0645 51.6657 21.6593 52.0709 21.1591 52.0709Z" fill="#D8AA8B"/>
<path d="M47.2917 50.7173C46.7916 50.7173 46.3863 50.3119 46.3863 49.8119V49.7414C46.3863 49.2413 46.7917 48.8361 47.2917 48.8361C47.7918 48.8361 48.1971 49.2414 48.1971 49.7414V49.8119C48.1971 50.3119 47.7919 50.7173 47.2917 50.7173Z" fill="#D8AA8B"/>
<path d="M43.7271 55.7237C43.227 55.7237 42.8217 55.3184 42.8217 54.8183V54.7479C42.8217 54.2478 43.2271 53.8425 43.7271 53.8425C44.2271 53.8425 44.6325 54.2479 44.6325 54.7479V54.8183C44.6326 55.3185 44.2273 55.7237 43.7271 55.7237Z" fill="#D8AA8B"/>
<path d="M38.8409 52.0709C38.3407 52.0709 37.9355 51.6656 37.9355 51.1655V51.0951C37.9355 50.5949 38.3408 50.1897 38.8409 50.1897C39.3409 50.1897 39.7463 50.595 39.7463 51.0951V51.1655C39.7464 51.6657 39.341 52.0709 38.8409 52.0709Z" fill="#D8AA8B"/>
</svg>
