<svg width="60" height="60" viewBox="0 0 60 60" fill="none" xmlns="http://www.w3.org/2000/svg">
<g clip-path="url(#clip0_29_370)">
<path d="M58.1252 54.7338C58.1252 52.7961 56.5545 51.2255 54.6169 51.2255H5.25891C3.32531 51.2255 1.75781 49.6547 1.75781 47.7171C1.75781 45.7794 3.32531 44.2088 5.25891 44.2088H8.76V10.8752H54.5436C57.5236 10.8752 59.9382 13.2931 59.9343 16.273L59.883 54.7338H58.1252Z" fill="#EDFBFF"/>
<path d="M54.5436 10.8752H29.8831V51.2255H54.6168C56.5543 51.2255 58.1251 52.7963 58.1251 54.7338H59.8829L59.9341 16.273C59.9381 13.2931 57.5236 10.8752 54.5436 10.8752Z" fill="#D6F2FF"/>
<path d="M49.3652 51.2253H54.6241C56.5577 51.2253 58.1252 52.7961 58.1252 54.7337C58.1252 56.6713 56.5577 58.2421 54.6241 58.2421H49.3652V51.2253Z" fill="#B2E7FF"/>
<path d="M1.75781 49.4748C0.787031 49.4748 0 48.6878 0 47.717V9.24164C0 6.33785 2.3591 3.97546 5.25891 3.97546H8.76C9.73078 3.97546 10.5178 4.7625 10.5178 5.73328V44.2087C10.5178 45.1795 9.73078 45.9666 8.76 45.9666H5.25891C4.29762 45.9666 3.51563 46.7518 3.51563 47.7171C3.51563 48.6879 2.72859 49.4748 1.75781 49.4748Z" fill="#D6F2FF"/>
<path d="M54.6241 49.4675H5.25891C4.29762 49.4675 3.51562 48.6822 3.51562 47.717C3.51562 46.7517 4.29762 45.9664 5.25891 45.9664H8.76C9.73078 45.9664 10.5178 45.1794 10.5178 44.2086C10.5178 43.2378 9.73078 42.4508 8.76 42.4508H5.25891C2.3591 42.4508 0 44.8132 0 47.717C0 50.6208 2.3591 52.9831 5.25891 52.9831H54.6241C55.5854 52.9831 56.3674 53.7684 56.3674 54.7337C56.3674 55.699 55.5854 56.4844 54.6241 56.4844H51.123C50.1523 56.4844 49.3652 57.2714 49.3652 58.2422C49.3652 59.213 50.1523 60 51.123 60H54.6241C57.5239 60 59.883 57.6376 59.883 54.7337C59.883 51.83 57.5239 49.4675 54.6241 49.4675Z" fill="#8FD4FF"/>
<path d="M54.6242 49.4675H29.8831V52.9832H54.6242C55.5854 52.9832 56.3674 53.7684 56.3674 54.7337C56.3674 55.699 55.5854 56.4844 54.6242 56.4844H51.1231C50.1523 56.4844 49.3652 57.2714 49.3652 58.2422C49.3652 59.213 50.1523 60 51.1231 60H54.6242C57.524 60 59.8831 57.6376 59.8831 54.7337C59.8831 51.83 57.524 49.4675 54.6242 49.4675Z" fill="#72C5FC"/>
<path d="M25.1653 36.6616C24.7062 36.6616 24.2575 36.4817 23.9229 36.1474C23.464 35.689 23.2948 35.0152 23.4828 34.3943L25.9091 26.3815C27.2332 22.0089 29.6374 17.9898 32.862 14.7585L35.7866 11.8277C45.3771 2.21731 57.4436 0.108992 57.9525 0.023914C58.5416 -0.0744064 59.1402 0.132781 59.5422 0.574461C59.9441 1.01614 60.0944 1.63161 59.9411 2.20887C59.7892 2.78075 56.1305 16.3061 48.1982 24.255L45.2735 27.1857C42.0485 30.4174 38.0371 32.827 33.6726 34.1541L25.6765 36.5855C25.5083 36.6368 25.3361 36.6616 25.1653 36.6616Z" fill="#FFB500"/>
<path d="M25.1653 36.6618C25.3361 36.6618 25.5083 36.6368 25.6765 36.5857L33.6725 34.1543C38.0371 32.8273 42.0485 30.4176 45.2735 27.186L48.1982 24.2552C56.1305 16.3062 59.7893 2.78087 59.9412 2.209C60.0945 1.63185 59.9442 1.01626 59.5423 0.574585L23.9473 36.1696C24.2791 36.489 24.7168 36.6618 25.1653 36.6618Z" fill="#FF7403"/>
<path d="M29.3581 39.4923H22.3405C21.3697 39.4923 20.5827 38.7052 20.5827 37.7345V30.7023C20.5827 29.7315 21.3697 28.9445 22.3405 28.9445C23.3113 28.9445 24.0983 29.7315 24.0983 30.7023V35.9766H29.3581C30.3288 35.9766 31.1159 36.7637 31.1159 37.7345C31.1159 38.7052 30.3288 39.4923 29.3581 39.4923Z" fill="#FF9300"/>
<path d="M22.3405 39.4923H29.358C30.3288 39.4923 31.1158 38.7053 31.1158 37.7345C31.1158 36.7637 30.3288 35.9767 29.358 35.9767H24.1401L21.1195 38.9973C21.4357 39.3033 21.8658 39.4923 22.3405 39.4923Z" fill="#DA5400"/>
<path d="M18.0721 43.7698C17.6228 43.7698 17.1736 43.5985 16.8304 43.2562C16.1432 42.5705 16.142 41.4575 16.8278 40.7703L41.0193 16.5281C41.705 15.8409 42.818 15.8398 43.5052 16.5255C44.1924 17.2113 44.1935 18.3242 43.5077 19.0114L19.3163 43.2535C18.973 43.5976 18.5225 43.7698 18.0721 43.7698Z" fill="#FFF566"/>
<path d="M18.0721 43.7698C18.5226 43.7698 18.973 43.5976 19.3164 43.2537L43.5079 19.0116C44.1791 18.3389 44.1904 17.2593 43.5462 16.5708L16.8463 43.2706C17.1874 43.6028 17.6295 43.7698 18.0721 43.7698Z" fill="#FFCF2C"/>
</g>
<defs>
<clipPath id="clip0_29_370">
<rect width="60" height="60" fill="white"/>
</clipPath>
</defs>
</svg>
