<svg width="40" height="40" viewBox="0 0 40 40" fill="none" xmlns="http://www.w3.org/2000/svg">
<path d="M32 0H8C3.58172 0 0 3.58172 0 8V32C0 36.4183 3.58172 40 8 40H32C36.4183 40 40 36.4183 40 32V8C40 3.58172 36.4183 0 32 0Z" fill="#9B51E0"/>
<path d="M25.0799 26.375C25.713 25.6277 26.1739 24.7503 26.4299 23.805C26.6658 24.0909 26.9161 24.3646 27.1799 24.625C27.7397 25.1171 28.447 25.4098 29.191 25.4571C29.9349 25.5044 30.6735 25.3037 31.2912 24.8864C31.9089 24.4691 32.3708 23.8588 32.6047 23.151C32.8385 22.4432 32.8311 21.6778 32.5835 20.9747C32.3359 20.2715 31.8622 19.6703 31.2365 19.2651C30.6108 18.86 29.8684 18.6737 29.1255 18.7354C28.3827 18.7972 27.6812 19.1035 27.131 19.6065C26.5808 20.1095 26.2129 20.7806 26.0849 21.515C25.9949 22.015 26.0349 22.58 25.9349 23.1C25.78 24.1742 25.326 25.1832 24.6249 26.0117C23.9238 26.8401 23.0037 27.4547 21.9699 27.785C19.6999 28.57 17.6549 28.065 15.8599 26.49C15.8099 26.445 15.7699 26.39 15.7349 26.355C15.9999 25.935 16.2849 25.54 16.5099 25.115C16.7349 24.69 16.8749 24.25 17.0399 23.855C17.3356 24.1906 17.6565 24.5032 17.9999 24.79C18.4858 25.155 19.0618 25.3812 19.6663 25.4443C20.2707 25.5075 20.881 25.4052 21.4319 25.1485C21.9828 24.8918 22.4536 24.4903 22.7941 23.9868C23.1345 23.4834 23.3318 22.8969 23.3649 22.29C23.38 21.3803 23.5596 20.4808 23.8949 19.635C24.3127 18.7052 24.9597 17.8966 25.7752 17.2849C26.5907 16.6733 27.5481 16.2785 28.5577 16.1376C29.5674 15.9968 30.5962 16.1144 31.548 16.4794C32.4998 16.8445 33.3434 17.4451 33.9999 18.225C34.7257 19.0394 35.2051 20.0434 35.3821 21.1199C35.5592 22.1964 35.4266 23.301 34.9999 24.305C34.636 25.3128 33.9973 26.1986 33.1561 26.8622C32.3148 27.5258 31.3047 27.9407 30.2399 28.06C29.3589 28.2022 28.4571 28.1409 27.6035 27.8809C26.7498 27.6209 25.967 27.1691 25.3149 26.56C25.2405 26.4935 25.162 26.4317 25.0799 26.375Z" fill="white"/>
<path d="M23.3799 11.855L20.2749 16.075C21.3577 16.1229 22.4063 16.469 23.3049 17.075C23.6449 17.31 23.9549 17.575 24.3049 17.85C23.6766 18.6069 23.2149 19.4877 22.9499 20.435L22.7349 20.155C22.3288 19.5836 21.7548 19.1528 21.0926 18.9225C20.4304 18.6922 19.713 18.6739 19.0399 18.87C18.3707 19.0635 17.7789 19.4617 17.3476 20.0087C16.9162 20.5557 16.667 21.2241 16.6349 21.92C16.6196 23.1304 16.285 24.3153 15.6649 25.355C14.9784 26.435 13.9663 27.2688 12.7748 27.736C11.5834 28.2032 10.2743 28.2795 9.0366 27.9539C7.79894 27.6284 6.69681 26.9178 5.88942 25.9249C5.08203 24.9319 4.6112 23.708 4.54492 22.43C4.54492 22.335 4.54492 22.24 4.54492 22.12H7.16492C7.19992 22.355 7.22492 22.58 7.26992 22.8C7.43704 23.5909 7.88292 24.2955 8.52625 24.7851C9.16957 25.2747 9.96746 25.5167 10.7744 25.467C11.5813 25.4173 12.3434 25.0791 12.9218 24.5143C13.5001 23.9494 13.8562 23.1955 13.9249 22.39C13.934 21.5181 14.1035 20.6554 14.4249 19.845C14.6285 19.3857 14.8728 18.9456 15.1549 18.53C16.7349 16.36 18.3349 14.205 19.9349 12.03C19.9665 11.9832 20.0071 11.9432 20.0543 11.9123C20.1015 11.8814 20.1544 11.8602 20.2099 11.85C21.2299 11.85 22.2649 11.855 23.3799 11.855Z" fill="white"/>
<path d="M16.91 11.87L13.365 16.695L14.945 17.885C14.3074 18.6745 13.847 19.5919 13.595 20.575C13.52 20.46 13.475 20.385 13.425 20.315C13.1313 19.837 12.7204 19.4419 12.2313 19.1672C11.7422 18.8924 11.191 18.7471 10.63 18.745C9.96 18.745 9.29 18.745 8.53 18.745L11.615 14.54H6L6.815 13.425C7.15 12.965 7.485 12.5 7.815 12.045C7.89909 11.9455 8.01629 11.8798 8.145 11.86C11 11.86 13.85 11.86 16.705 11.86L16.91 11.87Z" fill="white"/>
</svg>
