<svg id="Layer_1" data-name="Layer 1" xmlns="http://www.w3.org/2000/svg" xmlns:xlink="http://www.w3.org/1999/xlink" viewBox="0 0 288 288"><defs><style>.cls-1{fill:url(#linear-gradient);}.cls-2{fill:url(#linear-gradient-2);}</style><linearGradient id="linear-gradient" x1="62.2" y1="174.32" x2="220.09" y2="174.32" gradientUnits="userSpaceOnUse"><stop offset="0" stop-color="#005bbb"/><stop offset="0.61" stop-color="#4145b8"/><stop offset="1" stop-color="#6639b7"/></linearGradient><linearGradient id="linear-gradient-2" x1="62.2" y1="115.5" x2="220.09" y2="115.5" xlink:href="#linear-gradient"/></defs><path class="cls-1" d="M218.89,186.54l-5.15-3.6a16.78,16.78,0,0,1,2-19.14l2.06-.37a2.83,2.83,0,0,0,1.12-5.09l-18.65-13.05a2.82,2.82,0,1,0-3.23,4.62l13.09,9.17L121.29,175a16.89,16.89,0,0,0-14,16.83l-35.58-31.2A11.11,11.11,0,0,1,68,154.15a11.31,11.31,0,0,1,9.22-13.08L82.51,140a2.82,2.82,0,1,0-1.13-5.52l-5.2,1.05A16.84,16.84,0,0,0,68,164.89l45,39.5.16.11a16.93,16.93,0,0,0,11,4.08,17.5,17.5,0,0,0,3-.26l25.23-4.65v7.73a2.84,2.84,0,0,0,1.74,2.61,2.92,2.92,0,0,0,1.08.21,2.81,2.81,0,0,0,2-.82l6.82-6.83,6.54,4.36a2.82,2.82,0,0,0,4.38-2.35v-9.07l42.8-7.89a2.82,2.82,0,0,0,1.11-5.08Zm-49.55,16.77-4.08-2.71a2.8,2.8,0,0,0-3.55.35l-3.65,3.65V192.67a8.36,8.36,0,0,0-1.08-4.13l9.75-1.8a2.82,2.82,0,0,1,2.61,2.81Zm-2.82-22.21a2.92,2.92,0,0,0-.51,0l-16.92,3.12a2.82,2.82,0,0,0,.51,5.59,2.82,2.82,0,0,1,2.82,2.82v5.26l-26.23,4.84a11.28,11.28,0,1,1-3.91-22.21l85.87-15.41a22.31,22.31,0,0,0,1.69,22.2L175,193.78v-4.23A8.47,8.47,0,0,0,166.52,181.1Z"/><path class="cls-2" d="M218.19,93.14l-73.3-25.37a2.92,2.92,0,0,0-.92-.16h-5.64a2.93,2.93,0,0,0-.93.16L64.1,93.14a2.83,2.83,0,0,0-1.9,2.67v31a2.82,2.82,0,1,0,5.64,0V105.7l22.56,9.54v24.41a11.45,11.45,0,0,0,4.66,9.15c13.14,9.73,29.61,14.59,46.09,14.59s32.94-4.86,46.08-14.59a11.45,11.45,0,0,0,4.66-9.15V115.24L218.37,104a2.82,2.82,0,0,0,1.72-2.59V95.81A2.83,2.83,0,0,0,218.19,93.14Zm-31.93,46.51a5.78,5.78,0,0,1-2.39,4.62c-24.35,18-61.09,18-85.45,0A5.79,5.79,0,0,1,96,139.65v-22l41.19,17.43a3,3,0,0,0,1.1.22H144a2.91,2.91,0,0,0,1.09-.22l41.2-17.43Zm28.19-40.07-71.06,30.06H138.9L67.84,99.58V97.81l71-24.56h4.69l71,24.56Z"/></svg>