<svg xmlns="http://www.w3.org/2000/svg" viewBox="0 0 288 288"><defs><style>.cls-1{fill:#71b2e2;opacity:0.65;}.cls-2{fill:none;stroke:#005596;stroke-linecap:round;stroke-miterlimit:10;stroke-width:7px;}.cls-3{fill:#005596;}</style></defs><title>grad-icon</title><g id="Layer_5" data-name="Layer 5"><path class="cls-1" d="M98.85,102.11l12.86,16.78a86.44,86.44,0,0,0,52.87,32.41h0a25.5,25.5,0,0,0,15.25.4l22.66-6.45-1.29,23.3-14.72,5.57a137.46,137.46,0,0,1-48.65,8.9h0a11.59,11.59,0,0,0-11.59,11.56l0,11.1L96,190.56l-6.39-13-3-11.49,1.26-16.64L56.92,137,44.11,132.5l-3-8.76L61,117.14Z"/><path class="cls-1" d="M46.54,211.69V190.08L59,183h2.12a30.56,30.56,0,0,1,10.84,23.34v5.31Z"/><path class="cls-2" d="M183.44,154.79,157.08,163a45,45,0,0,1-28.89-.76L44.11,132.5a4.62,4.62,0,0,1-.14-8.61L135.8,87.45a22.33,22.33,0,0,1,16.27-.08l93.83,35.26a6.05,6.05,0,0,1,.35,11.14L205.16,148a8.16,8.16,0,0,0-5.49,7.71v18.5a18.85,18.85,0,0,1-10.3,16.8l-36.3,18.46a20.9,20.9,0,0,1-18.42.26l-34.31-16.25A18.85,18.85,0,0,1,89.6,177.57l-.72-11.49"/><path class="cls-2" d="M125.63,128.76,67,143.63a8.83,8.83,0,0,0-7,8.64v27.57A5.78,5.78,0,0,1,56.75,185l-8.12,4a3.75,3.75,0,0,0-2.09,3.36v15.54a3.75,3.75,0,0,0,3.75,3.75H67.71"/><circle class="cls-3" cx="142.79" cy="123.38" r="7.01"/></g></svg>