<svg width="60" height="60" viewBox="0 0 60 60" fill="none" xmlns="http://www.w3.org/2000/svg">
<g clip-path="url(#clip0_29_107)">
<path d="M57.3252 53.821C57.1026 53.5984 56.7977 53.4629 56.459 53.4629H55.1187V49.3306V47.1677V45.1984C56.4977 45.1984 57.5719 44.0129 57.4461 42.6435L53.7252 2.73871C53.5848 1.18548 52.2784 0 50.7203 0H11.2606C8.74451 0 6.63968 1.91613 6.40742 4.42258L2.32355 48.5516C2.1929 51.7016 3.99774 54.9774 6.72193 55.9113H9.31548H9.32032C9.63484 57.3484 10.1671 58.7081 10.9219 60L13.7139 57.0484L16.5058 60C17.2606 58.7081 17.7929 57.3484 18.1123 55.9113H56.459C57.1364 55.9113 57.6832 55.3645 57.6832 54.6871C57.6832 54.3484 57.5477 54.0435 57.3252 53.821Z" fill="#53B79A"/>
<path d="M55.1187 49.3306V53.4629H18.4461C18.5187 52.1371 18.4268 50.758 18.18 49.3306H55.1187Z" fill="#D6EAE8"/>
<path d="M9.25259 49.3306C9.00581 50.7629 8.91388 52.1371 8.98646 53.4629H6.72194C4.21065 51.0871 3.52356 47.4968 6.15581 45.2806L55.1187 45.1984V47.1677V49.3306H18.18H9.25259Z" fill="#E7F2F1"/>
<path d="M46.2687 24.15C46.4429 26.6758 43.6558 28.0161 42.1268 26.1387L35.2413 17.671V24.929C35.2413 25.5048 35.0332 26.0274 34.6945 26.4048C34.3558 26.7823 33.8864 27.0145 33.3687 27.0145C32.3187 27.0145 31.4768 26.0516 31.4961 24.8807L31.7719 10.6452C31.801 8.71453 34.0026 7.92582 35.0381 9.46936L42.0397 19.8968V10.3065C42.0397 9.85162 42.2235 9.44033 42.5187 9.14517C42.8139 8.85001 43.2251 8.66614 43.68 8.66614C44.5413 8.66614 45.2574 9.33388 45.3155 10.1952L46.2687 24.15Z" fill="#FFC05A"/>
<path d="M27.451 16.0065C28.3026 16.0065 28.9945 16.6935 28.9945 17.5452C28.9945 17.971 28.8204 18.3581 28.5397 18.6387C28.2639 18.9145 27.8768 19.0887 27.451 19.0887H18.7316L18.2865 23.0952H27.03C28.1139 23.0952 28.9945 23.971 28.9945 25.0548C28.9945 26.1387 28.1139 27.0194 27.03 27.0194H16.7236C15.3397 27.0194 14.2607 25.8194 14.4107 24.4403L15.8913 10.7323C16.0171 9.55161 17.0139 8.65161 18.2042 8.65161H27.4123C28.2833 8.65161 28.9945 9.3629 28.9945 10.2339C28.9945 10.6742 28.8155 11.0661 28.53 11.3516C28.2445 11.6419 27.8478 11.8161 27.4123 11.8161H19.5445L19.0752 16.0065H27.451Z" fill="#FFC05A"/>
<path d="M18.18 49.3306C18.4268 50.758 18.5187 52.1371 18.4461 53.4629C18.4026 54.3 18.2913 55.1177 18.1123 55.9113C17.7929 57.3484 17.2607 58.708 16.5058 60L13.7139 57.0484L10.9219 60C10.1671 58.708 9.63485 57.3484 9.32033 55.9113C9.1413 55.1177 9.03001 54.3 8.98646 53.4629C8.91388 52.1371 9.00582 50.7629 9.25259 49.3306H18.18Z" fill="#E15C63"/>
<path d="M57.4461 42.6435C57.5719 44.0129 56.4977 45.1984 55.1187 45.1984L6.15581 45.2806C3.52355 47.4968 4.21064 51.0871 6.72194 53.4629H8.98645C9.03 54.3 9.14129 55.1177 9.32032 55.9113H9.31548H6.72194C3.99774 54.9774 2.1929 51.7016 2.32355 48.5516L2.73 44.1774C2.73 44.1774 4.07032 39.8323 10.559 39.8323C15.1461 39.8323 32.6429 40.6887 42.5042 26.5161C44.0719 27.8032 46.4284 26.4823 46.2687 24.15L45.9881 20.0129C48.0832 14.8306 49.3558 8.29355 49.3558 0.0532258V0H50.7203C52.2784 0 53.5848 1.18548 53.7252 2.73871L57.4461 42.6435Z" fill="#4AAF8F"/>
<path d="M52.5498 46.6838H7.26823C7.00065 46.6838 6.78436 46.9001 6.78436 47.1677C6.78436 47.4353 7.00065 47.6516 7.26823 47.6516H52.5498C52.8174 47.6516 53.0337 47.4353 53.0337 47.1677C53.0337 46.9001 52.8174 46.6838 52.5498 46.6838Z" fill="#D6EAE8"/>
<path d="M7.79856 48.8467H6.34453C6.07695 48.8467 5.86066 49.063 5.86066 49.3306C5.86066 49.5982 6.07695 49.8145 6.34453 49.8145H7.79856C8.06614 49.8145 8.28243 49.5982 8.28243 49.3306C8.28243 49.063 8.06614 48.8467 7.79856 48.8467Z" fill="#D6EAE8"/>
<path d="M35.9134 50.9419H19.8523C19.5847 50.9419 19.3684 51.1582 19.3684 51.4258C19.3684 51.6933 19.5847 51.9096 19.8523 51.9096H35.9134C36.181 51.9096 36.3973 51.6933 36.3973 51.4258C36.3973 51.1582 36.181 50.9419 35.9134 50.9419Z" fill="#C3DDDA"/>
</g>
<defs>
<clipPath id="clip0_29_107">
<rect width="60" height="60" fill="white"/>
</clipPath>
</defs>
</svg>
