<svg width="60" height="60" viewBox="0 0 60 60" fill="none" xmlns="http://www.w3.org/2000/svg">
<path d="M30.4895 30.3582C32.7211 30.3266 34.5906 29.334 36.1247 28.2603C36.7468 27.8248 36.6278 26.8887 35.925 26.5969C35.9225 26.5959 35.9202 26.595 35.918 26.5939C34.7115 26.065 33.8991 24.8759 33.8991 23.5259V18.5144H29.9985H26.0979V23.526C26.0979 24.7177 25.4637 25.7842 24.4853 26.3823C24.4778 26.3868 24.4699 26.3914 24.4617 26.3961C23.8593 26.7383 23.8082 27.5821 24.3671 27.9901C25.9937 29.1771 28.0242 30.3424 30.4895 30.3582Z" fill="#FFECE4"/>
<path d="M32.7166 9.55721C30.6028 9.13861 29.0027 7.77783 28.0246 6.69631C27.4986 6.11471 26.779 5.79443 25.9986 5.79443C24.5277 5.79443 23.3652 6.87174 23.2949 8.30049C23.2919 8.35861 23.2906 8.41721 23.2909 8.47615L23.2943 11.3536C23.2943 11.3658 23.2944 11.4017 23.2617 11.4342C23.239 11.4567 23.209 11.4697 23.1793 11.4697C23.1667 11.4697 23.1538 11.4674 23.1401 11.4626L21.6008 10.9325C21.398 10.8627 21.2439 10.7073 21.17 10.5164C20.3716 10.7979 19.7993 11.5503 19.7999 12.4367L19.8013 14.2856C19.8021 15.4114 20.7253 16.3235 21.8635 16.323L22.3928 16.3228C22.4462 18.4053 23.3289 20.4062 24.9138 21.7609C25.7559 22.4806 26.824 23.1369 28.1305 23.5059C28.9291 23.129 29.6185 22.654 30.1999 22.1485C31.8196 20.7404 32.7106 18.6732 32.7477 16.5293L32.7452 9.56213L32.7166 9.55721Z" fill="#FFECE4"/>
<path d="M40.1906 11.756C40.1884 11.2128 39.8846 10.7414 39.439 10.4997C39.368 10.6984 39.2101 10.8607 39.0012 10.9327C38.8798 10.9745 38.7537 10.9957 38.6264 10.9957C38.1909 10.9957 37.7998 10.7562 37.6053 10.3708C37.3148 9.79456 36.7284 9.43726 36.0744 9.43726C35.9374 9.43726 35.8002 9.45343 35.6665 9.48542C35.1152 9.61714 34.5612 9.68394 34.0199 9.68394C33.6357 9.68394 33.2487 9.6503 32.8693 9.58397L32.7169 9.55726C32.5482 9.52386 32.3842 9.48249 32.2221 9.43773L32.2246 16.2559C32.1887 18.3388 31.3229 20.3471 29.7494 21.7151C29.0818 22.2955 28.2693 22.8362 27.306 23.2247C28.1887 23.5807 29.1981 23.809 30.3423 23.817C32.703 23.7807 34.4862 22.8164 35.753 21.715C37.3264 20.3469 38.1922 18.3387 38.2281 16.2558L38.7702 16.2535C39.5618 16.2501 40.2008 15.605 40.1975 14.8124L40.1906 11.756Z" fill="#FFDDCE"/>
<path d="M41.3113 46.4538V39.8594C41.3113 34.7186 38.3913 30.1514 33.9767 27.8609C32.9556 28.3534 31.7542 28.6862 30.358 28.7077C27.8872 28.6906 26.0126 27.6972 24.6771 26.5558C24.6114 26.4996 24.5488 26.4406 24.4854 26.3823C24.1506 26.5872 23.7764 26.7383 23.3721 26.8188C22.7375 26.9452 22.1842 27.0547 21.9703 27.0955C15.8366 28.2631 11.4036 33.572 11.4036 39.7501V46.0224C11.4036 47.4762 12.5952 48.6547 14.0651 48.6547H29.9985H40.2089C40.8787 48.1491 41.3113 47.3516 41.3113 46.4538Z" fill="#88A8D8"/>
<path d="M38.0267 27.0954C37.813 27.0548 37.2596 26.9452 36.6249 26.8188C36.3771 26.7694 36.1411 26.6927 35.9179 26.594C35.1981 27.2031 34.324 27.7647 33.2879 28.1562C37.6886 30.2685 40.6261 34.7211 40.6261 39.7501V46.0223C40.6261 47.4761 39.4345 48.6547 37.9646 48.6547H45.9318C47.4017 48.6547 48.5933 47.4761 48.5933 46.0223V39.7501C48.5934 33.5719 44.1604 28.263 38.0267 27.0954Z" fill="#7296D1"/>
<path d="M40.2088 31.0676C40.2088 30.4501 39.8005 29.9257 39.234 29.7473C36.4547 30.2177 33.4851 31.0908 31.1038 32.6846C30.4355 33.1319 29.5616 33.1319 28.8933 32.6846C23.9436 29.3716 16.4508 29.1677 13.4129 29.2376C12.6616 29.2548 12.0626 29.8621 12.0626 30.6054V50.3473C12.0626 51.1173 12.699 51.7315 13.4772 51.7149C16.3904 51.6531 23.1948 51.8504 28.0821 54.6603C29.2686 55.3425 30.7284 55.3425 31.9149 54.6603C34.4353 53.2113 37.4653 52.4574 40.2087 52.0752L40.2088 31.0676Z" fill="#F7F4F7"/>
<path d="M46.5841 29.2376C44.925 29.1995 41.9367 29.2443 38.76 29.8312C39.4429 29.9167 39.9673 30.4929 39.9673 31.1883V52.1095C44.2688 51.4794 47.9304 51.7758 47.9345 51.7769V30.6054C47.9346 29.8621 47.3354 29.2548 46.5841 29.2376Z" fill="#EDEAED"/>
<path d="M32.7454 10.2779L32.7434 4.81195C32.7431 3.7841 32.4234 2.75496 31.7853 1.88098C31.1336 0.988008 30.1918 0.317109 29.0972 0H26.6591C23.208 0 20.4104 2.76715 20.4104 6.18059V10.265C20.4104 10.865 20.7943 11.3992 21.3671 11.5965L22.9064 12.1267C23.4444 12.312 24.0062 11.9163 24.0054 11.3529L24.0017 8.47266C24.0015 8.42637 24.0025 8.38043 24.0048 8.33473C24.091 6.58523 26.314 5.85961 27.4946 7.16508C28.5181 8.29664 30.3194 9.855 32.7454 10.2779Z" fill="#89808C"/>
<path d="M38.3162 2.98852C37.7066 2.97867 37.2148 2.49199 37.2053 1.88895C37.1887 0.841055 36.3251 0 35.2653 0H26.659C26.6589 0 26.6587 0 26.6586 0H27.2924C30.0132 0 32.2193 2.18121 32.2202 4.87242L32.2221 10.1663C33.2962 10.4338 34.5045 10.4864 35.8334 10.1687C36.2884 10.06 36.7597 10.2693 36.9686 10.6836L36.9689 10.6845C37.3847 11.509 38.355 11.8997 39.2348 11.5966C39.8077 11.3993 40.1914 10.8652 40.1914 10.2652V4.87383C40.1916 3.84445 39.3568 3.00527 38.3162 2.98852Z" fill="#756E78"/>
<path d="M41.6237 56.1233V34.258C41.6237 33.5248 41.0863 32.9153 40.3764 32.7955C37.4986 33.2387 34.3788 34.0752 31.7973 35.6234V59.5844C31.8802 59.5439 31.9622 59.5006 32.0428 59.4543C34.9194 57.8004 38.4185 56.9952 41.4995 56.6166C41.5779 56.4692 41.6237 56.3021 41.6237 56.1233Z" fill="#ECBE6B"/>
<path d="M28.1999 35.6237C22.9329 32.4649 15.4228 32.2644 12.3064 32.336C11.5051 32.3544 10.8661 33.0022 10.8661 33.7949V55.2766C10.8661 55.8681 11.3602 56.343 11.9578 56.3238C14.7825 56.2329 22.4912 56.3136 27.9544 59.4545C28.035 59.501 28.1169 59.5442 28.1998 59.5846V35.6237H28.1999Z" fill="#ECBE6B"/>
<path d="M47.6905 32.3357C45.9169 32.295 42.7194 32.3422 39.3225 32.9722C39.4573 32.9739 39.5879 32.9762 39.7097 32.979C40.5111 32.9974 41.1502 33.6452 41.1502 34.4381V55.9197C41.1502 56.2368 41.0073 56.5195 40.7836 56.7114C43.8469 56.2756 46.5879 56.2769 48.0393 56.3237C48.6369 56.3429 49.131 55.868 49.131 55.2765V33.7948C49.131 33.0018 48.492 32.3541 47.6905 32.3357Z" fill="#E8AE4D"/>
<path d="M35.8828 41.8375C35.499 41.8375 35.1416 41.5967 35.0145 41.2165C34.856 40.7421 35.1164 40.2305 35.5959 40.0737C39.0072 38.9587 42.6355 38.6059 45.0785 38.5063C45.5833 38.485 46.0092 38.8738 46.0299 39.3729C46.0507 39.872 45.6584 40.2934 45.1537 40.3141C42.8274 40.4089 39.3804 40.7422 36.1699 41.7916C36.0747 41.8227 35.9779 41.8375 35.8828 41.8375Z" fill="white"/>
<path d="M45.0785 38.5063C43.9697 38.5516 42.6162 38.6493 41.1501 38.8464V40.6734C42.6438 40.4624 44.0301 40.3599 45.1537 40.3142C45.6585 40.2937 46.0507 39.8723 46.03 39.3731C46.0092 38.8737 45.5834 38.4849 45.0785 38.5063Z" fill="#F7F4F7"/>
<path d="M28.4704 35.7862C28.2941 35.6753 28.1147 35.5685 27.9332 35.4646V59.4424C27.9402 59.4464 27.9473 59.4502 27.9544 59.4542C29.22 60.1819 30.7772 60.1818 32.0429 59.454C32.05 59.4501 32.0571 59.4462 32.064 59.4422V35.4645C31.8825 35.5684 31.7031 35.6752 31.5268 35.786C30.5918 36.3739 29.4054 36.3739 28.4704 35.7862Z" fill="#E49542"/>
<path d="M9.27657 41.8958L10.8656 40.9326V42.4675C10.8656 43.0985 11.3828 43.61 12.0206 43.61H12.779C13.9317 43.61 14.8662 44.5343 14.8662 45.6745V48.3636C14.8662 49.076 14.2824 49.6534 13.5621 49.6534H10.9509C9.29192 49.6534 7.94696 48.323 7.94696 46.6821V44.2441C7.94696 43.2859 8.45052 42.3965 9.27657 41.8958Z" fill="#FFECE4"/>
<path d="M50.7235 41.8958L49.1344 40.9326V42.4675C49.1344 43.0985 48.6172 43.61 47.9794 43.61H47.2211C46.0683 43.61 45.1339 44.5343 45.1339 45.6745V48.3636C45.1339 49.076 45.7177 49.6534 46.4379 49.6534H49.0491C50.7081 49.6534 52.0531 48.323 52.0531 46.6821V44.2441C52.0531 43.2859 51.5495 42.3965 50.7235 41.8958Z" fill="#FFDDCE"/>
</svg>
