<svg width="60" height="60" viewBox="0 0 60 60" fill="none" xmlns="http://www.w3.org/2000/svg">
<g clip-path="url(#clip0_29_299)">
<path d="M60 8.27587V51.7241C59.9966 52.8654 59.0723 53.7897 57.931 53.7931H38.7724C37.4682 53.7838 36.3014 54.6018 35.8655 55.831C35.0002 58.331 32.6455 60.0079 30 60.0079C27.3545 60.0079 24.9997 58.331 24.1345 55.831C23.6986 54.6018 22.5318 53.7838 21.2276 53.7931H2.06897C0.927722 53.7897 0.00340841 52.8654 0 51.7241V8.27587C0.00340841 7.13463 0.927722 6.21032 2.06897 6.20691H4.13793V48.6207C4.13793 49.192 4.60108 49.6552 5.17241 49.6552H54.8276C55.3989 49.6552 55.8621 49.192 55.8621 48.6207V6.20691H57.931C59.0723 6.21032 59.9966 7.13463 60 8.27587Z" fill="#E04C34"/>
<path d="M30 49.6551H5.17242C4.60109 49.6551 4.13794 49.192 4.13794 48.6207V45.5172H25.8621C28.1474 45.5172 30 47.3698 30 49.6551Z" fill="#F1D24B"/>
<path d="M55.8621 45.5172V48.6207C55.8621 49.192 55.3989 49.6551 54.8276 49.6551H30C30 47.3698 31.8526 45.5172 34.1379 45.5172H55.8621Z" fill="#EDC100"/>
<path d="M55.8621 2.06897V45.5172H34.1379C31.8526 45.5172 30 47.3699 30 49.6552V4.13793C30 1.85261 31.8526 0 34.1379 0H53.7931C54.9343 0.00340841 55.8587 0.927722 55.8621 2.06897Z" fill="#F8E8AB"/>
<path d="M30 4.13793V49.6552C30 47.3699 28.1474 45.5172 25.8621 45.5172H4.13794V2.06897C4.14135 0.927722 5.06566 0.00340841 6.2069 0H25.8621C28.1474 0 30 1.85261 30 4.13793Z" fill="#F4EDC7"/>
<path d="M19.6552 33.1035H8.27588C7.70455 33.1035 7.24139 32.6403 7.24139 32.069C7.24139 31.4976 7.70455 31.0345 8.27588 31.0345H19.6552C20.2265 31.0345 20.6897 31.4976 20.6897 32.069C20.6897 32.6403 20.2265 33.1035 19.6552 33.1035Z" fill="#A1693E"/>
<path d="M19.6552 41.3793H8.27588C7.70455 41.3793 7.24139 40.9162 7.24139 40.3448C7.24139 39.7735 7.70455 39.3104 8.27588 39.3104H19.6552C20.2265 39.3104 20.6897 39.7735 20.6897 40.3448C20.6897 40.9162 20.2265 41.3793 19.6552 41.3793Z" fill="#A1693E"/>
<path d="M24.8276 37.2414H16.5517C15.9804 37.2414 15.5172 36.7782 15.5172 36.2069C15.5172 35.6356 15.9804 35.1724 16.5517 35.1724H24.8276C25.3989 35.1724 25.8621 35.6356 25.8621 36.2069C25.8621 36.7782 25.3989 37.2414 24.8276 37.2414Z" fill="#A1693E"/>
<path d="M12.4138 37.2414H8.27588C7.70455 37.2414 7.24139 36.7782 7.24139 36.2069C7.24139 35.6356 7.70455 35.1724 8.27588 35.1724H12.4138C12.9851 35.1724 13.4483 35.6356 13.4483 36.2069C13.4483 36.7782 12.9851 37.2414 12.4138 37.2414Z" fill="#A1693E"/>
<path d="M13.4483 17.5862C15.1623 17.5862 16.5517 16.1968 16.5517 14.4828C16.5517 12.7688 15.1623 11.3793 13.4483 11.3793C11.7343 11.3793 10.3448 12.7688 10.3448 14.4828C10.3448 16.1968 11.7343 17.5862 13.4483 17.5862Z" fill="#ED9A00"/>
<path d="M19.6552 26.8965C21.3692 26.8965 22.7586 25.5071 22.7586 23.7931C22.7586 22.0791 21.3692 20.6896 19.6552 20.6896C17.9412 20.6896 16.5517 22.0791 16.5517 23.7931C16.5517 25.5071 17.9412 26.8965 19.6552 26.8965Z" fill="#ED9A00"/>
<path d="M21.7241 7.24139H23.7931V23.7931H21.7241V7.24139Z" fill="#3180BC"/>
<path d="M15.5172 14.4828H17.5862V23.7931H15.5172V14.4828Z" fill="#3180BC"/>
<path d="M12.4138 7.24139H14.4828V11.3793H12.4138V7.24139Z" fill="#3180BC"/>
<path d="M11.6824 22.0273L11.3793 22.3304V14.4828H9.31034V22.3304L9.00724 22.0273C8.60133 21.6352 7.95612 21.6408 7.55708 22.0399C7.15805 22.4389 7.15244 23.0841 7.54448 23.49L9.61345 25.559C10.0174 25.9628 10.6722 25.9628 11.0762 25.559L13.1452 23.49C13.5372 23.0841 13.5316 22.4389 13.1326 22.0399C12.7335 21.6408 12.0883 21.6352 11.6824 22.0273Z" fill="#3180BC"/>
<path d="M24.8276 33.1035H23.7931C23.2218 33.1035 22.7586 32.6403 22.7586 32.069C22.7586 31.4976 23.2218 31.0345 23.7931 31.0345H24.8276C25.3989 31.0345 25.8621 31.4976 25.8621 32.069C25.8621 32.6403 25.3989 33.1035 24.8276 33.1035Z" fill="#A1693E"/>
<path d="M45.5172 8.27587H34.1379C33.5666 8.27587 33.1034 7.81272 33.1034 7.24139C33.1034 6.67006 33.5666 6.20691 34.1379 6.20691H45.5172C46.0885 6.20691 46.5517 6.67006 46.5517 7.24139C46.5517 7.81272 46.0885 8.27587 45.5172 8.27587Z" fill="#A1693E"/>
<path d="M43.4483 16.5518H34.1379C33.5666 16.5518 33.1034 16.0886 33.1034 15.5173C33.1034 14.9459 33.5666 14.4828 34.1379 14.4828H43.4483C44.0196 14.4828 44.4827 14.9459 44.4827 15.5173C44.4827 16.0886 44.0196 16.5518 43.4483 16.5518Z" fill="#A1693E"/>
<path d="M50.6896 12.4138H42.4138C41.8425 12.4138 41.3793 11.9507 41.3793 11.3793C41.3793 10.808 41.8425 10.3448 42.4138 10.3448H50.6896C51.261 10.3448 51.7241 10.808 51.7241 11.3793C51.7241 11.9507 51.261 12.4138 50.6896 12.4138Z" fill="#A1693E"/>
<path d="M38.2758 12.4138H34.1379C33.5666 12.4138 33.1034 11.9507 33.1034 11.3793C33.1034 10.808 33.5666 10.3448 34.1379 10.3448H38.2758C38.8472 10.3448 39.3103 10.808 39.3103 11.3793C39.3103 11.9507 38.8472 12.4138 38.2758 12.4138Z" fill="#A1693E"/>
<path d="M50.6896 8.27587H49.6551C49.0838 8.27587 48.6207 7.81272 48.6207 7.24139C48.6207 6.67006 49.0838 6.20691 49.6551 6.20691H50.6896C51.261 6.20691 51.7241 6.67006 51.7241 7.24139C51.7241 7.81272 51.261 8.27587 50.6896 8.27587Z" fill="#A1693E"/>
<path d="M44.6503 41.3793H40.1772C39.8194 41.3644 39.5038 41.1404 39.3717 40.8075C39.2395 40.4747 39.3156 40.0952 39.5659 39.839L41.8024 37.5052C41.9611 37.3367 42.1823 37.2412 42.4138 37.2412C42.6452 37.2412 42.8664 37.3367 43.0252 37.5052L45.2617 39.839C45.512 40.0952 45.588 40.4747 45.4559 40.8075C45.3238 41.1404 45.0082 41.3644 44.6503 41.3793Z" fill="#BA3A23"/>
<path d="M39.4862 34.2C40.483 33.1518 40.6234 31.554 39.8248 30.348C39.0262 29.142 37.5004 28.6476 36.1462 29.1561C34.7921 29.6646 33.9688 31.0411 34.1614 32.4747C34.354 33.9082 35.5114 35.0187 36.9517 35.1517" fill="#ED9A00"/>
<path d="M48.6207 24.8276C50.3347 24.8276 51.7241 23.4381 51.7241 21.7241C51.7241 20.0101 50.3347 18.6207 48.6207 18.6207C46.9067 18.6207 45.5172 20.0101 45.5172 21.7241C45.5172 23.4381 46.9067 24.8276 48.6207 24.8276Z" fill="#ED9A00"/>
<path d="M34.1379 37.2414C33.6369 37.2427 33.2069 36.8848 33.1174 36.3919C33.0278 35.8989 33.3043 35.4126 33.7738 35.2376L50.3255 29.0307C50.6718 28.9013 51.0608 28.9666 51.346 29.2018C51.6312 29.437 51.7692 29.8065 51.7081 30.1711C51.6469 30.5357 51.396 30.84 51.0497 30.9693L34.4979 37.1762C34.3826 37.2184 34.2608 37.2404 34.1379 37.2414Z" fill="#E04C34"/>
<path d="M13.4483 18.6207C11.1629 18.6207 9.31033 16.7681 9.31033 14.4828C9.31033 12.1975 11.1629 10.3448 13.4483 10.3448C15.7336 10.3448 17.5862 12.1975 17.5862 14.4828C17.5862 15.5802 17.1502 16.6327 16.3742 17.4087C15.5982 18.1848 14.5457 18.6207 13.4483 18.6207ZM13.4483 12.4138C12.3056 12.4138 11.3793 13.3401 11.3793 14.4828C11.3793 15.6254 12.3056 16.5517 13.4483 16.5517C14.5909 16.5517 15.5172 15.6254 15.5172 14.4828C15.5172 13.3401 14.5909 12.4138 13.4483 12.4138Z" fill="#4397D5"/>
<path d="M19.6552 27.931C17.3699 27.931 15.5172 26.0784 15.5172 23.7931C15.5172 21.5078 17.3699 19.6552 19.6552 19.6552C21.9405 19.6552 23.7931 21.5078 23.7931 23.7931C23.7931 26.0784 21.9405 27.931 19.6552 27.931ZM19.6552 21.7241C18.5125 21.7241 17.5862 22.6504 17.5862 23.7931C17.5862 24.9357 18.5125 25.862 19.6552 25.862C20.7978 25.862 21.7241 24.9357 21.7241 23.7931C21.7241 22.6504 20.7978 21.7241 19.6552 21.7241Z" fill="#4397D5"/>
<path d="M24.8276 8.27587H8.27588C7.70455 8.27587 7.24139 7.81272 7.24139 7.24139C7.24139 6.67006 7.70455 6.20691 8.27588 6.20691H24.8276C25.3989 6.20691 25.8621 6.67006 25.8621 7.24139C25.8621 7.81272 25.3989 8.27587 24.8276 8.27587Z" fill="#E04C34"/>
</g>
<defs>
<clipPath id="clip0_29_299">
<rect width="60" height="60" fill="white"/>
</clipPath>
</defs>
</svg>
