<svg width="60" height="60" viewBox="0 0 60 60" fill="none" xmlns="http://www.w3.org/2000/svg">
<g clip-path="url(#clip0_30_457)">
<path d="M17.1812 0C16.6935 0 16.2981 0.395391 16.2981 0.883125V8.41828C16.2981 8.90602 16.6935 9.30141 17.1812 9.30141C17.669 9.30141 18.0643 8.90602 18.0643 8.41828V0.883125C18.0643 0.395391 17.669 0 17.1812 0Z" fill="#96C8EF"/>
<path d="M23.5906 0C23.1029 0 22.7075 0.395391 22.7075 0.883125V8.41828C22.7075 8.90602 23.1029 9.30141 23.5906 9.30141C24.0784 9.30141 24.4738 8.90602 24.4738 8.41828V0.883125C24.4738 0.395391 24.0784 0 23.5906 0Z" fill="#96C8EF"/>
<path d="M30 0C29.5123 0 29.1169 0.395391 29.1169 0.883125V8.41828C29.1169 8.90602 29.5123 9.30141 30 9.30141C30.4877 9.30141 30.8831 8.90602 30.8831 8.41828V0.883125C30.8831 0.395391 30.4877 0 30 0Z" fill="#96C8EF"/>
<path d="M36.4093 0C35.9216 0 35.5262 0.395391 35.5262 0.883125V8.41828C35.5262 8.90602 35.9216 9.30141 36.4093 9.30141C36.897 9.30141 37.2924 8.90602 37.2924 8.41828V0.883125C37.2924 0.395391 36.897 0 36.4093 0Z" fill="#96C8EF"/>
<path d="M42.8188 0C42.3311 0 41.9357 0.395391 41.9357 0.883125V8.41828C41.9357 8.90602 42.3311 9.30141 42.8188 9.30141C43.3065 9.30141 43.7019 8.90602 43.7019 8.41828V0.883125C43.7019 0.395391 43.3065 0 42.8188 0Z" fill="#96C8EF"/>
<path d="M17.1812 50.6986C16.6935 50.6986 16.2981 51.094 16.2981 51.5817V59.1169C16.2981 59.6046 16.6935 60 17.1812 60C17.669 60 18.0643 59.6046 18.0643 59.1169V51.5817C18.0643 51.094 17.669 50.6986 17.1812 50.6986Z" fill="#96C8EF"/>
<path d="M23.5906 50.6986C23.1029 50.6986 22.7075 51.094 22.7075 51.5817V59.1169C22.7075 59.6046 23.1029 60 23.5906 60C24.0784 60 24.4738 59.6046 24.4738 59.1169V51.5817C24.4738 51.094 24.0784 50.6986 23.5906 50.6986Z" fill="#96C8EF"/>
<path d="M30 50.6986C29.5123 50.6986 29.1169 51.094 29.1169 51.5817V59.1169C29.1169 59.6046 29.5123 60 30 60C30.4877 60 30.8831 59.6046 30.8831 59.1169V51.5817C30.8831 51.094 30.4877 50.6986 30 50.6986Z" fill="#96C8EF"/>
<path d="M36.4093 50.6986C35.9216 50.6986 35.5262 51.094 35.5262 51.5817V59.1169C35.5262 59.6046 35.9216 60 36.4093 60C36.897 60 37.2924 59.6046 37.2924 59.1169V51.5817C37.2924 51.094 36.897 50.6986 36.4093 50.6986Z" fill="#96C8EF"/>
<path d="M42.8188 50.6986C42.3311 50.6986 41.9357 51.094 41.9357 51.5817V59.1169C41.9357 59.6046 42.3311 60 42.8188 60C43.3065 60 43.7019 59.6046 43.7019 59.1169V51.5817C43.7019 51.094 43.3065 50.6986 42.8188 50.6986Z" fill="#96C8EF"/>
<path d="M51.5817 18.0643H59.1169C59.6046 18.0643 60 17.669 60 17.1812C60 16.6935 59.6046 16.2981 59.1169 16.2981H51.5817C51.094 16.2981 50.6986 16.6935 50.6986 17.1812C50.6986 17.669 51.094 18.0643 51.5817 18.0643Z" fill="#96C8EF"/>
<path d="M59.1169 22.7075H51.5817C51.094 22.7075 50.6986 23.1029 50.6986 23.5906C50.6986 24.0784 51.094 24.4738 51.5817 24.4738H59.1169C59.6046 24.4738 60 24.0784 60 23.5906C60 23.1029 59.6046 22.7075 59.1169 22.7075Z" fill="#96C8EF"/>
<path d="M59.1169 29.1168H51.5817C51.094 29.1168 50.6986 29.5122 50.6986 29.9999C50.6986 30.4877 51.094 30.8831 51.5817 30.8831H59.1169C59.6046 30.8831 60 30.4877 60 29.9999C60 29.5122 59.6046 29.1168 59.1169 29.1168Z" fill="#96C8EF"/>
<path d="M59.1169 35.5262H51.5817C51.094 35.5262 50.6986 35.9216 50.6986 36.4094C50.6986 36.8971 51.094 37.2925 51.5817 37.2925H59.1169C59.6046 37.2925 60 36.8971 60 36.4094C60 35.9216 59.6046 35.5262 59.1169 35.5262Z" fill="#96C8EF"/>
<path d="M59.1169 41.9357H51.5817C51.094 41.9357 50.6986 42.3311 50.6986 42.8188C50.6986 43.3065 51.094 43.7019 51.5817 43.7019H59.1169C59.6046 43.7019 60 43.3065 60 42.8188C60 42.3311 59.6046 41.9357 59.1169 41.9357Z" fill="#96C8EF"/>
<path d="M8.41828 16.2981H0.883125C0.395391 16.2981 0 16.6935 0 17.1812C0 17.669 0.395391 18.0643 0.883125 18.0643H8.41828C8.90602 18.0643 9.30141 17.669 9.30141 17.1812C9.30141 16.6935 8.90602 16.2981 8.41828 16.2981Z" fill="#96C8EF"/>
<path d="M8.41828 22.7075H0.883125C0.395391 22.7075 0 23.1029 0 23.5906C0 24.0784 0.395391 24.4738 0.883125 24.4738H8.41828C8.90602 24.4738 9.30141 24.0784 9.30141 23.5906C9.30141 23.1029 8.90602 22.7075 8.41828 22.7075Z" fill="#96C8EF"/>
<path d="M8.41828 29.1168H0.883125C0.395391 29.1168 0 29.5122 0 29.9999C0 30.4877 0.395391 30.8831 0.883125 30.8831H8.41828C8.90602 30.8831 9.30141 30.4877 9.30141 29.9999C9.30141 29.5122 8.90602 29.1168 8.41828 29.1168Z" fill="#96C8EF"/>
<path d="M8.41828 35.5262H0.883125C0.395391 35.5262 0 35.9216 0 36.4094C0 36.8971 0.395391 37.2925 0.883125 37.2925H8.41828C8.90602 37.2925 9.30141 36.8971 9.30141 36.4094C9.30141 35.9216 8.90602 35.5262 8.41828 35.5262Z" fill="#96C8EF"/>
<path d="M8.41828 41.9357H0.883125C0.395391 41.9357 0 42.3311 0 42.8188C0 43.3065 0.395391 43.7019 0.883125 43.7019H8.41828C8.90602 43.7019 9.30141 43.3065 9.30141 42.8188C9.30141 42.3311 8.90602 41.9357 8.41828 41.9357Z" fill="#96C8EF"/>
<path d="M52.3412 10.5888V49.045C52.3412 50.7643 50.9474 52.1581 49.2281 52.1581H10.7719C9.05264 52.1581 7.65881 50.7643 7.65881 49.045V10.5888C7.65881 8.86954 9.05264 7.47571 10.7719 7.47571H49.2281C50.9474 7.47571 52.3412 8.8693 52.3412 10.5888Z" fill="#5AAAE7"/>
<path d="M49.5309 13.1906V46.8094C49.5309 48.3125 48.3124 49.5309 46.8095 49.5309H13.1905C11.6875 49.5309 10.4691 48.3124 10.4691 46.8094V13.1906C10.4691 11.6875 11.6876 10.4691 13.1905 10.4691H46.8094C48.3124 10.4691 49.5309 11.6876 49.5309 13.1906Z" fill="#1E81CE"/>
<path d="M43.9171 17.8386V41.7952C43.9171 42.8655 43.0493 43.7345 41.9778 43.7345H18.0223C16.9507 43.7345 16.0829 42.8654 16.0829 41.7952V17.8386C16.0829 16.7671 16.9507 15.8993 18.0223 15.8993H41.9776C43.0492 15.8993 43.9171 16.7671 43.9171 17.8386Z" fill="#96C8EF"/>
<path d="M43.9171 17.8386V41.7952C43.9171 42.8655 43.0493 43.7345 41.9777 43.7345H21.025C19.9534 43.7345 19.0856 42.8654 19.0856 41.7952V17.8386C19.0856 16.7671 19.9534 15.8993 21.025 15.8993H41.9776C43.0492 15.8993 43.9171 16.7671 43.9171 17.8386Z" fill="#C2DFF6"/>
<path d="M23.4984 20.3263H16.0825V22.0925H23.4984V20.3263Z" fill="#787680"/>
<path d="M38.056 15.8988H36.2898V29.8817H38.056V15.8988Z" fill="#787680"/>
<path d="M23.5267 37.4155H21.7604V43.734H23.5267V37.4155Z" fill="#787680"/>
<path d="M43.9171 37.2664V39.0326H30.975V43.7344H29.2088V30.9749H25.6962C25.2087 30.9749 24.813 30.5793 24.813 30.0918V23.499C24.813 23.0115 25.2087 22.6158 25.6962 22.6158C26.1848 22.6158 26.5793 23.0115 26.5793 23.499V29.2087H34.1201C34.6076 29.2087 35.0032 29.6043 35.0032 30.0918C35.0032 30.5793 34.6076 30.9749 34.1201 30.9749H30.975V37.2664H43.9171Z" fill="#787680"/>
<path d="M28.627 21.2099C28.627 22.358 27.9217 23.3423 26.9208 23.7521C26.5993 23.884 26.2485 23.957 25.8798 23.957C24.362 23.957 23.1327 22.7265 23.1327 21.2099C23.1327 19.6932 24.362 18.4628 25.8798 18.4628C26.2484 18.4628 26.5992 18.5358 26.9208 18.6676C27.9217 19.0774 28.627 20.0618 28.627 21.2099Z" fill="#2D2D30"/>
<path d="M25.2087 35.9512C25.2087 36.9968 24.5834 37.8964 23.685 38.2956C23.3671 38.437 23.0151 38.5158 22.644 38.5158C21.2287 38.5158 20.0806 37.3677 20.0806 35.9512C20.0806 34.5358 21.2287 33.3877 22.644 33.3877C23.0149 33.3877 23.3671 33.4666 23.685 33.6079C24.5835 34.0071 25.2087 34.9068 25.2087 35.9512Z" fill="#2D2D30"/>
<path d="M40.4693 30.0919C40.4693 31.5485 39.5237 32.7848 38.2132 33.2194C37.8871 33.3288 37.5373 33.3878 37.1735 33.3878C35.3531 33.3878 33.8765 31.9124 33.8765 30.0919C33.8765 28.2714 35.353 26.7948 37.1735 26.7948C37.5374 26.7948 37.8871 26.8536 38.2132 26.9632C39.5237 27.3977 40.4693 28.6352 40.4693 30.0919Z" fill="#2D2D30"/>
<path d="M28.627 21.2099C28.627 22.358 27.9217 23.3423 26.9208 23.7521C25.9187 23.3435 25.2134 22.358 25.2134 21.2099C25.2134 20.0618 25.9187 19.0762 26.9208 18.6676C27.9217 19.0774 28.627 20.0618 28.627 21.2099Z" fill="#3E3D42"/>
<path d="M25.2087 35.9511C25.2087 36.9967 24.5833 37.8963 23.685 38.2955C22.7877 37.8964 22.1613 36.9967 22.1613 35.9511C22.1613 34.9054 22.7878 34.007 23.685 33.6078C24.5835 34.007 25.2087 34.9067 25.2087 35.9511Z" fill="#3E3D42"/>
<path d="M40.4693 30.0918C40.4693 31.5484 39.5237 32.7848 38.2132 33.2193C36.9026 32.7848 35.9571 31.5484 35.9571 30.0918C35.9571 28.6352 36.9027 27.3977 38.2132 26.9631C39.5237 27.3977 40.4693 28.6352 40.4693 30.0918Z" fill="#3E3D42"/>
</g>
<defs>
<clipPath id="clip0_30_457">
<rect width="60" height="60" fill="white"/>
</clipPath>
</defs>
</svg>
