<svg width="60" height="60" viewBox="0 0 60 60" fill="none" xmlns="http://www.w3.org/2000/svg">
<g clip-path="url(#clip0_29_298)">
<path fill-rule="evenodd" clip-rule="evenodd" d="M51.0985 0.0100708H17.7988C17.2238 0.0100708 16.7585 0.475422 16.7585 1.05034V4.22613V51.2939L56.2487 54.6852H58.9589C59.5304 54.6852 59.9991 54.2163 59.9991 53.6449V9.35589L53.9114 5.92347L51.0985 0.0100708Z" fill="#F9F7F8"/>
<path fill-rule="evenodd" clip-rule="evenodd" d="M48.987 51.2838H44.3674L41.7255 55.3533L44.3674 60H48.987L51.0064 55.6413L48.987 51.2838Z" fill="#A1D4FF"/>
<path fill-rule="evenodd" clip-rule="evenodd" d="M16.7585 51.2838V4.21606H11.7521C11.1806 4.21606 10.7119 4.68493 10.7119 5.25634V32.3117V51.7424L10.8761 51.6877C11.4853 51.4549 11.7009 51.3557 11.9404 51.3147C12.1629 51.2736 12.4093 51.2838 13.0219 51.2838H16.7585Z" fill="#A1D4FF"/>
<path fill-rule="evenodd" clip-rule="evenodd" d="M44.3674 51.2838H16.7585H13.0216C12.4091 51.2838 12.1626 51.2735 11.9402 51.3146L9.95929 55.6419L11.9402 59.9692C12.0429 59.9897 12.1559 59.9966 12.3064 60H12.9361H13.0216H44.3674V51.2838Z" fill="#FFE07D"/>
<path fill-rule="evenodd" clip-rule="evenodd" d="M59.9991 9.34582L51.0985 0V8.30543C51.0985 8.87695 51.5674 9.3457 52.1388 9.3457L59.9991 9.34582Z" fill="#A1D4FF"/>
<path d="M13.735 4.21606H16.7584V51.3564H13.735V4.21606Z" fill="#80B4FB"/>
<path fill-rule="evenodd" clip-rule="evenodd" d="M11.9368 55.6437L11.9402 51.3146C11.7007 51.3557 11.4851 51.4549 10.8759 51.6876L10.7116 51.7424L5.95157 53.3474L4.64728 55.6413L5.95157 57.9364L10.8759 59.5962C11.4851 59.8289 11.7007 59.9282 11.9402 59.9692L11.9368 55.6437Z" fill="#FFE5C1"/>
<path fill-rule="evenodd" clip-rule="evenodd" d="M5.95169 53.3474L0.524387 55.1816C0.178801 55.3117 0.000793457 55.4759 0.000793457 55.6402V55.647C0.000793457 55.8078 0.178684 55.9721 0.524387 56.1021L5.95169 57.9364V53.3474Z" fill="#375E7D"/>
<path fill-rule="evenodd" clip-rule="evenodd" d="M56.2486 58.2273V55.6435V54.6751V53.0564C56.2486 52.081 55.4512 51.2837 54.476 51.2837H48.9871V60H54.476C55.4514 60 56.2486 59.2026 56.2486 58.2273Z" fill="#EB5468"/>
<path fill-rule="evenodd" clip-rule="evenodd" d="M59.9991 9.35589H52.1388C51.5673 9.35589 51.0985 8.88702 51.0985 8.31562V0.0100708H43.0842C56.6936 18.6025 53.0696 45.1581 50.7358 51.2939H54.4761C55.4513 51.2939 56.2487 52.0912 56.2487 53.0666V54.6853H58.9589C59.5304 54.6853 59.9991 54.2164 59.9991 53.645V9.35589Z" fill="#DDDAEC"/>
<path d="M39.2435 22.0439C39.2408 22.0439 39.2381 22.0439 39.2354 22.0438C38.7354 22.0395 38.3335 21.6306 38.3379 21.1306C38.3422 20.6365 38.3465 20.0873 38.3508 19.515H34.976C34.6556 19.515 34.3591 19.3457 34.1962 19.0698C34.0335 18.794 34.0284 18.4525 34.1833 18.1721C34.6658 17.2981 37.0977 12.9069 37.592 12.2971C38.028 11.7637 38.6158 11.5497 39.1663 11.7216C39.7213 11.8949 40.1137 12.4317 40.1663 13.0893C40.1926 13.3949 40.1862 15.6328 40.174 17.7041H40.3588C40.8588 17.7041 41.2643 18.1095 41.2643 18.6096C41.2643 19.1097 40.8589 19.5151 40.3588 19.5151H40.1617C40.1562 20.2503 40.1511 20.8445 40.1485 21.1465C40.1444 21.6437 39.7398 22.0438 39.2435 22.0439ZM36.5148 17.704H38.3628C38.37 16.4734 38.3748 15.2868 38.3741 14.442C37.8955 15.255 37.2128 16.4551 36.5148 17.704Z" fill="#2B4D66"/>
<path d="M29.1723 20.7092C29.17 20.7092 29.1676 20.7092 29.1653 20.7092C28.8191 20.7065 28.5048 20.5067 28.3554 20.1945L25.313 13.8342H22.5676C22.0676 13.8342 21.6621 13.4288 21.6621 12.9287C21.6621 12.4285 22.0675 12.0232 22.5676 12.0232H25.8836C26.2322 12.0232 26.5499 12.2233 26.7004 12.5379L29.188 17.7385L33.5955 8.87739C33.7486 8.56977 34.0627 8.37524 34.4062 8.37524H44.5335C45.0335 8.37524 45.439 8.7806 45.439 9.28075C45.439 9.78091 45.0336 10.1863 44.5335 10.1863H34.9671L29.9827 20.2071C29.8298 20.5148 29.5158 20.7092 29.1723 20.7092Z" fill="#2B4D66"/>
<path d="M47.0607 25.7135C46.5881 25.5499 46.0726 25.8008 45.9091 26.2735L44.4685 30.4412L42.9882 26.2667C42.821 25.7953 42.3035 25.5491 41.8323 25.7159C41.3609 25.883 41.1144 26.4006 41.2815 26.8718L43.5201 33.1851L42.7095 35.5302C42.5462 36.0028 42.797 36.5185 43.2695 36.6818C43.3674 36.7157 43.4672 36.7317 43.5654 36.7317C43.9407 36.7317 44.2916 36.4965 44.4211 36.1219L47.6206 26.865C47.7841 26.3925 47.5333 25.8769 47.0607 25.7135Z" fill="#2B4D66"/>
<path d="M31.2173 29.4948L33.0127 27.1145C33.3138 26.7152 33.2343 26.1476 32.8351 25.8464C32.4356 25.5452 31.868 25.6248 31.5669 26.0241L30.0799 27.9954L28.583 26.0221C28.2809 25.6237 27.7129 25.5457 27.3144 25.8479C26.916 26.1501 26.838 26.7182 27.1402 27.1166L28.9465 29.498L26.9026 32.2078C26.6015 32.6071 26.681 33.1748 27.0802 33.476C27.2435 33.5992 27.4349 33.6586 27.6248 33.6586C27.8992 33.6586 28.1704 33.5344 28.3484 33.2984L30.084 30.9974L31.914 33.4099C32.0921 33.6448 32.3624 33.7682 32.6361 33.7682C32.8267 33.7682 33.019 33.7082 33.1826 33.5841C33.581 33.2818 33.659 32.7138 33.3568 32.3154L31.2173 29.4948Z" fill="#2B4D66"/>
<path d="M39.6471 28.6446H38.1297V27.1307C38.1297 26.6306 37.7244 26.2252 37.2242 26.2252C36.7242 26.2252 36.3187 26.6305 36.3187 27.1307V28.6446H34.7466C34.2466 28.6446 33.8411 29.05 33.8411 29.5501C33.8411 30.0502 34.2465 30.4556 34.7466 30.4556H36.3187V32.0312C36.3187 32.5313 36.7241 32.9367 37.2242 32.9367C37.7242 32.9367 38.1297 32.5314 38.1297 32.0312V30.4556H39.6471C40.1471 30.4556 40.5526 30.0503 40.5526 29.5501C40.5526 29.05 40.1471 28.6446 39.6471 28.6446Z" fill="#2B4D66"/>
<path d="M24.7715 35.9377C24.5398 35.9377 24.308 35.8493 24.1313 35.6725C22.5403 34.0814 21.6641 31.9662 21.6641 29.7164C21.6641 27.4664 22.5405 25.352 24.1317 23.7626C24.4855 23.4092 25.0587 23.4095 25.4122 23.7633C25.7656 24.1171 25.7653 24.6904 25.4115 25.0438C24.1627 26.2912 23.475 27.9506 23.475 29.7165C23.475 31.4826 24.1629 33.1431 25.4118 34.3921C25.7655 34.7456 25.7655 35.319 25.4118 35.6726C25.235 35.8493 25.0032 35.9377 24.7715 35.9377Z" fill="#2B4D66"/>
<path d="M49.2117 35.9377C48.98 35.9377 48.7482 35.8492 48.5715 35.6725C48.2179 35.3189 48.2179 34.7455 48.5715 34.392C49.8205 33.1429 50.5084 31.4824 50.5084 29.7164C50.5084 27.9505 49.8206 26.2911 48.5719 25.0437C48.2181 24.6902 48.2177 24.117 48.5712 23.7632C48.9245 23.4094 49.4978 23.4089 49.8517 23.7625C51.443 25.3519 52.3193 27.4664 52.3193 29.7163C52.3193 31.9661 51.4431 34.0813 49.852 35.6723C49.6752 35.8493 49.4434 35.9377 49.2117 35.9377Z" fill="#2B4D66"/>
<path d="M30.3802 40.9956H24.0975C23.5974 40.9956 23.192 40.5902 23.192 40.0901C23.192 39.59 23.5973 39.1846 24.0975 39.1846H30.3802C30.8803 39.1846 31.2857 39.5899 31.2857 40.0901C31.2857 40.5902 30.8803 40.9956 30.3802 40.9956Z" fill="#2B4D66"/>
<path d="M30.3802 44.8899H24.0975C23.5974 44.8899 23.192 44.4846 23.192 43.9844C23.192 43.4844 23.5973 43.0789 24.0975 43.0789H30.3802C30.8803 43.0789 31.2857 43.4843 31.2857 43.9844C31.2857 44.4845 30.8803 44.8899 30.3802 44.8899Z" fill="#2B4D66"/>
<path fill-rule="evenodd" clip-rule="evenodd" d="M44.3674 56.7251H13.0216H12.936H12.3064C12.1558 56.7217 12.043 56.7148 11.9402 56.6943V59.9692C12.0428 59.9897 12.1558 59.9966 12.3064 60H12.936H13.0216H44.3674V56.7251Z" fill="#FFD064"/>
<path fill-rule="evenodd" clip-rule="evenodd" d="M44.3674 56.7251H48.9871V60H44.3674V56.7251Z" fill="#80B4FB"/>
<path fill-rule="evenodd" clip-rule="evenodd" d="M56.2486 58.2273V55.6436V54.9523C56.2486 55.9276 55.4512 56.725 54.476 56.725H48.9871V60H54.476C55.4514 60 56.2486 59.2027 56.2486 58.2273Z" fill="#E5384F"/>
<path fill-rule="evenodd" clip-rule="evenodd" d="M11.9402 59.9692V56.6942C11.7007 56.6532 11.4851 56.554 10.8759 56.3212L5.9516 54.6615V57.9364L10.8759 59.5961C11.4851 59.8289 11.7007 59.9281 11.9402 59.9692Z" fill="#FED1A3"/>
<path fill-rule="evenodd" clip-rule="evenodd" d="M5.95169 57.9364V54.6615L4.00802 54.0045L0.524387 55.1816C0.178801 55.3117 0.000793457 55.4759 0.000793457 55.6402V55.647C0.000793457 55.8077 0.178684 55.972 0.524387 56.1021L5.95169 57.9364Z" fill="#2B4D66"/>
</g>
<defs>
<clipPath id="clip0_29_298">
<rect width="60" height="60" fill="white"/>
</clipPath>
</defs>
</svg>
