<svg width="132" height="40" viewBox="0 0 132 40" fill="none" xmlns="http://www.w3.org/2000/svg">
<g clip-path="url(#clip0_391_87)">
<path d="M32 0H8C3.58172 0 0 3.58172 0 8V32C0 36.4183 3.58172 40 8 40H32C36.4183 40 40 36.4183 40 32V8C40 3.58172 36.4183 0 32 0Z" fill="#9B51E0"/>
<path d="M25.0799 26.375C25.713 25.6277 26.1739 24.7503 26.4299 23.805C26.6658 24.0909 26.9161 24.3646 27.1799 24.625C27.7397 25.1171 28.447 25.4098 29.191 25.4571C29.9349 25.5044 30.6735 25.3037 31.2912 24.8864C31.9089 24.4691 32.3708 23.8588 32.6047 23.151C32.8385 22.4432 32.8311 21.6778 32.5835 20.9747C32.3359 20.2715 31.8622 19.6703 31.2365 19.2651C30.6108 18.86 29.8684 18.6737 29.1255 18.7354C28.3827 18.7972 27.6812 19.1035 27.131 19.6065C26.5808 20.1095 26.2129 20.7806 26.0849 21.515C25.9949 22.015 26.0349 22.58 25.9349 23.1C25.78 24.1742 25.326 25.1832 24.6249 26.0117C23.9238 26.8401 23.0037 27.4547 21.9699 27.785C19.6999 28.57 17.6549 28.065 15.8599 26.49C15.8099 26.445 15.7699 26.39 15.7349 26.355C15.9999 25.935 16.2849 25.54 16.5099 25.115C16.7349 24.69 16.8749 24.25 17.0399 23.855C17.3356 24.1906 17.6565 24.5032 17.9999 24.79C18.4858 25.155 19.0618 25.3812 19.6663 25.4443C20.2707 25.5075 20.881 25.4052 21.4319 25.1485C21.9828 24.8918 22.4536 24.4903 22.7941 23.9868C23.1345 23.4834 23.3318 22.8969 23.3649 22.29C23.38 21.3803 23.5596 20.4808 23.8949 19.635C24.3127 18.7052 24.9597 17.8966 25.7752 17.2849C26.5907 16.6733 27.5481 16.2785 28.5577 16.1376C29.5674 15.9968 30.5962 16.1144 31.548 16.4794C32.4998 16.8445 33.3434 17.4451 33.9999 18.225C34.7257 19.0394 35.2051 20.0434 35.3821 21.1199C35.5592 22.1964 35.4266 23.301 34.9999 24.305C34.636 25.3128 33.9973 26.1986 33.1561 26.8622C32.3148 27.5258 31.3047 27.9407 30.2399 28.06C29.3589 28.2022 28.4571 28.1409 27.6035 27.8809C26.7498 27.6209 25.967 27.1691 25.3149 26.56C25.2405 26.4935 25.162 26.4317 25.0799 26.375Z" fill="white"/>
<path d="M23.3799 11.855L20.2749 16.075C21.3577 16.1229 22.4063 16.469 23.3049 17.075C23.6449 17.31 23.9549 17.575 24.3049 17.85C23.6766 18.6069 23.2149 19.4877 22.9499 20.435L22.7349 20.155C22.3288 19.5836 21.7548 19.1528 21.0926 18.9225C20.4304 18.6922 19.713 18.6739 19.0399 18.87C18.3707 19.0635 17.7789 19.4617 17.3476 20.0087C16.9162 20.5557 16.667 21.2241 16.6349 21.92C16.6196 23.1304 16.285 24.3153 15.6649 25.355C14.9784 26.435 13.9663 27.2688 12.7748 27.736C11.5834 28.2032 10.2743 28.2795 9.0366 27.9539C7.79894 27.6284 6.69681 26.9178 5.88942 25.9249C5.08203 24.9319 4.6112 23.708 4.54492 22.43C4.54492 22.335 4.54492 22.24 4.54492 22.12H7.16492C7.19992 22.355 7.22492 22.58 7.26992 22.8C7.43704 23.5909 7.88292 24.2955 8.52625 24.7851C9.16957 25.2747 9.96746 25.5167 10.7744 25.467C11.5813 25.4173 12.3434 25.0791 12.9218 24.5143C13.5001 23.9494 13.8562 23.1955 13.9249 22.39C13.934 21.5181 14.1035 20.6554 14.4249 19.845C14.6285 19.3857 14.8728 18.9456 15.1549 18.53C16.7349 16.36 18.3349 14.205 19.9349 12.03C19.9665 11.9832 20.0071 11.9432 20.0543 11.9123C20.1015 11.8814 20.1544 11.8602 20.2099 11.85C21.2299 11.85 22.2649 11.855 23.3799 11.855Z" fill="white"/>
<path d="M16.91 11.87L13.365 16.695L14.945 17.885C14.3074 18.6745 13.847 19.5919 13.595 20.575C13.52 20.46 13.475 20.385 13.425 20.315C13.1313 19.837 12.7204 19.4419 12.2313 19.1672C11.7422 18.8924 11.191 18.7471 10.63 18.745C9.96 18.745 9.29 18.745 8.53 18.745L11.615 14.54H6L6.815 13.425C7.15 12.965 7.485 12.5 7.815 12.045C7.89909 11.9455 8.01629 11.8798 8.145 11.86C11 11.86 13.85 11.86 16.705 11.86L16.91 11.87Z" fill="white"/>
<path d="M52.8208 20.125V4.02998H47.8606V1.72998H60.9505V4.02998H55.9308V20.125H52.8208Z" fill="black"/>
<path d="M63.3115 20.125V1.72998H66.4364V20.125H63.3115ZM74.8092 20.125V11.625H67.3937C67.5057 11.2554 67.6588 10.8998 67.8501 10.565C68.0384 10.2208 68.297 9.92082 68.609 9.68498C68.941 9.4456 69.3418 9.32265 69.7498 9.33498H74.8092V1.72998H77.9093V20.125H74.8092Z" fill="black"/>
<path d="M82.1653 20.125V1.72998H85.186V20.125H82.1653Z" fill="black"/>
<path d="M92.5022 20.4C91.6258 20.4068 90.7527 20.2907 89.908 20.055C89.1534 19.8422 88.4182 19.5645 87.7107 19.225L88.4498 17.175C89.034 17.4642 89.6455 17.6937 90.2751 17.86C90.8828 18.0175 91.5077 18.0981 92.1352 18.1C92.7747 18.1104 93.4073 17.9664 93.9803 17.68C94.4983 17.4267 94.9438 17.0448 95.275 16.57C95.5958 16.1253 95.7693 15.5899 95.771 15.04C95.8116 14.3613 95.5832 13.6941 95.1361 13.185C94.6601 12.7106 94.0565 12.3872 93.4 12.255C92.5767 12.0673 91.7342 11.9784 90.8902 11.99L90.662 10.14L91.654 9.72503C92.3286 9.43003 92.9238 9.13503 93.4496 8.84003C93.9247 8.58623 94.3499 8.24737 94.7045 7.84003C95.0185 7.46459 95.1844 6.98586 95.1708 6.49503C95.1837 6.19725 95.1234 5.90087 94.9953 5.63222C94.8673 5.36357 94.6754 5.13095 94.4367 4.95503C93.9155 4.57936 93.2865 4.38618 92.6461 4.40503C92.1245 4.40982 91.6046 4.46508 91.0935 4.57003C90.4237 4.71891 89.7741 4.94891 89.1591 5.25503L88.3952 3.15503C89.1837 2.77146 90.017 2.48926 90.8753 2.31503C91.5951 2.17974 92.3255 2.10946 93.0578 2.10503C93.9895 2.08676 94.9154 2.25677 95.7809 2.60503C96.5442 2.89763 97.2133 3.3957 97.7154 4.04503C98.1866 4.67473 98.4331 5.44644 98.4147 6.23503C98.4134 7.00834 98.1838 7.76375 97.755 8.40503C97.2611 9.13099 96.6054 9.73031 95.8404 10.155L95.2105 10.395L95.7759 10.52C96.3738 10.7483 96.9239 11.0875 97.3979 11.52C97.8844 11.9577 98.2805 12.4878 98.5635 13.08C98.9151 13.8409 99.0608 14.682 98.9859 15.5179C98.911 16.3539 98.6181 17.155 98.137 17.84C97.5344 18.6659 96.727 19.3177 95.7958 19.73C94.761 20.1973 93.6358 20.4262 92.5022 20.4Z" fill="black"/>
<path d="M109.124 20.49C108.006 20.5242 106.897 20.2804 105.895 19.78C105.027 19.3272 104.287 18.6618 103.742 17.845C103.184 17.0001 102.78 16.0623 102.547 15.075C102.291 14.0178 102.165 12.9331 102.17 11.845C102.167 10.6219 102.374 9.40758 102.78 8.25503C103.169 7.12085 103.765 6.06963 104.536 5.15503C105.299 4.24544 106.244 3.50782 107.308 2.99003C108.454 2.44002 109.71 2.16451 110.979 2.18503C111.454 2.19103 111.927 2.24124 112.392 2.33503C112.941 2.43807 113.48 2.58692 114.005 2.78003L113.3 4.87003C112.892 4.72718 112.472 4.62339 112.045 4.56003C111.692 4.51154 111.336 4.48815 110.979 4.49003C109.89 4.46037 108.823 4.80411 107.953 5.46503C107.092 6.15267 106.431 7.06109 106.039 8.09503C105.588 9.28183 105.366 10.5444 105.384 11.815C105.387 12.5395 105.44 13.2629 105.542 13.98C105.644 14.7004 105.837 15.4046 106.118 16.075C106.361 16.6816 106.745 17.2201 107.239 17.645C107.754 18.059 108.401 18.272 109.059 18.245C109.596 18.245 110.118 18.0696 110.547 17.745C111.005 17.4027 111.369 16.9484 111.604 16.425C111.869 15.8295 112.001 15.1826 111.991 14.53C112.057 13.6823 111.817 12.8392 111.316 12.155C111.13 11.9145 110.892 11.7192 110.621 11.5834C110.35 11.4475 110.052 11.3746 109.749 11.37C109.628 11.3612 109.507 11.3612 109.387 11.37C109.253 11.37 109.099 11.41 108.93 11.445C108.567 11.5235 108.189 11.4922 107.844 11.355C107.532 11.228 107.247 11.0412 107.006 10.805C106.79 10.6035 106.598 10.3769 106.435 10.13C107.063 9.77521 107.729 9.4934 108.419 9.29003C108.92 9.14813 109.437 9.07249 109.957 9.06503C110.875 9.06278 111.781 9.28405 112.596 9.71003C113.388 10.1278 114.045 10.7643 114.491 11.545C114.991 12.4624 115.236 13.4989 115.2 14.545C115.2 15.2858 115.056 16.0194 114.778 16.705C114.5 17.4078 114.097 18.0534 113.588 18.61C113.041 19.1961 112.383 19.6654 111.653 19.99C110.855 20.3355 109.993 20.506 109.124 20.49Z" fill="black"/>
<path d="M124.823 20.58C123.483 20.6074 122.168 20.2162 121.058 19.46C119.932 18.6561 119.057 17.5463 118.533 16.26C117.897 14.6834 117.589 12.9916 117.63 11.29C117.596 9.61562 117.895 7.95132 118.508 6.39497C119.017 5.09497 119.876 3.96413 120.988 3.12997C122.099 2.33485 123.436 1.92273 124.798 1.95497C125.903 1.92621 126.996 2.18631 127.972 2.70997C128.87 3.21142 129.639 3.91673 130.219 4.76997C130.832 5.68557 131.285 6.70024 131.558 7.76997C131.861 8.92344 132.011 10.112 132.005 11.305C132.012 12.5556 131.845 13.8011 131.509 15.005C131.214 16.0633 130.736 17.0605 130.095 17.95C129.495 18.7903 128.701 19.4704 127.781 19.9313C126.862 20.3922 125.844 20.62 124.818 20.595L124.823 20.58ZM124.823 18.29C125.435 18.2966 126.036 18.1221 126.551 17.7879C127.066 17.4537 127.472 16.9746 127.719 16.41C128.381 15.1533 128.711 13.4466 128.711 11.29C128.711 9.1333 128.381 7.4183 127.719 6.14497C127.47 5.57886 127.063 5.09781 126.548 4.76017C126.033 4.42253 125.432 4.24281 124.818 4.24281C124.203 4.24281 123.602 4.42253 123.087 4.76017C122.572 5.09781 122.165 5.57886 121.916 6.14497C121.255 7.41164 120.924 9.12664 120.924 11.29C120.924 13.4533 121.255 15.16 121.916 16.41C122.165 16.9758 122.573 17.4556 123.089 17.7898C123.606 18.124 124.209 18.2979 124.823 18.29Z" fill="black"/>
<path d="M48.426 38.275V27.235H54.8742V28.615H50.3109V36.895H55.1074V38.275H48.426ZM50.8714 33.155C50.944 32.9382 51.037 32.7289 51.1492 32.53C51.2669 32.3329 51.424 32.1626 51.6105 32.03C51.811 31.8896 52.0509 31.8177 52.295 31.825H54.3534V33.175L50.8714 33.155Z" fill="#9B51E0"/>
<path d="M56.4021 38.275L59.3782 33.31C59.533 33.5216 59.6644 33.7496 59.7701 33.99C59.8964 34.2634 59.9785 34.5554 60.0131 34.855C60.0472 35.1546 59.9864 35.4573 59.8395 35.72L58.4159 38.3L56.4021 38.275ZM63.1281 38.275L56.5757 27.235H58.6838L60.6678 31.015L60.8117 31.45L60.9307 31.015L62.9148 27.235H64.9882L61.7392 32.635L65.1618 38.275H63.1281Z" fill="#9B51E0"/>
<path d="M66.1736 38.275L70.112 27.235H71.9224L75.8906 38.275H73.9065L71.0593 29.775L70.9453 29.275L70.8163 29.815L69.3778 34.115L69.2042 34.42L69.4175 34.385H70.9056C71.1511 34.3781 71.3919 34.4537 71.5901 34.6C71.7788 34.7429 71.9345 34.9255 72.0464 35.135C72.1593 35.3377 72.2539 35.5502 72.3292 35.77H68.857L68.0138 38.27L66.1736 38.275Z" fill="#9B51E0"/>
<path d="M77.4531 38.275L78.5741 27.235H80.96L83.569 35.89L83.6732 36.39L83.7873 35.89L86.3765 27.235H88.7871L89.8783 38.275H88.1373L87.4479 29.775L87.4032 29.075L87.2197 29.775L84.6057 38.145H82.7307L80.087 29.74L79.8985 29.055L79.8588 29.74L79.1892 38.275H77.4531Z" fill="#9B51E0"/>
<path d="M96.1331 38.275V27.355C96.6291 27.275 97.0308 27.21 97.388 27.16C97.7451 27.11 98.0874 27.075 98.38 27.055C98.6727 27.035 99.0397 27.03 99.4068 27.03C100.15 27.0172 100.887 27.1638 101.569 27.46C102.165 27.7159 102.679 28.1308 103.057 28.66C103.418 29.1833 103.606 29.808 103.593 30.445C103.61 31.0549 103.436 31.6546 103.097 32.16C102.761 32.6411 102.313 33.0324 101.793 33.3C101.263 33.5761 100.685 33.7459 100.091 33.8C99.8534 33.8152 99.6149 33.8152 99.377 33.8C99.1048 33.7807 98.8354 33.7321 98.5735 33.655C98.6542 33.4637 98.7539 33.2811 98.8711 33.11C98.9872 32.9339 99.1333 32.7799 99.3026 32.655C99.473 32.5299 99.6772 32.4601 99.8879 32.455C100.195 32.4374 100.49 32.3335 100.741 32.155C101.013 31.9706 101.237 31.7239 101.396 31.435C101.567 31.1303 101.654 30.7851 101.649 30.435C101.654 30.0709 101.554 29.7131 101.361 29.405C101.163 29.0982 100.89 28.8484 100.567 28.68C100.212 28.4944 99.8166 28.4015 99.4167 28.41C99.1439 28.41 98.9207 28.41 98.7074 28.41L98.003 28.48V38.275H96.1331Z" fill="#9B51E0"/>
<path d="M105.652 38.275V27.37C106.148 27.285 106.544 27.215 106.907 27.165C107.269 27.115 107.606 27.08 107.923 27.055C108.241 27.03 108.583 27.02 108.95 27.02C109.684 27.0079 110.412 27.151 111.088 27.44C111.68 27.6874 112.194 28.0917 112.576 28.61C112.942 29.1198 113.133 29.7358 113.122 30.365C113.133 30.9264 112.978 31.4784 112.675 31.95C112.381 32.4024 111.98 32.775 111.51 33.035L111.118 33.19L111.435 33.34C111.76 33.5826 112.025 33.8974 112.209 34.26C112.396 34.6416 112.547 35.04 112.66 35.45C112.784 35.88 112.908 36.335 113.037 36.815C113.18 37.3144 113.359 37.8025 113.573 38.275H111.604C111.414 37.8582 111.263 37.4247 111.152 36.98C111.038 36.525 110.919 36.075 110.805 35.635C110.695 35.2249 110.542 34.8277 110.349 34.45C110.172 34.1119 109.906 33.8297 109.58 33.635C109.336 33.6525 109.09 33.6525 108.846 33.635C108.587 33.6159 108.33 33.5672 108.082 33.49C108.163 33.2998 108.261 33.1174 108.375 32.945C108.494 32.7684 108.641 32.6129 108.811 32.485C108.98 32.3589 109.182 32.2859 109.392 32.275C109.697 32.2586 109.993 32.1621 110.25 31.995C110.519 31.8231 110.744 31.5881 110.904 31.31C111.076 31.0166 111.164 30.6807 111.157 30.34C111.163 29.9837 111.059 29.6345 110.86 29.34C110.657 29.0417 110.38 28.8021 110.056 28.645C109.705 28.4712 109.317 28.3838 108.925 28.39C108.648 28.39 108.429 28.39 108.241 28.39C108.052 28.39 107.814 28.43 107.512 28.475V38.275H105.652Z" fill="#9B51E0"/>
<path d="M115.721 38.275V27.235H122.169V28.615H117.601V36.895H122.402V38.275H115.721ZM118.171 33.155C118.24 32.9375 118.331 32.728 118.444 32.53C118.562 32.3329 118.719 32.1626 118.905 32.03C119.107 31.8895 119.349 31.8177 119.595 31.825H121.648V33.175L118.171 33.155Z" fill="#9B51E0"/>
<path d="M124.5 38.275V27.355C124.996 27.275 125.393 27.21 125.755 27.16C126.117 27.11 126.455 27.075 126.772 27.055C127.089 27.035 127.432 27.03 127.799 27.03C128.54 27.0172 129.276 27.1638 129.956 27.46C130.551 27.7165 131.066 28.1314 131.444 28.66C131.805 29.1833 131.993 29.808 131.98 30.445C131.999 31.0552 131.825 31.6556 131.484 32.16C131.151 32.642 130.704 33.0336 130.185 33.3C129.653 33.5761 129.074 33.7459 128.478 33.8C128.242 33.8153 128.005 33.8153 127.769 33.8C127.497 33.7808 127.227 33.7321 126.965 33.655C127.044 33.4638 127.143 33.2812 127.258 33.11C127.377 32.9349 127.525 32.7811 127.695 32.655C127.864 32.5309 128.066 32.4611 128.275 32.455C128.583 32.4383 128.881 32.3344 129.133 32.155C129.405 31.9707 129.629 31.7239 129.788 31.435C129.959 31.1303 130.046 30.7851 130.041 30.435C130.044 30.0704 129.942 29.7127 129.748 29.405C129.552 29.1027 129.282 28.8565 128.964 28.69C128.609 28.5054 128.213 28.4126 127.814 28.42C127.541 28.42 127.318 28.42 127.104 28.42L126.4 28.49V38.275H124.5Z" fill="#9B51E0"/>
</g>
<defs>
<clipPath id="clip0_391_87">
<rect width="132" height="40" fill="white"/>
</clipPath>
</defs>
</svg>
