<svg width="48" height="48" viewBox="0 0 48 48" fill="none" xmlns="http://www.w3.org/2000/svg">
<path fill-rule="evenodd" clip-rule="evenodd" d="M34.3422 40.3406L42.0828 38.3359V43.1351C39.5941 44.579 36.5425 45.4295 33.2445 45.4295C29.9466 45.4295 26.8949 44.579 24.4062 43.1351V38.3359L32.1469 40.3406C32.8867 40.5322 33.6024 40.5322 34.3422 40.3406ZM47.3021 42.7915C47.7218 42.5319 48 42.0774 48 41.56C48 40.997 47.6706 40.5085 47.1878 40.2646V35.7952C47.1878 35.7349 47.1795 35.6763 47.1638 35.6203L47.2031 35.6101C47.4684 35.5414 47.6466 35.317 47.6466 35.0515C47.6466 34.786 47.4683 34.5616 47.2031 34.4929L33.98 31.0684C33.4761 30.9378 33.0129 30.9378 32.5089 31.0684L19.2859 34.4929C19.0206 34.5616 18.8424 34.7861 18.8424 35.0515C18.8424 35.3169 19.0206 35.5413 19.2859 35.6101L32.5089 39.0346C33.0129 39.1652 33.476 39.1652 33.98 39.0346L45.7889 35.9763V40.2647C45.3063 40.5086 44.9768 40.9971 44.9768 41.5601C44.9768 42.1109 45.2922 42.5905 45.7579 42.8394L45.3763 43.6319C45.1739 44.0522 45.0831 44.4492 45.0831 44.9128V47.2049C45.0831 47.6422 45.4533 48 45.9056 48H47.1772C47.6297 48 47.9999 47.6422 47.9999 47.2049V44.9128C47.9999 44.4492 47.9091 44.0522 47.7066 43.6319L47.3021 42.7915ZM23.6864 44.2943C24.4384 44.7306 25.2223 45.1088 26.0298 45.4295H0V3.583H28.6754V13.3115C28.6754 14.0039 28.0932 14.567 27.3765 14.567C26.6599 14.567 26.0785 14.0038 26.0785 13.3115V5.82365C26.0785 5.70196 26.1845 5.59968 26.3102 5.59968C26.4359 5.59968 26.5433 5.70205 26.5433 5.82365V11.4648C26.5433 11.8386 26.8558 12.1408 27.2425 12.1408C27.6292 12.1408 27.9419 11.8386 27.9419 11.4648V5.82365C27.9419 4.95443 27.2099 4.24747 26.3102 4.24747C25.4105 4.24747 24.6793 4.95443 24.6793 5.82365V13.3115C24.6793 14.7494 25.8897 15.919 27.3764 15.919C28.8632 15.919 30.0746 14.7494 30.0746 13.3115V3.583C30.0746 2.35248 29.0396 1.35182 27.7665 1.35182C27.027 1.35182 26.3593 1.69594 25.9346 2.2307H24.3358C24.8937 0.919823 26.2341 0 27.7665 0C29.8111 0 31.4737 1.60699 31.4737 3.5831H33.2445V29.6186C32.8807 29.6186 32.5168 29.6665 32.1469 29.7623L18.9239 33.1868C18.0473 33.4139 17.4436 34.1743 17.4436 35.0515C17.4436 35.9287 18.0473 36.6891 18.924 36.9161L23.0075 37.9736V43.9005L23.6864 44.2943ZM4.2745 16.2594C4.2745 16.6331 4.58705 16.9356 4.97386 16.9356H12.863C13.2493 16.9356 13.5623 16.6331 13.5623 16.2594V10.8249C13.5623 10.7907 13.5596 10.7571 13.5546 10.7243L15.2538 9.08156C15.5278 8.8179 15.5278 8.39015 15.2538 8.12543C14.9812 7.86176 14.5386 7.86176 14.2646 8.12543L9.64714 12.5892L8.69878 11.0024C8.50613 10.679 8.07846 10.569 7.74371 10.7554C7.40897 10.9418 7.29436 11.355 7.48801 11.6786L8.89103 14.0284C8.99984 14.2109 9.1896 14.3336 9.40543 14.3606C9.43671 14.3645 9.46658 14.3664 9.49746 14.3664C9.68142 14.3664 9.85918 14.2958 9.99208 14.1683L12.1633 12.0693V15.5833H5.67311V9.31055H10.3739C10.7602 9.31055 11.0732 9.00835 11.0732 8.6344C11.0732 8.26044 10.7602 7.95834 10.3739 7.95834H4.97386C4.58715 7.95834 4.2745 8.26073 4.2745 8.6344V16.2594ZM4.2745 20.957C4.2745 21.3298 4.58705 21.633 4.97386 21.633H28.2708C28.6576 21.633 28.9702 21.3297 28.9702 20.957C28.9702 20.5843 28.6576 20.2809 28.2708 20.2809H4.97386C4.58715 20.2809 4.2745 20.5833 4.2745 20.957ZM4.2745 24.9226C4.2745 25.2954 4.58705 25.5987 4.97386 25.5987H28.2708C28.6576 25.5987 28.9702 25.2954 28.9702 24.9226C28.9702 24.5498 28.6576 24.2465 28.2708 24.2465H4.97386C4.58715 24.2465 4.2745 24.5489 4.2745 24.9226ZM4.2745 28.8882C4.2745 29.261 4.58705 29.5641 4.97386 29.5641H28.2708C28.6576 29.5641 28.9702 29.261 28.9702 28.8882C28.9702 28.5154 28.6576 28.2121 28.2708 28.2121H4.97386C4.58715 28.2121 4.2745 28.5143 4.2745 28.8882ZM4.2745 32.8536C4.2745 33.2264 4.58705 33.5297 4.97386 33.5297H15.3728C15.7586 33.5297 16.0722 33.2264 16.0722 32.8536C16.0722 32.4808 15.7586 32.1775 15.3728 32.1775H4.97386C4.58715 32.1775 4.2745 32.48 4.2745 32.8536ZM4.2745 36.8192C4.2745 37.192 4.58705 37.4953 4.97386 37.4953H15.3728C15.7586 37.4953 16.0722 37.192 16.0722 36.8192C16.0722 36.4464 15.7586 36.1431 15.3728 36.1431H4.97386C4.58715 36.1431 4.2745 36.4453 4.2745 36.8192ZM19.9502 40.7837C19.9502 40.411 19.6376 40.1076 19.2509 40.1076H4.97386C4.58715 40.1076 4.2745 40.411 4.2745 40.7837C4.2745 41.1564 4.58705 41.4598 4.97386 41.4598H19.2508C19.6375 41.4598 19.9502 41.1576 19.9502 40.7837Z" fill="url(#paint0_linear_5615_80960)"/>
<defs>
<linearGradient id="paint0_linear_5615_80960" x1="9.07149" y1="50.4918" x2="35.2319" y2="3.61202" gradientUnits="userSpaceOnUse">
<stop stop-color="#FF6100"/>
<stop offset="1" stop-color="#FDB82E"/>
</linearGradient>
</defs>
</svg>
