<svg width="48" height="48" viewBox="0 0 48 48" fill="none" xmlns="http://www.w3.org/2000/svg">
<path d="M13.7677 10.1901C12.9636 8.59719 12.3728 6.83232 11.7082 5.16438L12.1732 4.85638C16.8592 1.75949 22.4881 0.479617 28.0286 1.25131C26.7403 2.96634 26.3164 5.49169 27.6156 8.8134C28.0969 10.0427 28.7425 11.483 29.4235 12.9372C30.0662 14.3025 30.8211 15.8426 31.4995 17.2164C31.7019 17.6344 32.0158 17.9865 32.4054 18.2327C32.7951 18.4789 33.2449 18.6094 33.704 18.6094C34.163 18.6094 34.6129 18.4789 35.0025 18.2327C35.3922 17.9865 35.706 17.6344 35.9084 17.2164C36.3133 16.3976 36.7453 15.518 37.1638 14.6522C37.3553 15.1156 37.5467 15.6345 37.7327 16.2173C38.2688 17.874 40.0193 19.281 41.5154 20.4826C42.8446 21.554 43.9961 22.481 44.2313 23.5244C44.3263 23.9177 44.3411 24.3266 44.275 24.726C44.0969 25.664 43.4406 26.2194 42.5031 26.5021C41.721 26.7352 40.7308 26.7685 39.6914 26.6769C37.3967 26.4771 34.7546 25.6807 33.625 25.2033C32.2187 24.6123 30.8761 24.8925 29.5852 25.1617C28.0837 25.4756 26.6422 25.7778 25.0805 24.9563C23.0649 23.8963 22.6654 23.0804 23.0702 22.2895C23.3301 21.7844 23.9098 21.4792 24.5718 21.135C25.2582 20.7742 26.0651 20.3525 26.2976 19.778C26.7708 18.6042 26.0816 17.6745 25.3705 16.7143C24.3503 15.3407 23.2945 13.9199 24.3092 11.622C24.5854 10.9977 24.5854 9.82929 23.8934 9.59596C23.7047 9.54316 22.9635 10.4341 21.8257 11.2277C20.7179 12.0019 19.5966 12.7845 19.159 13.0121C16.6177 14.3305 14.9985 12.6322 13.7677 10.1901ZM12.6217 29.6768C12.7605 28.3624 13.3296 27.1333 14.2382 26.1858C15.5647 24.8066 17.512 24.1155 19.4485 24.1155C20.4369 24.113 21.4171 24.2965 22.3395 24.6567C21.85 24.1128 21.5299 23.4582 21.5819 22.6698C21.6097 22.3169 21.7073 21.9733 21.8691 21.6596C22.3177 20.7827 23.1245 20.347 23.9503 19.9168C24.1883 19.792 24.8858 19.4368 25.058 19.2259C25.2413 18.6765 24.5848 17.9355 24.2892 17.5386C24.1881 17.4026 24.0868 17.2667 23.9857 17.1279C22.8424 15.5489 22.2708 14.0698 22.6592 12.3076C22.6373 12.3242 22.6154 12.3409 22.5908 12.3575C22.0602 12.7294 21.5268 13.1012 20.9907 13.4648C20.5987 13.7441 20.1914 14.0007 19.7709 14.2335C18.6441 14.819 17.4078 15.0467 16.1852 14.6276C14.4702 14.0392 13.3516 12.3769 12.5639 10.8145C12.0009 9.69384 11.55 8.51434 11.1037 7.34008C10.9587 6.95712 10.8138 6.57416 10.6606 6.19397L10.5867 6.00525C9.96364 6.50051 9.36572 7.02752 8.79525 7.58425C9.51836 7.91405 10.175 8.37699 10.7318 8.94961C12.3536 10.6369 13.0402 13.3093 11.6562 16.9447C11.8614 17.8827 12.1103 19.0787 12.5861 19.8724C13.5297 21.4542 14.2163 23.2414 13.5243 25.0673C13.1577 26.0303 12.493 26.7906 11.8285 27.551C11.142 28.3364 10.5458 29.0496 10.1656 30.0432C10.1027 30.2069 10.0397 30.3707 9.97688 30.5371C9.18366 32.6211 8.1826 35.2908 6.74672 36.9839L5.87691 38.008C6.3201 38.649 6.79691 39.2697 7.30735 39.8701C7.99077 37.9891 8.80045 36.1579 9.73069 34.3892C10.5458 32.8265 11.5304 31.0865 12.6217 29.6768ZM42.325 33.3313C39.8524 34.2165 38.0418 35.5292 37.0462 37.3302C36.0999 39.0423 35.9112 41.1571 36.6168 43.7185L36.8606 44.6093C39.4898 42.9843 41.7749 40.8457 43.583 38.3175C45.3911 35.7894 46.6863 32.922 47.3934 29.8818L45.7548 31.2006C44.7291 32.0273 43.5667 32.8848 42.325 33.3313ZM47.5627 19.9998C46.6036 15.006 44.0668 10.4654 40.3365 7.06537C40.1988 7.66156 40.016 8.24607 39.7895 8.81368C39.3109 10.043 38.6654 11.4832 37.9844 12.9374L37.9296 13.054C38.3593 13.9372 38.7232 14.8518 39.0182 15.7902C39.4531 17.1334 41.2884 18.5542 42.3551 19.409C43.5694 20.3887 45.1863 21.6068 45.547 23.2191C45.6853 23.7973 45.7039 24.3983 45.6016 24.9841C45.3204 26.466 44.2751 27.3984 42.8856 27.8147C41.8409 28.1286 40.6538 28.1366 39.5762 28.0422C37.555 27.8674 34.9675 27.2541 33.1049 26.4687C32.0518 26.0247 30.9305 26.2801 29.8584 26.5049C28.045 26.8822 26.5078 27.1154 24.7984 26.3383C26.3328 28.0505 26.9372 30.7119 25.5342 34.2999C25.236 35.0631 24.875 35.9095 24.4784 36.7891C24.6589 36.8197 24.8367 36.8502 25.0145 36.8946C26.8962 37.3469 27.8809 38.9537 28.7068 40.5966C28.9667 41.1155 29.5192 41.2349 30.028 41.3931C31.0017 41.6955 31.8112 41.998 32.6208 42.6612C32.9995 42.9734 33.3468 43.3229 33.6574 43.7047C33.9669 44.0848 34.2389 44.4947 34.4698 44.9285L34.8773 45.6999C35.1372 45.5723 35.3942 45.4419 35.6486 45.3031L35.3149 44.0876C34.6257 41.5845 34.5846 38.9787 35.8674 36.6587C37.1583 34.3248 39.4476 32.9095 41.8737 32.0382C42.9623 31.6497 44.018 30.8505 44.9151 30.1263L47.7733 27.8258C48.1348 25.2236 48.0636 22.5784 47.5627 20.0001V19.9998ZM32.6157 44.579C32.3637 44.2672 32.0815 43.9818 31.7733 43.727C31.0731 43.1526 30.3429 42.9251 29.629 42.7031C28.7946 42.4421 27.9907 42.1925 27.5037 41.2184C26.1061 38.4322 25.2256 38.2935 24.0986 38.1159C24.0302 38.1047 23.9591 38.0936 23.888 38.0797C23.8361 38.1939 23.7813 38.3101 23.7266 38.4239C23.0866 39.7892 22.3317 41.3294 21.6535 42.7031C21.4503 43.1202 21.1361 43.4714 20.7466 43.717C20.357 43.9625 19.9075 44.0926 19.4489 44.0926C18.9903 44.0926 18.5408 43.9625 18.1513 43.717C17.7617 43.4714 17.4476 43.1202 17.2444 42.7031C16.5661 41.3294 15.8112 39.7892 15.1685 38.4239C14.4847 36.9697 13.8419 35.5294 13.3605 34.3001C13.059 33.5422 12.8363 32.7544 12.6959 31.9496C12.1325 32.8293 11.5225 33.8838 10.9263 35.0299C9.98304 36.8254 9.1667 38.6866 8.48344 40.5996L8.34122 41.0103C15.4194 48.0229 24.4538 49.7269 33.6437 46.2663L33.28 45.5781C33.0912 45.2238 32.8687 44.8892 32.6157 44.579ZM8.90466 29.5464C9.39432 28.2698 10.1546 27.3984 10.8165 26.6436C12.2716 24.979 13.3329 23.7659 11.432 20.5828C11.1536 20.0978 10.9358 19.5795 10.7837 19.0399C10.4774 19.7336 10.1462 20.4579 9.80457 21.1877C9.16182 22.5531 8.40685 24.0905 7.72857 25.467C7.52536 25.8841 7.21124 26.2353 6.82169 26.4808C6.43214 26.7264 5.98268 26.8565 5.52408 26.8565C5.06548 26.8565 4.61602 26.7264 4.22647 26.4808C3.83692 26.2353 3.5228 25.8841 3.31959 25.467C2.8245 24.4651 2.29125 23.3744 1.7879 22.3311C1.75237 22.7306 1.72509 23.1301 1.70859 23.5296C1.53169 27.8708 2.5407 32.1771 4.62422 35.9731L5.09466 36.8306L5.72372 36.0896C6.98466 34.6022 7.9831 31.9714 8.71594 30.0427C8.78166 29.871 8.84447 29.7045 8.90466 29.5464ZM28.8683 8.31135C27.6538 5.21156 28.1681 2.99982 29.4618 1.65396C30.5203 0.552175 32.1066 0 33.7039 0C35.3012 0 36.8876 0.552175 37.9461 1.65396C39.2399 2.99982 39.754 5.21147 38.5395 8.31135C38.091 9.46022 37.4537 10.8811 36.7645 12.3491C36.0314 13.906 35.3231 15.3518 34.705 16.6062C34.6156 16.7974 34.4734 16.9581 34.2957 17.069C34.118 17.1798 33.9124 17.2359 33.7039 17.2305C33.4954 17.2359 33.2898 17.1798 33.1121 17.069C32.9344 16.9581 32.7922 16.7974 32.7028 16.6062C32.082 15.3518 31.3736 13.906 30.6433 12.3491C29.9541 10.8811 29.3168 9.46022 28.8683 8.31135ZM29.9322 5.4253C29.932 6.31093 30.2345 7.16924 30.7881 7.85396C31.3417 8.53869 32.1122 9.00746 32.9683 9.18039C33.8243 9.35332 34.713 9.21972 35.4829 8.80234C36.2528 8.38497 36.8562 7.70966 37.1903 6.89147C37.5244 6.07329 37.5686 5.16287 37.3153 4.31535C37.062 3.46783 36.5268 2.73565 35.8011 2.24359C35.0753 1.75152 34.2039 1.53002 33.3352 1.61681C32.4665 1.70361 31.6544 2.09334 31.0372 2.71959C30.6864 3.07452 30.4083 3.49626 30.2186 3.96059C30.029 4.42492 29.9317 4.92269 29.9322 5.4253ZM19.4485 25.4862C21.0459 25.4862 22.6322 26.0384 23.6907 27.1402C24.9845 28.486 25.4958 30.695 24.2842 33.7976C23.8357 34.9437 23.1984 36.3674 22.5091 37.8354C21.7761 39.3922 21.0677 40.838 20.4496 42.0924C20.3583 42.2828 20.2162 42.4434 20.0393 42.5558C19.8592 42.6613 19.655 42.7168 19.4471 42.7168C19.2393 42.7168 19.0351 42.6613 18.855 42.5558C18.679 42.4433 18.5377 42.2826 18.4475 42.0924C17.8266 40.838 17.1182 39.3922 16.388 37.8354C15.6987 36.3674 15.0614 34.9437 14.6128 33.7976C13.3985 30.695 13.9127 28.486 15.2035 27.1402C16.2649 26.0386 17.8512 25.4864 19.4485 25.4864V25.4862ZM22.1156 28.2032C21.4987 27.5774 20.687 27.1881 19.8189 27.1015C18.9507 27.0149 18.0799 27.2364 17.3546 27.7283C16.6294 28.2201 16.0947 28.9518 15.8415 29.7988C15.5884 30.6458 15.6326 31.5557 15.9665 32.3733C16.3004 33.191 16.9034 33.8659 17.6727 34.2831C18.4421 34.7002 19.3302 34.8338 20.1857 34.6611C21.0413 34.4884 21.8114 34.0201 22.3647 33.3359C22.9181 32.6517 23.2206 31.794 23.2206 30.909C23.2208 30.4064 23.1233 29.9087 22.9337 29.4444C22.7441 28.9801 22.4661 28.5583 22.1156 28.2032ZM2.46347 20.5967C1.77431 19.1287 1.137 17.7078 0.688401 16.559C-0.525944 13.4592 -0.0117247 11.2474 1.28193 9.90424C2.34047 8.7997 3.92681 8.25029 5.52413 8.25029C7.12144 8.25029 8.70779 8.7998 9.76622 9.90424C11.06 11.2474 11.5741 13.4592 10.3598 16.559C9.91126 17.7078 9.27394 19.1287 8.58469 20.5967C7.85438 22.1566 7.14328 23.6025 6.52519 24.8564C6.43391 25.047 6.29163 25.2077 6.11461 25.3201C5.93759 25.4325 5.73296 25.4921 5.52413 25.4921C5.31529 25.4921 5.11067 25.4325 4.93364 25.3201C4.75662 25.2077 4.61434 25.047 4.52306 24.8564C3.90487 23.6021 3.19378 22.1562 2.46347 20.5967ZM1.75237 13.6728C1.75214 14.5585 2.05458 15.4168 2.60817 16.1015C3.16175 16.7862 3.93222 17.255 4.78829 17.428C5.64436 17.6009 6.53305 17.4674 7.30292 17.05C8.0728 16.6327 8.67622 15.9574 9.01037 15.1392C9.34452 14.321 9.38871 13.4106 9.13542 12.5631C8.88213 11.7156 8.34703 10.9834 7.6213 10.4913C6.89557 9.99919 6.02412 9.77765 5.15545 9.86442C4.28677 9.95119 3.47463 10.3409 2.8574 10.9671C2.50643 11.3219 2.2281 11.7436 2.03845 12.208C1.8488 12.6723 1.75157 13.1702 1.75237 13.6728ZM33.7039 7.88122C34.2646 7.88186 34.8082 7.68521 35.242 7.32478C35.6758 6.96436 35.973 6.46246 36.0829 5.90462C36.1929 5.34678 36.1088 4.76751 35.845 4.26553C35.5811 3.76356 35.1539 3.36993 34.6361 3.15173C34.1183 2.93353 33.542 2.90426 33.0053 3.06891C32.4686 3.23356 32.0047 3.58193 31.6928 4.05468C31.3809 4.52742 31.2403 5.09527 31.2948 5.66146C31.3493 6.22766 31.5956 6.75715 31.9918 7.15973C32.216 7.38883 32.4828 7.57055 32.7766 7.69439C33.0705 7.81823 33.3857 7.88173 33.7039 7.88122ZM17.0279 30.909C17.0284 31.4766 17.2228 32.0266 17.578 32.4652C17.9332 32.9038 18.4274 33.2038 18.9762 33.3143C19.525 33.4247 20.0946 33.3387 20.5879 33.0708C21.0812 32.803 21.4677 32.3699 21.6817 31.8453C21.8956 31.3208 21.9236 30.7372 21.7611 30.194C21.5985 29.6508 21.2554 29.1816 20.7901 28.8663C20.3248 28.551 19.7662 28.4091 19.2094 28.4648C18.6526 28.5204 18.132 28.7703 17.7364 29.1717C17.5113 29.3996 17.3328 29.6704 17.2112 29.9685C17.0896 30.2667 17.0273 30.5863 17.0279 30.909ZM5.52413 16.1287C6.08364 16.1283 6.6257 15.9311 7.05796 15.5706C7.49022 15.2102 7.78596 14.7088 7.89478 14.152C8.00361 13.5951 7.9188 13.0172 7.6548 12.5167C7.3908 12.0162 6.96393 11.624 6.44692 11.4069C5.92991 11.1899 5.35473 11.1615 4.81936 11.3264C4.284 11.4914 3.82155 11.8396 3.51081 12.3117C3.20006 12.7837 3.06024 13.3505 3.11515 13.9155C3.17006 14.4804 3.41632 15.0086 3.81197 15.41C4.03673 15.6382 4.30366 15.8191 4.59746 15.9425C4.89127 16.0658 5.20617 16.1291 5.52413 16.1287Z" fill="url(#paint0_linear_5615_80937)"/>
<defs>
<linearGradient id="paint0_linear_5615_80937" x1="-5.905e-06" y1="24" x2="48.0001" y2="24" gradientUnits="userSpaceOnUse">
<stop stop-color="#0056E9"/>
<stop offset="0.033" stop-color="#005DE8"/>
<stop offset="0.191" stop-color="#007BE2"/>
<stop offset="0.359" stop-color="#0092DE"/>
<stop offset="0.539" stop-color="#00A2DA"/>
<stop offset="0.739" stop-color="#00ACD9"/>
<stop offset="1" stop-color="#00AFD8"/>
</linearGradient>
</defs>
</svg>
