<svg width="48" height="48" viewBox="0 0 48 48" fill="none" xmlns="http://www.w3.org/2000/svg">
<path fill-rule="evenodd" clip-rule="evenodd" d="M37.8555 20.649C32.8051 20.649 28.7109 24.7068 28.7109 29.7124C28.7109 34.718 32.8051 38.7758 37.8555 38.7758C42.9059 38.7758 47 34.718 47 29.7124C47 24.7068 42.9059 20.649 37.8555 20.649ZM43.2888 27.1668L37.566 33.784C37.1023 34.3771 36.2029 34.4163 35.6919 33.8536L32.4413 30.2658C31.9902 29.7689 32.0308 29.0036 32.5321 28.5565C33.0334 28.1094 33.8055 28.1496 34.2567 28.6465L36.5792 31.21L41.4353 25.595C41.8732 25.0877 42.6433 25.0283 43.1551 25.4624C43.6669 25.8963 43.7268 26.6596 43.2888 27.1668ZM35.7333 19.405V0H10.1223V8.31418C10.1223 8.71583 9.7938 9.04145 9.38855 9.04145H1V43.5556H35.7333V40.0197C33.8734 39.6456 32.1906 38.7888 30.8225 37.5879C30.7751 37.9442 30.4675 38.2193 30.095 38.2193H6.63832C6.23307 38.2193 5.90453 37.8937 5.90453 37.4921C5.90453 37.0904 6.23307 36.7648 6.63832 36.7648H29.9827C28.9963 35.684 28.234 34.3987 27.7668 32.9812H6.63832C6.23307 32.9812 5.90453 32.6556 5.90453 32.254C5.90453 31.8523 6.23307 31.5267 6.63832 31.5267H27.4012C27.2976 30.9373 27.2434 30.3312 27.2434 29.7124C27.2434 29.0392 27.308 28.3812 27.4299 27.7431H6.63832C6.23307 27.7431 5.90453 27.4175 5.90453 27.0159C5.90453 26.6142 6.23307 26.2886 6.63832 26.2886H27.8189C28.3135 24.864 29.1082 23.5779 30.1281 22.5042C30.1171 22.5047 30.1062 22.505 30.0951 22.505H6.63832C6.23307 22.505 5.90453 22.1794 5.90453 21.7777C5.90453 21.3761 6.23307 21.0505 6.63832 21.0505H30.095C30.5003 21.0505 30.8288 21.3761 30.8288 21.7777C30.8288 21.7964 30.8281 21.8148 30.8267 21.8331C32.1939 20.634 33.8753 19.7788 35.7333 19.405ZM14.4822 5.33624H30.0949C30.5002 5.33624 30.8287 5.66187 30.8287 6.06351C30.8287 6.46516 30.5002 6.79079 30.0949 6.79079H14.4822C14.077 6.79079 13.7484 6.46516 13.7484 6.06351C13.7484 5.66177 14.077 5.33624 14.4822 5.33624ZM6.63832 10.5744H30.095C30.5003 10.5744 30.8288 10.9 30.8288 11.3016C30.8288 11.7033 30.5003 12.0289 30.095 12.0289H6.63832C6.23307 12.0289 5.90453 11.7033 5.90453 11.3016C5.90453 10.9 6.23297 10.5744 6.63832 10.5744ZM30.095 17.2669H6.63832C6.23307 17.2669 5.90453 16.9413 5.90453 16.5396C5.90453 16.138 6.23307 15.8124 6.63832 15.8124H30.095C30.5003 15.8124 30.8288 16.138 30.8288 16.5396C30.8288 16.9413 30.5003 17.2669 30.095 17.2669ZM1.73369 7.58691H8.65476V0.727273L1.73369 7.58691ZM40.2176 48V39.9684C39.4578 40.1395 38.6674 40.2303 37.8555 40.2303C37.6355 40.2303 37.4174 40.2228 37.2008 40.2097V45.01H5.48432V48H40.2176ZM37.2008 19.2149V4.44441H40.2176V19.4563C39.4578 19.2851 38.6674 19.1944 37.8555 19.1944C37.6355 19.1945 37.4174 19.2018 37.2008 19.2149Z" fill="url(#paint0_linear_5615_80952)"/>
<defs>
<linearGradient id="paint0_linear_5615_80952" x1="-1.52569" y1="39.2197" x2="44.7665" y2="12.2535" gradientUnits="userSpaceOnUse">
<stop stop-color="#E514FC"/>
<stop offset="1" stop-color="#26BAE3"/>
</linearGradient>
</defs>
</svg>
