<svg width="48" height="48" viewBox="0 0 48 48" fill="none" xmlns="http://www.w3.org/2000/svg">
<path fill-rule="evenodd" clip-rule="evenodd" d="M25.2477 11.802L24.7406 14.0503C24.7379 14.0529 24.7353 14.0529 24.7299 14.0556L24.714 14.0635C24.6471 14.0896 24.5758 14.1024 24.5041 14.101H23.5925C23.5217 14.1021 23.4512 14.0894 23.3853 14.0635C23.3792 14.0604 23.3729 14.0578 23.3665 14.0556C23.3639 14.0529 23.3613 14.0529 23.3585 14.0503L22.8589 11.8284L25.2477 11.802ZM23.6906 15.4135L23.3504 19.6709L24.0493 20.3834L24.7483 19.6709L24.4081 15.4135H23.6906ZM13.7699 13.1573C12.9195 12.3069 11.9016 12.2273 11.0619 12.5833C10.4198 12.8569 9.90834 13.3682 9.63475 14.0104C9.27597 14.8528 9.35575 15.8707 10.2062 16.7211L14.1233 20.6409L14.126 20.6382C15.6567 22.2566 17.1662 21.494 18.5215 20.2264C18.8564 19.9128 19.1726 19.5753 19.4729 19.243V25.1108C19.4733 25.2848 19.5426 25.4514 19.6656 25.5744C19.7886 25.6974 19.9552 25.7666 20.1291 25.7671H27.9688C28.1427 25.7666 28.3094 25.6974 28.4323 25.5744C28.5553 25.4514 28.6246 25.2848 28.625 25.1108V19.243C28.925 19.5753 29.2415 19.9128 29.5737 20.2237C30.9211 21.4834 32.4173 22.246 33.9348 20.6754C33.9479 20.6646 33.9604 20.6531 33.9723 20.6409L37.8921 16.7211C38.7425 15.8707 38.8222 14.8528 38.4634 14.0104C38.1899 13.3682 37.6785 12.8568 37.0364 12.5833C36.1939 12.2271 35.1788 12.3069 34.3284 13.1573L32.0482 15.4375L29.032 12.4238C28.7816 12.1711 28.4835 11.9705 28.155 11.8339C27.8265 11.698 27.4741 11.6293 27.1186 11.6319H26.6269L26.0077 14.3851C25.9575 14.604 25.846 14.804 25.6862 14.9618L26.0794 19.8649C26.0869 19.9653 26.0714 20.0661 26.034 20.1596C25.9967 20.2531 25.9385 20.3368 25.8638 20.4044L24.5138 21.7783C24.4536 21.8396 24.3818 21.8884 24.3026 21.9219C24.2235 21.9554 24.1385 21.9728 24.0525 21.9733C23.9666 21.9738 23.8813 21.9573 23.8018 21.9248C23.7222 21.8922 23.6499 21.8443 23.589 21.7837L22.2045 20.3752C22.139 20.3082 22.0886 20.228 22.0565 20.1401C22.0244 20.0521 22.0115 19.9583 22.0185 19.8649L22.4118 14.9618C22.2514 14.8044 22.1398 14.6042 22.0902 14.3851L21.471 11.6319H20.9793C20.6239 11.6293 20.2714 11.698 19.9429 11.8339C19.614 11.9711 19.3151 12.1716 19.0633 12.4238L16.05 15.4375L13.7699 13.1573ZM24.0491 10.0056C24.8965 10.0053 25.7249 9.75379 26.4294 9.28282C27.1339 8.81186 27.6829 8.14258 28.0071 7.35961C28.3313 6.57663 28.4161 5.71512 28.2507 4.88397C28.0853 4.05283 27.6772 3.28938 27.078 2.69014C26.4788 2.0909 25.7154 1.68278 24.8842 1.51737C24.0531 1.35195 23.1916 1.43668 22.4086 1.76083C21.6256 2.08499 20.9563 2.63401 20.4853 3.3385C20.0143 4.04299 19.7628 4.87132 19.7625 5.71875C19.7639 6.85521 20.216 7.94471 21.0196 8.74833C21.8232 9.55194 22.9126 10.0041 24.0491 10.0056ZM7.00647 7.0185V0.65625C7.00647 0.482202 7.07561 0.315282 7.19868 0.192211C7.32175 0.0691404 7.48867 0 7.66272 0L17.1662 0C17.3398 0.000471818 17.5062 0.0698444 17.6288 0.192886C17.7513 0.315927 17.8201 0.482579 17.8199 0.65625V7.0185C17.8201 7.19216 17.7513 7.3588 17.6288 7.48184C17.5062 7.60487 17.3398 7.67425 17.1662 7.67475H16.1563V9.59878C16.1558 9.71362 16.1251 9.82631 16.0674 9.92561C16.0097 10.0249 15.927 10.1073 15.8275 10.1646C15.7279 10.2219 15.6151 10.2521 15.5003 10.2521C15.3854 10.2522 15.2726 10.2221 15.173 10.1648L10.8573 7.67494H7.66291C7.5767 7.67496 7.49132 7.658 7.41167 7.62502C7.33202 7.59204 7.25964 7.54369 7.19868 7.48273C7.13772 7.42177 7.08937 7.34939 7.05639 7.26974C7.02341 7.19008 7.00645 7.10471 7.00647 7.0185ZM14.3173 3.83747C14.3173 4.01152 14.3864 4.17844 14.5095 4.30151C14.6326 4.42458 14.7995 4.49372 14.9735 4.49372H14.9923C15.1663 4.49372 15.3333 4.42458 15.4563 4.30151C15.5794 4.17844 15.6485 4.01152 15.6485 3.83747C15.6485 3.66342 15.5794 3.4965 15.4563 3.37343C15.3333 3.25036 15.1663 3.18122 14.9923 3.18122H14.9735C14.7995 3.18122 14.6326 3.25036 14.5095 3.37343C14.3864 3.4965 14.3173 3.66342 14.3173 3.83747ZM11.7475 3.83747C11.7479 4.01139 11.8172 4.17806 11.9402 4.30104C12.0632 4.42402 12.2298 4.4933 12.4038 4.49372H12.4225C12.5965 4.49372 12.7635 4.42458 12.8865 4.30151C13.0096 4.17844 13.0788 4.01152 13.0788 3.83747C13.0788 3.66342 13.0096 3.4965 12.8865 3.37343C12.7635 3.25036 12.5965 3.18122 12.4225 3.18122H12.4038C12.2298 3.18166 12.0632 3.25095 11.9402 3.37392C11.8172 3.4969 11.7479 3.66356 11.7475 3.83747ZM9.18035 3.83747C9.18015 4.01114 9.24887 4.17779 9.37144 4.30083C9.49401 4.42387 9.66039 4.49325 9.83406 4.49372H9.85281C10.0269 4.49372 10.1938 4.42458 10.3169 4.30151C10.4399 4.17844 10.5091 4.01152 10.5091 3.83747C10.5091 3.66342 10.4399 3.4965 10.3169 3.37343C10.1938 3.25036 10.0269 3.18122 9.85281 3.18122H9.83406C9.6604 3.18172 9.49403 3.2511 9.37147 3.37413C9.24891 3.49717 9.18017 3.66381 9.18035 3.83747ZM30.9321 31.7785C30.9321 32.4386 31.1279 33.0839 31.4946 33.6327C31.8613 34.1816 32.3826 34.6094 32.9924 34.862C33.6023 35.1146 34.2733 35.1807 34.9207 35.0519C35.5682 34.9231 36.1628 34.6053 36.6296 34.1385C37.0964 33.6717 37.4142 33.0771 37.543 32.4296C37.6718 31.7822 37.6057 31.1112 37.3531 30.5013C37.1005 29.8915 36.6727 29.3702 36.1238 29.0035C35.575 28.6368 34.9297 28.441 34.2696 28.441C33.385 28.4426 32.537 28.7948 31.9114 29.4203C31.2858 30.0459 30.9337 30.8939 30.9321 31.7785ZM10.4905 31.7785C10.4905 32.4386 10.6862 33.0839 11.053 33.6327C11.4197 34.1816 11.9409 34.6094 12.5508 34.862C13.1606 35.1146 13.8317 35.1807 14.4791 35.0519C15.1265 34.9231 15.7212 34.6053 16.188 34.1385C16.6547 33.6717 16.9726 33.0771 17.1014 32.4296C17.2302 31.7822 17.1641 31.1112 16.9114 30.5013C16.6588 29.8915 16.2311 29.3702 15.6822 29.0035C15.1334 28.6368 14.4881 28.441 13.828 28.441C12.9433 28.4426 12.0954 28.7948 11.4698 29.4203C10.8443 30.0459 10.4921 30.8939 10.4905 31.7785ZM39.4229 37.8403C38.4079 36.9247 37.0879 36.4206 35.721 36.4266H32.8218C31.7519 36.4227 30.7038 36.7301 29.8055 37.3115C30.0788 37.498 30.3381 37.7041 30.5816 37.9281C31.9236 39.1562 32.7235 40.8459 32.7235 42.6743V46.1875H40.3373C40.4236 46.1878 40.509 46.171 40.5887 46.1381C40.6685 46.1052 40.7409 46.0568 40.8019 45.9958C40.8629 45.9349 40.9112 45.8624 40.9441 45.7827C40.977 45.703 40.9938 45.6175 40.9936 45.5313V41.3057C40.9935 39.9557 40.3928 38.7281 39.4229 37.8403ZM17.517 37.9281C17.7604 37.7041 18.0198 37.498 18.2929 37.3115C17.3947 36.7301 16.3467 36.4227 15.2767 36.4266H12.3773C11.0104 36.4206 9.69037 36.9247 8.67541 37.8403C7.70547 38.7279 7.10481 39.9557 7.10481 41.3057V45.5312C7.10457 45.6174 7.12137 45.7029 7.15426 45.7826C7.18716 45.8623 7.23549 45.9348 7.29647 45.9958C7.35746 46.0568 7.4299 46.1051 7.50964 46.138C7.58937 46.1709 7.67481 46.1877 7.76106 46.1874H15.375V42.6743C15.375 40.8459 16.1749 39.1558 17.517 37.9281ZM29.6963 38.8954C28.5884 37.8931 27.1457 37.3413 25.6517 37.3485H22.4466C20.9526 37.3413 19.5098 37.8931 18.4019 38.8954C17.3442 39.8625 16.6875 41.2021 16.6875 42.6743V47.3438C16.6872 47.43 16.704 47.5154 16.7369 47.5952C16.7698 47.6749 16.8181 47.7474 16.8791 47.8083C16.9401 47.8693 17.0126 47.9177 17.0923 47.9506C17.172 47.9834 17.2575 48.0002 17.3437 48H30.754C30.928 48 31.095 47.9309 31.218 47.8078C31.3411 47.6847 31.4103 47.5178 31.4103 47.3438V42.6743C31.4104 41.2021 30.754 39.8625 29.6963 38.8954ZM20.3605 32.2011C20.3605 32.9306 20.5768 33.6438 20.9821 34.2504C21.3874 34.857 21.9635 35.3298 22.6375 35.609C23.3116 35.8882 24.0532 35.9613 24.7688 35.819C25.4843 35.6766 26.1416 35.3253 26.6575 34.8095C27.1734 34.2936 27.5247 33.6363 27.667 32.9208C27.8093 32.2052 27.7363 31.4635 27.4571 30.7895C27.1779 30.1155 26.7051 29.5394 26.0985 29.1341C25.4918 28.7288 24.7787 28.5124 24.0491 28.5125C23.0712 28.5138 22.1338 28.9029 21.4424 29.5943C20.7509 30.2858 20.3619 31.2232 20.3605 32.2011Z" fill="url(#paint0_linear_5615_80966)"/>
<defs>
<linearGradient id="paint0_linear_5615_80966" x1="7.00647" y1="24" x2="40.9935" y2="24" gradientUnits="userSpaceOnUse">
<stop stop-color="#0056E9"/>
<stop offset="0.033" stop-color="#005DE8"/>
<stop offset="0.191" stop-color="#007BE2"/>
<stop offset="0.359" stop-color="#0092DE"/>
<stop offset="0.539" stop-color="#00A2DA"/>
<stop offset="0.739" stop-color="#00ACD9"/>
<stop offset="1" stop-color="#00AFD8"/>
</linearGradient>
</defs>
</svg>
