<svg width="48" height="48" viewBox="0 0 48 48" fill="none" xmlns="http://www.w3.org/2000/svg">
<path fill-rule="evenodd" clip-rule="evenodd" d="M4.61339 0.0257631C9.69144 0.592757 16.4957 2.10807 21.3976 5.43561V40.5465C16.4957 37.219 9.69144 35.7038 4.61339 35.1367C2.07365 34.8533 0 32.7568 0 30.1714V4.42327C0 1.83776 2.07365 -0.257803 4.61339 0.0257631ZM30.1428 37.84C28.2659 38.5696 26.4657 39.4617 24.8675 40.5465V5.43561C29.7693 2.10807 36.5737 0.592757 41.6517 0.0257631C44.1915 -0.257803 46.2651 1.83776 46.2651 4.42327V26.0937C44.8482 25.4821 43.2835 25.1429 41.6386 25.1429C35.2507 25.1429 30.0723 30.2597 30.0723 36.5714C30.0723 37.0002 30.0961 37.4235 30.1428 37.84ZM7.20527 10.3165C6.25839 10.1716 5.37191 10.8126 5.22527 11.7483C5.07861 12.6839 5.72734 13.5598 6.67424 13.7047C9.5167 14.1397 12.6555 14.8587 15.567 15.9712C16.4607 16.3127 17.4653 15.8736 17.8109 14.9906C18.1565 14.1075 17.7122 13.1149 16.8185 12.7734C13.6128 11.5485 10.2189 10.7777 7.20527 10.3165ZM5.22527 20.8912C5.37191 19.9554 6.25839 19.3145 7.20527 19.4594C8.73142 19.6928 10.3506 20.0053 11.9907 20.4139C12.9197 20.6457 13.4829 21.5776 13.2485 22.4955C13.0141 23.4137 12.0709 23.9701 11.1419 23.7385C9.61881 23.3589 8.1067 23.0667 6.67424 22.8475C5.72734 22.7026 5.07861 21.8267 5.22527 20.8912ZM41.6386 31.4286C40.0415 31.4286 38.747 32.7077 38.747 34.2857C38.747 35.2325 37.9702 36 37.012 36C36.0539 36 35.2771 35.2325 35.2771 34.2857C35.2771 30.8142 38.1252 28 41.6386 28C45.1519 28 48 30.8142 48 34.2857C48 37.7573 45.1519 40.5714 41.6386 40.5714C40.6804 40.5714 39.9036 39.8039 39.9036 38.8571C39.9036 37.9104 40.6804 37.1429 41.6386 37.1429C43.2356 37.1429 44.5301 35.8638 44.5301 34.2857C44.5301 32.7077 43.2356 31.4286 41.6386 31.4286ZM41.6386 48C42.9162 48 43.9518 46.9767 43.9518 45.7143C43.9518 44.4519 42.9162 43.4286 41.6386 43.4286C40.3609 43.4286 39.3253 44.4519 39.3253 45.7143C39.3253 46.9767 40.3609 48 41.6386 48Z" fill="url(#paint0_linear_5615_80972)"/>
<defs>
<linearGradient id="paint0_linear_5615_80972" x1="24" y1="3.13009e-06" x2="24" y2="48" gradientUnits="userSpaceOnUse">
<stop stop-color="#FD6700"/>
<stop offset="1" stop-color="#FFCE00"/>
</linearGradient>
</defs>
</svg>
