<svg width="16" height="16" viewBox="0 0 16 16" fill="none" xmlns="http://www.w3.org/2000/svg">
<g clip-path="url(#clip0_5381_71881)">
<mask id="mask0_5381_71881" style="mask-type:luminance" maskUnits="userSpaceOnUse" x="0" y="0" width="16" height="16">
<path d="M0 9.53674e-07H16V16H0V9.53674e-07Z" fill="white"/>
</mask>
<g mask="url(#mask0_5381_71881)">
<path d="M7.99993 5.54167C6.64224 5.54167 5.54158 6.6423 5.54158 8.00002C5.54158 9.3577 6.64224 10.4583 7.99993 10.4583C9.35761 10.4583 10.4583 9.3577 10.4583 8.00002C10.4583 6.6423 9.35761 5.54167 7.99993 5.54167ZM14.9 6.24573L14.2344 6.79367C13.4751 7.4187 13.4751 8.5813 14.2344 9.20633L14.9 9.75427C15.1359 9.94845 15.1968 10.2847 15.044 10.5493L13.7297 12.8257C13.577 13.0903 13.2553 13.2057 12.9692 13.0985L12.1619 12.796C11.241 12.451 10.2341 13.0323 10.0724 14.0024L9.93071 14.8528C9.88049 15.1541 9.61974 15.375 9.31424 15.375H6.68561C6.38011 15.375 6.11936 15.1541 6.06915 14.8528L5.9274 14.0024C5.76574 13.0323 4.7589 12.451 3.83799 12.796L3.03068 13.0985C2.74455 13.2057 2.4229 13.0903 2.27011 12.8257L0.955834 10.5493C0.803084 10.2847 0.86399 9.94845 1.09986 9.75427L1.76549 9.20633C2.52471 8.5813 2.52471 7.4187 1.76549 6.79367L1.09986 6.24573C0.86399 6.05155 0.803084 5.7153 0.955834 5.4507L2.27011 3.1743C2.4229 2.9097 2.74455 2.79433 3.03068 2.90152L3.83799 3.20395C4.7589 3.54895 5.76574 2.96767 5.9274 1.99764L6.06915 1.14723C6.11936 0.845891 6.38011 0.625016 6.68561 0.625016H9.31424C9.61974 0.625016 9.88049 0.845891 9.93071 1.14723L10.0724 1.99764C10.2341 2.96767 11.241 3.54895 12.1619 3.20395L12.9692 2.90152C13.2553 2.79433 13.577 2.9097 13.7297 3.1743L15.044 5.4507C15.1968 5.7153 15.1359 6.05155 14.9 6.24573Z" stroke="#333333" stroke-miterlimit="10" stroke-linecap="round" stroke-linejoin="round"/>
</g>
</g>
<defs>
<clipPath id="clip0_5381_71881">
<rect width="16" height="16" fill="white"/>
</clipPath>
</defs>
</svg>
