<svg width="16" height="16" viewBox="0 0 16 16" fill="none" xmlns="http://www.w3.org/2000/svg">
<path d="M15.3906 1.59199C15.1967 1.39613 14.9673 1.24293 14.7159 1.14143C14.4645 1.03994 14.1963 0.992198 13.927 1.00104C11.627 1.08097 9.75533 1.60456 8.36033 2.55818C8.25307 2.63148 8.12775 2.6705 7.99967 2.6705C7.87158 2.6705 7.74627 2.63148 7.639 2.55818C6.24501 1.60491 4.37235 1.08132 2.07236 1.00139C1.80306 0.992038 1.53472 1.03954 1.28332 1.14107C1.03192 1.24259 0.802607 1.39606 0.609035 1.59234C0.415669 1.78689 0.262 2.02049 0.157324 2.27902C0.0526483 2.53755 -0.000859541 2.81562 3.78296e-05 3.09643V12.1904C-0.00315946 12.7332 0.196427 13.2557 0.55617 13.6464C0.915912 14.0372 1.40729 14.2651 1.92536 14.2816C3.95869 14.3514 5.65068 14.8227 6.95567 15.6859C7.26885 15.8911 7.63086 16 8.00033 16C8.3698 16 8.73181 15.8911 9.04499 15.6859C10.3493 14.8227 12.0416 14.3504 14.0746 14.2816C14.5927 14.2651 15.0841 14.0372 15.4438 13.6464C15.8036 13.2557 16.0032 12.7332 16 12.1904V3.09643C16.0009 2.81554 15.9473 2.53738 15.8426 2.27879C15.7379 2.0202 15.5841 1.78655 15.3906 1.59199ZM1.96836 12.8857C1.79756 12.8772 1.6364 12.8003 1.51822 12.6709C1.40003 12.5415 1.33386 12.3695 1.33336 12.1904V3.09643C1.33317 3.00283 1.35108 2.91016 1.38603 2.82401C1.42098 2.73786 1.47223 2.66002 1.5367 2.59518C1.66229 2.46716 1.83076 2.39574 2.00603 2.39622H2.02869C4.08069 2.46603 5.72301 2.91527 6.91 3.72648C7.04246 3.81522 7.18458 3.88705 7.33334 3.94045V14.3036C5.68169 13.3813 3.84017 12.8946 1.96836 12.8857ZM14.6666 12.1904C14.6662 12.3692 14.6002 12.541 14.4824 12.6703C14.3646 12.7997 14.2038 12.8768 14.0333 12.8857C12.1609 12.8942 10.3187 13.381 8.66666 14.304V3.9408C8.81536 3.88726 8.95746 3.81543 9.08999 3.72682C10.277 2.91562 11.9193 2.46778 13.971 2.39657C14.0617 2.39212 14.1523 2.40748 14.2371 2.44167C14.3218 2.47586 14.3989 2.52814 14.4633 2.59518C14.5278 2.66002 14.579 2.73786 14.614 2.82401C14.6489 2.91016 14.6668 3.00283 14.6666 3.09643V12.1904Z" fill="#333333"/>
</svg>
