<svg width="16" height="16" viewBox="0 0 16 16" fill="none" xmlns="http://www.w3.org/2000/svg">
<path d="M13.6562 8.37975H12.0901C11.8769 8.37975 11.6705 8.40887 11.4741 8.46244C11.0867 7.70081 10.2957 7.1775 9.38422 7.1775H6.61578C5.70431 7.1775 4.91331 7.70081 4.52588 8.46244C4.32947 8.40887 4.12309 8.37975 3.90994 8.37975H2.34375C1.05141 8.37975 0 9.43115 0 10.7235V13.2272C0 14.0026 0.630844 14.6334 1.40625 14.6334H14.5938C15.3692 14.6334 16 14.0026 16 13.2272V10.7235C16 9.43115 14.9486 8.37975 13.6562 8.37975ZM4.27203 9.52131V13.696H1.40625C1.14778 13.696 0.9375 13.4857 0.9375 13.2272V10.7235C0.9375 9.94812 1.56834 9.31728 2.34375 9.31728H3.90994C4.03719 9.31728 4.16041 9.33456 4.27772 9.3664C4.27434 9.41769 4.27203 9.46925 4.27203 9.52131ZM10.7905 13.696H5.20953V9.52128C5.20953 8.74587 5.84037 8.11503 6.61578 8.11503H9.38422C10.1596 8.11503 10.7905 8.74587 10.7905 9.52128V13.696ZM15.0625 13.2272C15.0625 13.4857 14.8522 13.696 14.5938 13.696H11.728V9.52128C11.728 9.46919 11.7257 9.41762 11.7223 9.36637C11.8396 9.33456 11.9628 9.31725 12.0901 9.31725H13.6562C14.4317 9.31725 15.0625 9.94809 15.0625 10.7235V13.2272Z" fill="#333333"/>
<path d="M3.12688 3.95325C1.97847 3.95325 1.04419 4.88753 1.04419 6.03593C1.04416 7.18434 1.97847 8.11862 3.12688 8.11862C4.27525 8.11862 5.20956 7.18434 5.20956 6.03593C5.20956 4.88753 4.27528 3.95325 3.12688 3.95325ZM3.12685 7.18112C2.49538 7.18112 1.98166 6.6674 1.98166 6.03593C1.98166 5.40447 2.49538 4.89075 3.12685 4.89075C3.75831 4.89075 4.27203 5.40447 4.27203 6.03593C4.27203 6.6674 3.75831 7.18112 3.12685 7.18112Z" fill="#333333"/>
<path d="M7.99997 1.36653C6.46572 1.36653 5.21753 2.61472 5.21753 4.14897C5.21753 5.68322 6.46572 6.93141 7.99997 6.93141C9.53422 6.93141 10.7824 5.68322 10.7824 4.14897C10.7824 2.61475 9.53422 1.36653 7.99997 1.36653ZM7.99997 5.99391C6.98265 5.99391 6.15503 5.16628 6.15503 4.14897C6.15503 3.13169 6.98265 2.30403 7.99997 2.30403C9.01728 2.30403 9.8449 3.13166 9.8449 4.14897C9.8449 5.16628 9.01728 5.99391 7.99997 5.99391Z" fill="#333333"/>
<path d="M12.8732 3.95325C11.7248 3.95325 10.7905 4.88753 10.7905 6.03593C10.7906 7.18434 11.7248 8.11862 12.8732 8.11862C14.0216 8.11862 14.9559 7.18434 14.9559 6.03593C14.9559 4.88753 14.0216 3.95325 12.8732 3.95325ZM12.8732 7.18112C12.2418 7.18112 11.728 6.6674 11.728 6.03593C11.7281 5.40447 12.2418 4.89075 12.8732 4.89075C13.5047 4.89075 14.0184 5.40447 14.0184 6.03593C14.0184 6.6674 13.5047 7.18112 12.8732 7.18112Z" fill="#333333"/>
</svg>
