<svg width="100" height="100" viewBox="0 0 100 100" fill="none" xmlns="http://www.w3.org/2000/svg">
<path d="M96.7743 63.9345H90.3226C89.2517 63.9345 88.2516 63.3951 87.6516 62.4935C87.0516 61.5935 86.9307 60.4476 87.3274 59.4377L90.3226 51.8279V27.8689C90.3226 26.059 91.7678 24.5902 93.5485 24.5902C95.3291 24.5902 96.7743 26.059 96.7743 27.8689V51.8279L99.7695 59.4394C100.166 60.4492 100.045 61.5935 99.4453 62.4951C98.8453 63.3951 97.8453 63.9345 96.7743 63.9345Z" fill="url(#paint0_linear_5381_73520)"/>
<path d="M96.7748 27.8689C96.7748 29.082 96.1135 30.1803 95.0651 30.7541L49.9035 55.3443C49.4358 55.6066 48.9035 55.7377 48.3874 55.7377C47.8713 55.7377 47.339 55.6066 46.8713 55.3443L1.70969 30.7541C0.661294 30.1803 0 29.082 0 27.8689C0 26.6557 0.661294 25.5574 1.70969 24.9836L46.8713 0.393443C47.8229 -0.131148 48.9519 -0.131148 49.9035 0.393443L95.0651 24.9836C96.1135 25.5574 96.7748 26.6557 96.7748 27.8689Z" fill="url(#paint1_linear_5381_73520)"/>
<path d="M74.1938 34.4263V57.3771C74.1938 59.1804 72.7422 60.6558 70.968 60.6558C70.4357 60.6558 69.9357 60.5246 69.5002 60.2951C70.4518 59.3771 70.968 58.3935 70.968 57.3771C70.968 52.8525 60.855 49.1804 48.3872 49.1804C35.9194 49.1804 25.8064 52.8525 25.8064 57.3771C25.8064 58.4099 26.3387 59.3935 27.2903 60.2951C26.8387 60.5574 26.3387 60.6886 25.8064 60.6886C24.0161 60.6886 22.5806 59.1804 22.5806 57.3771V34.4263C22.5806 26.541 35.9516 22.9509 48.3872 22.9509C60.8227 22.9509 74.1938 26.541 74.1938 34.4263Z" fill="url(#paint2_linear_5381_73520)"/>
<path d="M48.3874 65.5738C60.8584 65.5738 70.9682 61.904 70.9682 57.3771C70.9682 52.8501 60.8584 49.1803 48.3874 49.1803C35.9164 49.1803 25.8066 52.8501 25.8066 57.3771C25.8066 61.904 35.9164 65.5738 48.3874 65.5738Z" fill="#111216"/>
<path d="M48.3872 68.8525C35.9581 68.8525 22.5806 65.2623 22.5806 57.3771C22.5806 49.4918 35.9581 45.9016 48.3872 45.9016C60.8163 45.9016 74.1938 49.4918 74.1938 57.3771C74.1938 65.2623 60.8163 68.8525 48.3872 68.8525ZM48.3872 52.459C35.9871 52.459 29.4274 56.0656 29.0258 57.4361C29.4274 58.6885 35.9871 62.2951 48.3872 62.2951C60.6131 62.2951 67.1631 58.7885 67.7276 57.3771C67.1631 55.9656 60.6131 52.459 48.3872 52.459Z" fill="#212335"/>
<path d="M74.71 97.1967C74.3713 98.8852 72.8068 100.016 71.1455 99.8033C56.0486 97.8525 40.726 97.8525 25.6291 99.8033L25.4355 99.8361C25.4355 99.8361 25.4355 99.8361 25.4194 99.8361C24.871 100 24.4194 100 24.1936 100C18.6774 100 14.5161 93.6557 14.5161 85.2459C14.5161 76.8361 18.6774 70.4918 24.1936 70.4918C24.3226 70.4918 24.4678 70.5082 24.5968 70.5246L25.3871 70.6229C40.6453 72.6229 56.1131 72.6229 71.3713 70.6229C73.0971 70.3934 74.6778 71.5902 74.9681 73.3115C75.2584 75.0492 74.1455 76.7049 72.452 77.082C71.3713 77.3115 69.3552 80.3279 69.3552 85.2459C69.3552 90.0984 71.3068 93.082 72.4036 93.3934C74.0487 93.8525 75.0487 95.5246 74.71 97.1967Z" fill="url(#paint3_linear_5381_73520)"/>
<path d="M53.0164 72.0656C50.668 72.1312 48.3212 72.1443 45.9728 72.1148C44.7647 72.1 43.6486 72.7607 43.0776 73.8426C41.3341 77.1426 40.3228 81.0656 40.3228 85.2459C40.3228 89.4246 41.3228 93.3344 43.0599 96.6312C43.6308 97.7148 44.747 98.3754 45.9567 98.3607C48.2938 98.3312 50.6357 98.341 52.968 98.3935C49.2906 95.9672 46.7744 90.9836 46.7744 85.2459C46.7744 79.4918 49.3228 74.4754 53.0164 72.0656Z" fill="url(#paint4_linear_5381_73520)"/>
<path d="M72.5815 96.7213C76.1447 96.7213 79.0332 91.5836 79.0332 85.2459C79.0332 78.9082 76.1447 73.7705 72.5815 73.7705C69.0184 73.7705 66.1299 78.9082 66.1299 85.2459C66.1299 91.5836 69.0184 96.7213 72.5815 96.7213Z" fill="#FEAC00"/>
<path d="M72.5808 100C67.063 100 62.9033 93.6574 62.9033 85.2459C62.9033 76.8344 67.063 70.4918 72.5808 70.4918C78.0986 70.4918 82.2583 76.8344 82.2583 85.2459C82.2583 93.6574 78.0986 100 72.5808 100ZM72.5808 77.0492C71.6453 77.0492 69.355 79.9213 69.355 85.2459C69.355 90.5705 71.6453 93.4426 72.5808 93.4426C73.5163 93.4426 75.8066 90.5705 75.8066 85.2459C75.8066 79.9213 73.5163 77.0492 72.5808 77.0492Z" fill="url(#paint5_linear_5381_73520)"/>
<defs>
<linearGradient id="paint0_linear_5381_73520" x1="93.5485" y1="24.5902" x2="93.5485" y2="63.9345" gradientUnits="userSpaceOnUse">
<stop stop-color="#FEF156"/>
<stop offset="0.4469" stop-color="#FFC242"/>
<stop offset="1" stop-color="#FC753F"/>
</linearGradient>
<linearGradient id="paint1_linear_5381_73520" x1="48.3874" y1="0" x2="48.3874" y2="55.7377" gradientUnits="userSpaceOnUse">
<stop stop-color="#4D5460"/>
<stop offset="0.4005" stop-color="#384051"/>
<stop offset="0.7469" stop-color="#282C3E"/>
<stop offset="1" stop-color="#212335"/>
</linearGradient>
<linearGradient id="paint2_linear_5381_73520" x1="48.3872" y1="60.6886" x2="48.3872" y2="22.9509" gradientUnits="userSpaceOnUse">
<stop stop-color="#4D5460"/>
<stop offset="0.3678" stop-color="#384051"/>
<stop offset="1" stop-color="#212335"/>
</linearGradient>
<linearGradient id="paint3_linear_5381_73520" x1="44.7647" y1="70.4918" x2="44.7647" y2="100" gradientUnits="userSpaceOnUse">
<stop stop-color="#FEF156"/>
<stop offset="0.4469" stop-color="#FFC242"/>
<stop offset="1" stop-color="#FC753F"/>
</linearGradient>
<linearGradient id="paint4_linear_5381_73520" x1="46.6696" y1="72.0656" x2="46.6696" y2="98.3935" gradientUnits="userSpaceOnUse">
<stop stop-color="#FD77A6"/>
<stop offset="0.4469" stop-color="#FE3D97"/>
<stop offset="1" stop-color="#E51E82"/>
</linearGradient>
<linearGradient id="paint5_linear_5381_73520" x1="72.5808" y1="70.4918" x2="72.5808" y2="100" gradientUnits="userSpaceOnUse">
<stop stop-color="#FFFBB3"/>
<stop offset="0.4469" stop-color="#FEF156"/>
<stop offset="1" stop-color="#FFC242"/>
</linearGradient>
</defs>
</svg>
