<svg width="16" height="16" viewBox="0 0 16 16" fill="none" xmlns="http://www.w3.org/2000/svg">
<path d="M5.37356 5.79771C5.20574 5.59047 4.90129 5.55772 4.69259 5.72416L4.13964 6.16923L4.07509 6.08762C3.91104 5.8777 3.60659 5.83905 3.39574 6.00548C3.18488 6.1703 3.14831 6.47364 3.31344 6.68356L3.68082 7.15117C3.76043 7.25318 3.87769 7.31922 4.00624 7.33371C4.02453 7.33586 4.04282 7.33693 4.06164 7.33693C4.17137 7.33693 4.27895 7.29935 4.36502 7.2301L5.29987 6.47847C5.50857 6.30989 5.54138 6.00548 5.37356 5.79771Z" fill="#333333"/>
<path d="M6.69467 5.99371C6.42734 5.99371 6.21057 6.21008 6.21057 6.4769C6.21057 6.74373 6.42734 6.96009 6.69467 6.96009H9.55948C9.82681 6.96009 10.0436 6.74373 10.0436 6.4769C10.0436 6.21008 9.82681 5.99371 9.55948 5.99371H6.69467Z" fill="#333333"/>
<path d="M4.69314 8.77097L4.14019 9.2155L4.07564 9.1339C3.91158 8.92398 3.60714 8.88532 3.39629 9.05176C3.18543 9.21658 3.14886 9.51991 3.31399 9.72983L3.68137 10.1975C3.76098 10.2995 3.87824 10.3655 4.00679 10.38C4.02508 10.3821 4.04337 10.3832 4.06219 10.3832C4.17192 10.3832 4.2795 10.3456 4.36556 10.2764L5.30042 9.52474C5.50912 9.3567 5.54139 9.05283 5.37411 8.84506C5.20629 8.63729 4.9013 8.604 4.69314 8.77097Z" fill="#333333"/>
<path d="M9.0834 9.52311C9.0834 9.25628 8.86663 9.03992 8.59929 9.03992H6.69516C6.42783 9.03992 6.21106 9.25628 6.21106 9.52311C6.21106 9.78993 6.42783 10.0063 6.69516 10.0063H8.59929C8.86609 10.0063 9.0834 9.78993 9.0834 9.52311Z" fill="#333333"/>
<path d="M7.42672 2.9802C8.13942 2.9802 8.75746 2.47285 8.89462 1.77438L8.96992 1.39212C9.01833 1.14569 9.23618 0.966915 9.48791 0.966915H10.0753C10.7423 0.966915 11.285 1.50862 11.285 2.17489V6.60949C11.285 6.87632 11.5018 7.09268 11.7691 7.09268C12.0364 7.09268 12.2532 6.87632 12.2532 6.60949V2.17489C12.2532 0.976042 11.2759 0 10.0748 0H3.17899C1.97788 0 1 0.975505 1 2.17489V13.8251C1 15.024 1.97735 16 3.17899 16H5.31926C5.58659 16 5.80336 15.7836 5.80336 15.5168C5.80336 15.25 5.58659 15.0336 5.31926 15.0336H3.17899C2.51147 15.0336 1.96874 14.4919 1.96874 13.8256V2.17489C1.96874 1.50862 2.51147 0.966915 3.17899 0.966915H3.76583C4.01757 0.966915 4.23541 1.14569 4.28436 1.39266L4.35966 1.77384C4.49683 2.47285 5.11379 2.9802 5.82757 2.9802H7.42672ZM5.30904 1.58808L5.23374 1.20636C5.2176 1.12368 5.19339 1.04423 5.16435 0.967452H8.0894C8.06035 1.04423 8.03615 1.12368 8.02001 1.20636L7.9447 1.58808C7.89629 1.83504 7.67791 2.01382 7.42672 2.01382H5.82703C5.5753 2.01382 5.35745 1.83504 5.30904 1.58808Z" fill="#333333"/>
<path d="M14.4731 8.49017C13.7711 7.78954 12.6276 7.78847 11.924 8.49017L7.47297 12.9328C7.33205 13.074 7.24007 13.2517 7.20672 13.4477L6.96359 14.8881C6.91195 15.1915 7.01146 15.5028 7.22985 15.7203C7.41004 15.9001 7.65371 15.9995 7.90436 15.9995C7.95761 15.9995 8.01033 15.9952 8.06304 15.9866L9.5062 15.7434C9.70307 15.7101 9.88165 15.6188 10.0226 15.4782L14.4736 11.0355C15.1756 10.3333 15.1756 9.19186 14.4731 8.49017ZM9.34483 14.7893L7.91835 15.0487L8.15771 13.6163L11.3608 10.4192L12.5404 11.5971L9.34483 14.7893ZM13.7883 10.351L13.2252 10.9131L12.0456 9.73572L12.6088 9.17361C12.7712 9.01094 12.9847 8.92987 13.1983 8.92987C13.4118 8.92987 13.6259 9.01094 13.7883 9.17361C14.1132 9.49842 14.1132 10.0262 13.7883 10.351Z" fill="#333333"/>
</svg>
