<svg width="60" height="60" viewBox="0 0 60 60" fill="none" xmlns="http://www.w3.org/2000/svg">
<g clip-path="url(#clip0_29_356)">
<path d="M49.2009 24.6694V12.7968H34.4174V24.6694C28.0545 27.5025 23.6183 33.8805 23.6183 41.2949C23.6183 51.3414 31.7624 59.4855 41.8089 59.4855C51.8554 59.4855 60 51.3414 60 41.2949C60 33.8805 55.5633 27.5025 49.2009 24.6694Z" fill="#C9FFF7"/>
<path d="M56.3186 41.2953C56.3186 49.2961 49.8102 55.8041 41.8084 55.8041C39.1763 55.8041 36.7062 55.1001 34.5762 53.8691C30.2298 51.361 27.2996 46.6639 27.2996 41.2953C27.2996 37.2816 28.9622 33.5257 31.7573 30.8345H51.8605C54.656 33.5257 56.3186 37.2816 56.3186 41.2953Z" fill="#F7D360"/>
<path d="M37.7408 24.6698V21.384C37.7408 19.6037 39.1836 18.1609 40.9634 18.1609H49.2009V14.6374L46.2694 11.9696L43.5086 11.2335L34.4179 14.637V24.6698C28.054 27.5029 23.6183 33.88 23.6183 41.2953C23.6183 51.2984 31.6923 59.4154 41.6807 59.4841C36.2105 59.3577 31.7981 51.2626 31.7981 41.2953C31.7981 33.88 34.2398 27.5029 37.7408 24.6698Z" fill="#72CEC0"/>
<path d="M34.5762 53.8691C30.2298 51.361 27.2996 46.6639 27.2996 41.2953C27.2996 37.2816 28.9622 33.5257 31.7573 30.8345H33.6191C32.4714 33.793 31.7981 37.4006 31.7981 41.2953C31.7981 46.1728 32.8546 50.6016 34.5762 53.8691Z" fill="#E58E13"/>
<path d="M35.5691 51.5753L23.7556 31.1137V20.527H12.5285V31.1137L0.715026 51.5753C-1.3147 55.0909 1.22223 59.4855 5.28213 59.4855H31.0025C35.0619 59.4855 37.5993 55.0909 35.5691 51.5753Z" fill="#E6E6E6"/>
<path d="M23.7554 20.5271L20.3181 18.5958L13.7304 18.6644L12.5279 20.5271V31.1133L0.714828 51.5758C-1.31627 55.0914 1.22157 59.4855 5.28056 59.4855H12.3022C10.4588 59.4855 9.30659 55.0914 10.2281 51.5758L15.5931 31.1133V25.6783C15.5931 24.5613 16.4985 23.6563 17.6155 23.6563H23.7554V20.5271Z" fill="#CCCCCC"/>
<path d="M27.8261 18.1343C27.8261 19.4559 26.7549 20.527 25.4333 20.527H10.8504C10.1903 20.527 9.59152 20.2597 9.15847 19.8262C8.72543 19.3932 8.45764 18.7944 8.45764 18.1343C8.45764 16.8127 9.5288 15.7416 10.8504 15.7416H25.4333C26.0934 15.7416 26.6922 16.0089 27.1252 16.442C27.5583 16.8755 27.8261 17.4742 27.8261 18.1343Z" fill="#CCCCCC"/>
<path d="M27.8261 18.1343C27.8261 19.4559 26.7549 20.527 25.4333 20.527H16.6534C15.992 20.527 15.3946 20.2597 14.9611 19.8262C14.528 19.3932 14.2607 18.7944 14.2607 18.1343C14.2607 16.8127 15.3319 15.7416 16.6534 15.7416H25.4333C26.0934 15.7416 26.6922 16.0089 27.1252 16.442C27.5583 16.8755 27.8261 17.4742 27.8261 18.1343Z" fill="#E6E6E6"/>
<path d="M53.3221 12.2443C53.3221 13.5659 52.251 14.637 50.9294 14.637H32.8903C32.2288 14.637 31.631 14.3697 31.198 13.9366C30.7649 13.5031 30.4971 12.9044 30.4971 12.2443C30.4971 10.9227 31.5687 9.85156 32.8903 9.85156H50.9294C51.5895 9.85156 52.1882 10.1189 52.6213 10.5524C53.0548 10.9854 53.3221 11.5842 53.3221 12.2443Z" fill="#72CEC0"/>
<path d="M53.3221 12.2443C53.3221 13.5659 52.251 14.637 50.9294 14.637H38.4819C37.8218 14.637 37.223 14.3697 36.7895 13.9366C36.3565 13.5031 36.0892 12.9044 36.0892 12.2443C36.0892 10.9227 37.1603 9.85156 38.4819 9.85156H50.9294C51.5895 9.85156 52.1882 10.1189 52.6213 10.5524C53.0548 10.9854 53.3221 11.5842 53.3221 12.2443Z" fill="#C9FFF7"/>
<path d="M32.3808 55.0081C32.2092 55.3061 31.8017 55.8041 31.0029 55.8041H5.28213C4.48196 55.8041 4.07455 55.3061 3.90289 55.0081C3.73123 54.711 3.50281 54.1086 3.90289 53.4164L12.5844 38.3798H23.7007L32.3808 53.4164C32.7809 54.1086 32.5525 54.711 32.3808 55.0081Z" fill="#FC5F61"/>
<path d="M10.2283 51.5758C9.86663 52.9564 9.82452 54.4716 10.0186 55.8041H5.28213C4.48196 55.8041 4.07455 55.3061 3.90289 55.0081C3.73123 54.711 3.50281 54.1086 3.90289 53.4164L12.5844 38.3798H13.6876L10.2283 51.5758Z" fill="#E83842"/>
<path d="M20.121 48.8709C19.2851 48.8709 18.8873 47.7965 19.5241 47.2513C20.1572 46.7093 21.151 47.2623 21.0315 48.0863C20.9669 48.5321 20.5705 48.8709 20.121 48.8709Z" fill="#E83842"/>
<path d="M16.062 11.1411C15.2586 11.1411 14.8457 10.1367 15.4115 9.56911C15.7173 9.26287 16.2131 9.21526 16.5724 9.45513C16.8874 9.66478 17.0444 10.0594 16.9578 10.4279C16.8617 10.8394 16.4854 11.1411 16.062 11.1411Z" fill="#E83842"/>
<path d="M19.7246 7.6438C18.8919 7.6438 18.4849 6.56531 19.1267 6.02331C19.4321 5.76514 19.8775 5.73218 20.2167 5.94595C20.5426 6.15149 20.7088 6.55524 20.6209 6.93106C20.5247 7.34167 20.1485 7.6438 19.7246 7.6438Z" fill="#E83842"/>
<path d="M17.7296 2.30626C17.3277 2.30626 16.9661 2.03617 16.8484 1.65303C16.7317 1.27079 16.8855 0.84187 17.2179 0.620312C17.9008 0.16438 18.8251 0.808911 18.6214 1.60954C18.5184 2.01329 18.1471 2.30626 17.7296 2.30626Z" fill="#E83842"/>
<path d="M49.8898 36.5405C49.0718 36.5405 48.6639 35.4959 49.2673 34.942C49.8454 34.4115 50.8104 34.8349 50.8104 35.62C50.8104 36.1203 50.3911 36.5405 49.8898 36.5405Z" fill="white"/>
<path d="M50.5307 42.6782C49.7291 42.6782 49.3089 41.6734 49.8802 41.1076C50.1658 40.8247 50.6099 40.7593 50.9646 40.9474C51.3048 41.1282 51.4961 41.5132 51.4412 41.8936C51.3762 42.3399 50.9798 42.6782 50.5307 42.6782Z" fill="white"/>
<path d="M38.5272 49.6074C38.1335 49.6074 37.7774 49.3487 37.6538 48.9756C37.5229 48.582 37.6817 48.1352 38.031 47.9118C38.724 47.4682 39.6341 48.1352 39.4139 48.9312C39.3054 49.3249 38.9364 49.6074 38.5272 49.6074Z" fill="white"/>
<path d="M34.2938 41.8767C33.462 41.8767 33.0583 40.8041 33.6923 40.2608C33.9967 39.9994 34.4426 39.9669 34.7827 40.1779C35.1054 40.3789 35.273 40.7739 35.1942 41.1461C35.1054 41.5663 34.7241 41.8767 34.2938 41.8767Z" fill="white"/>
<path d="M45.5205 39.668C44.6979 39.668 44.2904 38.6174 44.9029 38.0667C45.2083 37.7921 45.6651 37.7536 46.013 37.9711C46.3312 38.1706 46.4964 38.5597 46.4236 38.9282C46.3394 39.353 45.953 39.668 45.5205 39.668Z" fill="white"/>
<path d="M13.6803 50.777C13.3108 50.777 12.9716 50.549 12.8297 50.2089C12.6741 49.8345 12.7904 49.3845 13.1099 49.1341C13.7659 48.6209 14.751 49.2124 14.5821 50.0368C14.4951 50.4616 14.1151 50.777 13.6803 50.777Z" fill="#E83842"/>
<path d="M16.073 44.8219C15.688 44.8219 15.3364 44.5743 15.2064 44.2117C15.0682 43.8263 15.2096 43.3804 15.5466 43.147C16.2016 42.6933 17.1204 43.2687 16.9789 44.0593C16.9011 44.4942 16.5161 44.8219 16.073 44.8219Z" fill="#E83842"/>
</g>
<defs>
<clipPath id="clip0_29_356">
<rect width="60" height="60" fill="white"/>
</clipPath>
</defs>
</svg>
