<svg width="60" height="60" viewBox="0 0 60 60" fill="none" xmlns="http://www.w3.org/2000/svg">
<path d="M24.375 45C32.1415 45 38.4375 38.704 38.4375 30.9375C38.4375 23.171 32.1415 16.875 24.375 16.875C16.6085 16.875 10.3125 23.171 10.3125 30.9375C10.3125 38.704 16.6085 45 24.375 45Z" fill="#A7325C"/>
<path d="M24.375 42.1875C30.5882 42.1875 35.625 37.1507 35.625 30.9375C35.625 24.7243 30.5882 19.6875 24.375 19.6875C18.1618 19.6875 13.125 24.7243 13.125 30.9375C13.125 37.1507 18.1618 42.1875 24.375 42.1875Z" fill="#FFC569"/>
<path d="M24.375 19.6875C22.6738 19.687 20.9948 20.0734 19.465 20.8175C17.9352 21.5615 16.5946 22.6437 15.5447 23.9822C17.7057 22.2752 20.4181 21.4211 23.1673 21.5819C25.9164 21.7426 28.5108 22.9072 30.4581 24.8544C32.4053 26.8017 33.5699 29.3961 33.7306 32.1452C33.8914 34.8944 33.0373 37.6068 31.3303 39.7678C33.169 38.3228 34.5113 36.3404 35.1702 34.0966C35.8291 31.8529 35.7719 29.4595 35.0065 27.2497C34.2411 25.04 32.8057 23.124 30.9001 21.7685C28.9944 20.413 26.7135 19.6856 24.375 19.6875Z" fill="#F06E7A"/>
<path d="M32.3297 38.8922C30.2141 40.9736 27.3618 42.1347 24.394 42.1226C21.4262 42.1105 18.5834 40.9262 16.4848 38.8276C14.3863 36.7291 13.202 33.8863 13.1899 30.9185C13.1778 27.9507 14.3389 25.0984 16.4203 22.9828L32.3297 38.8922Z" fill="#F06E7A"/>
<path d="M43.32 25.5507C43.0778 25.6069 42.8679 25.757 42.7364 25.968C42.6049 26.1789 42.5626 26.4335 42.6187 26.6757C43.3404 29.7028 43.2899 32.8627 42.4718 35.8652C41.6537 38.8677 40.0943 41.6165 37.9369 43.8591C37.7653 44.0391 37.6723 44.2799 37.6782 44.5285C37.6842 44.7771 37.7887 45.0132 37.9687 45.1847C38.1487 45.3563 38.3895 45.4493 38.6381 45.4433C38.8868 45.4374 39.1228 45.3329 39.2944 45.1528C42.9588 41.3279 45.0031 36.2346 45 30.9375C44.9942 29.3591 44.8083 27.7864 44.4459 26.25C44.3893 26.008 44.2389 25.7984 44.0277 25.6673C43.8166 25.5361 43.562 25.4942 43.32 25.5507Z" fill="#FFC569"/>
<path d="M14.8941 12.616C11.7718 14.2293 9.11402 16.6143 7.17335 19.5444C5.23268 22.4744 4.07361 25.8521 3.80633 29.3564C3.53905 32.8607 4.17243 36.3751 5.64626 39.5655C7.1201 42.756 9.38541 45.5166 12.2269 47.5847C12.4277 47.7293 12.6774 47.7886 12.9217 47.7497C13.166 47.7109 13.3851 47.5771 13.5312 47.3775C13.6772 47.1778 13.7385 46.9286 13.7016 46.6839C13.6647 46.4393 13.5326 46.2192 13.3341 46.0716C10.7511 44.1917 8.69189 41.6824 7.3521 38.7823C6.0123 35.8822 5.43646 32.6876 5.67931 29.5022C5.92217 26.3168 6.97565 23.2464 8.73962 20.583C10.5036 17.9195 12.9194 15.7514 15.7575 14.2847C15.8689 14.2293 15.9682 14.1522 16.0495 14.058C16.1308 13.9638 16.1925 13.8544 16.2311 13.7361C16.2697 13.6177 16.2843 13.4929 16.2742 13.3689C16.264 13.2449 16.2293 13.1241 16.172 13.0137C16.1146 12.9032 16.0359 12.8053 15.9403 12.7255C15.8448 12.6458 15.7343 12.5859 15.6154 12.5493C15.4964 12.5128 15.3714 12.5002 15.2476 12.5125C15.1237 12.5247 15.0035 12.5615 14.8941 12.6207V12.616Z" fill="#FFC569"/>
<path d="M23.8125 11.9999L27.5625 14.8124C27.661 14.8863 27.7731 14.9401 27.8923 14.9706C28.0116 15.0012 28.1357 15.0079 28.2576 14.9905C28.3795 14.9731 28.4967 14.9319 28.6027 14.8691C28.7086 14.8064 28.8011 14.7234 28.875 14.6249C28.9489 14.5265 29.0026 14.4144 29.0332 14.2951C29.0637 14.1758 29.0705 14.0517 29.0531 13.9299C29.0357 13.808 28.9944 13.6907 28.9317 13.5848C28.869 13.4789 28.786 13.3863 28.6875 13.3124L27.5625 12.4687C30.1649 12.9111 32.6434 13.9017 34.8338 15.3749C35.04 15.513 35.2926 15.5636 35.5361 15.5157C35.7797 15.4678 35.9943 15.3253 36.1329 15.1194C36.2715 14.9136 36.3228 14.6611 36.2756 14.4175C36.2284 14.1738 36.0864 13.9588 35.8809 13.8196C33.4402 12.1767 30.6739 11.0793 27.7706 10.6021L28.545 10.2149C28.6552 10.1599 28.7535 10.0837 28.8342 9.9907C28.9149 9.89769 28.9766 9.78969 29.0156 9.67286C29.0546 9.55604 29.0702 9.43267 29.0615 9.30981C29.0528 9.18695 29.02 9.067 28.965 8.95682C28.91 8.84663 28.8338 8.74836 28.7408 8.66762C28.6478 8.58688 28.5398 8.52525 28.4229 8.48625C28.3061 8.44725 28.1827 8.43164 28.0599 8.44032C27.937 8.44899 27.8171 8.48178 27.7069 8.53682L23.9569 10.4118C23.8128 10.4829 23.6895 10.5898 23.5986 10.7223C23.5078 10.8548 23.4525 11.0085 23.4381 11.1685C23.4237 11.3285 23.4507 11.4895 23.5164 11.6361C23.5821 11.7826 23.6844 11.9099 23.8135 12.0056L23.8125 11.9999Z" fill="#FFC569"/>
<path d="M19.2188 39.8682C19.0034 39.7438 18.7475 39.7101 18.5074 39.7745C18.2672 39.8388 18.0625 39.996 17.9381 40.2113L16.5478 42.6197C17.0699 42.9649 17.6146 43.2746 18.1781 43.5469L19.5619 41.1488C19.6862 40.9335 19.7199 40.6776 19.6555 40.4374C19.5912 40.1972 19.4341 39.9925 19.2188 39.8682Z" fill="#2070A1"/>
<path d="M15.4444 36.0937C15.3201 35.8784 15.1153 35.7213 14.8751 35.6569C14.635 35.5926 14.3791 35.6263 14.1637 35.7506L11.7656 37.1344C12.0379 37.6979 12.3477 38.2426 12.6928 38.7647L15.1012 37.3744C15.3166 37.25 15.4737 37.0453 15.538 36.8051C15.6024 36.5649 15.5687 36.309 15.4444 36.0937Z" fill="#2070A1"/>
<path d="M14.0625 30.9375C14.0625 30.6889 13.9637 30.4504 13.7879 30.2746C13.6121 30.0988 13.3736 30 13.125 30H10.3594C10.3397 30.3113 10.3125 30.6206 10.3125 30.9375C10.3125 31.2544 10.3397 31.5638 10.3594 31.875H13.125C13.3736 31.875 13.6121 31.7762 13.7879 31.6004C13.9637 31.4246 14.0625 31.1861 14.0625 30.9375Z" fill="#2070A1"/>
<path d="M14.6316 26.25C14.8379 26.25 15.0385 26.1819 15.2022 26.0563C15.366 25.9307 15.4837 25.7545 15.5371 25.5552C15.5905 25.3558 15.5766 25.1445 15.4977 24.9538C15.4187 24.7631 15.279 24.6039 15.1003 24.5007L12.6919 23.1104C12.3467 23.6325 12.037 24.1771 11.7647 24.7407L14.1628 26.1244C14.3053 26.2067 14.467 26.25 14.6316 26.25Z" fill="#2070A1"/>
<path d="M34.5863 35.7506C34.371 35.6282 34.1162 35.5959 33.8773 35.6608C33.6383 35.7257 33.4348 35.8824 33.311 36.0968C33.1872 36.3112 33.1533 36.5658 33.2165 36.8052C33.2798 37.0445 33.4352 37.2491 33.6488 37.3743L36.0572 38.7646C36.4023 38.2425 36.7121 37.6979 36.9844 37.1343L34.5863 35.7506Z" fill="#2070A1"/>
<path d="M18.75 22.1325C18.9145 22.1323 19.076 22.0889 19.2184 22.0065C19.3608 21.9242 19.479 21.8058 19.5612 21.6633C19.6434 21.5208 19.6866 21.3592 19.6865 21.1948C19.6865 21.0303 19.6432 20.8687 19.5609 20.7263L18.1781 18.3281C17.6146 18.6004 17.0699 18.9102 16.5478 19.2553L17.9381 21.6638C18.0204 21.8063 18.1388 21.9246 18.2813 22.0069C18.4238 22.0892 18.5854 22.1325 18.75 22.1325Z" fill="#2070A1"/>
<path d="M29.5313 39.8682C29.3159 39.9925 29.1588 40.1972 29.0945 40.4374C29.0301 40.6776 29.0638 40.9335 29.1881 41.1488L30.5719 43.5469C31.1354 43.2746 31.6801 42.9649 32.2022 42.6197L30.8119 40.2113C30.6876 39.996 30.4828 39.8388 30.2426 39.7745C30.0025 39.7101 29.7466 39.7438 29.5313 39.8682Z" fill="#2070A1"/>
<path d="M24.375 20.625C24.6236 20.625 24.8621 20.5262 25.0379 20.3504C25.2137 20.1746 25.3125 19.9361 25.3125 19.6875V16.9219C25.0013 16.9022 24.6919 16.875 24.375 16.875C24.0581 16.875 23.7488 16.9022 23.4375 16.9219V19.6875C23.4375 19.9361 23.5363 20.1746 23.7121 20.3504C23.8879 20.5262 24.1264 20.625 24.375 20.625Z" fill="#2070A1"/>
<path d="M25.3125 44.0625V42.1875C25.3125 41.9389 25.2137 41.7004 25.0379 41.5246C24.8621 41.3488 24.6236 41.25 24.375 41.25C24.1264 41.25 23.8879 41.3488 23.7121 41.5246C23.5363 41.7004 23.4375 41.9389 23.4375 42.1875V44.0625C23.4375 44.3111 23.5363 44.5496 23.7121 44.7254C23.8879 44.9012 24.1264 45 24.375 45C24.6236 45 24.8621 44.9012 25.0379 44.7254C25.2137 44.5496 25.3125 44.3111 25.3125 44.0625Z" fill="#2070A1"/>
<path d="M24.375 22.5C24.1264 22.5 23.8879 22.5988 23.7121 22.7746C23.5363 22.9504 23.4375 23.1889 23.4375 23.4375V30.6253L20.8125 34.125C20.6633 34.3239 20.5993 34.5739 20.6344 34.8201C20.6696 35.0662 20.8011 35.2883 21 35.4375C21.1989 35.5867 21.4489 35.6507 21.6951 35.6156C21.9412 35.5804 22.1633 35.4489 22.3125 35.25L25.125 31.5C25.2467 31.3377 25.3125 31.1403 25.3125 30.9375V23.4375C25.3125 23.1889 25.2137 22.9504 25.0379 22.7746C24.8621 22.5988 24.6236 22.5 24.375 22.5Z" fill="#80E1B8"/>
<path d="M23.4375 30V30.6253L20.8125 34.125C20.6633 34.3239 20.5993 34.5739 20.6344 34.8201C20.6696 35.0662 20.8011 35.2883 21 35.4375C21.1989 35.5867 21.4489 35.6507 21.6951 35.6156C21.9412 35.5804 22.1633 35.4489 22.3125 35.25L25.0444 31.6069L23.4375 30Z" fill="#3ABA80"/>
<path d="M42.2212 21.2353L47.3437 19.8628L57.1875 2.8125L48.45 6.02625C46.1245 6.88288 43.8966 7.98439 41.8041 9.31219L41.9119 12.3956L39.7266 10.7419C37.3983 12.4646 35.2931 14.4699 33.4594 16.7119L34.6631 21.2016L31.4906 19.3697C31.0556 20.0175 30.6356 20.6766 30.2437 21.3563C29.326 22.9703 29.084 24.8819 29.5705 26.6737C30.057 28.4656 31.2325 29.9923 32.8404 30.9207C34.4484 31.8491 36.3583 32.1038 38.1533 31.6292C39.9484 31.1546 41.4828 29.9893 42.4219 28.3875L44.8434 24.1922L42.2212 21.2353Z" fill="#92E5EB"/>
<path d="M57.0666 3.02161L47.9897 12.5007C45.6924 14.8996 43.6918 17.5659 42.0309 20.4422L39.6094 24.6375C39.1286 25.4695 38.4823 26.1941 37.7104 26.7663C36.9384 27.3386 36.0573 27.7464 35.1215 27.9646C34.1857 28.1828 33.2151 28.2067 32.2697 28.0348C31.3243 27.8629 30.4241 27.4989 29.625 26.9654C30.0295 28.2712 30.8063 29.4306 31.8601 30.3013C32.9139 31.1721 34.199 31.7164 35.5577 31.8674C36.9164 32.0184 38.2896 31.7695 39.5089 31.1514C40.7282 30.5333 41.7406 29.5727 42.4219 28.3875L44.8434 24.1922L42.2184 21.2354L47.3438 19.8629L57.0666 3.02161Z" fill="#68CBF2"/>
<path d="M54.9375 4.64442C54.8598 4.54894 54.764 4.4697 54.6556 4.41124C54.5472 4.35278 54.4284 4.31624 54.3059 4.3037C54.1834 4.29116 54.0597 4.30288 53.9417 4.33818C53.8238 4.37348 53.7139 4.43167 53.6184 4.50942C44.6911 11.7658 37.1683 20.5959 31.4222 30.5625L27.3806 37.5629C27.3181 37.6695 27.2773 37.7875 27.2605 37.91C27.2438 38.0325 27.2514 38.1571 27.283 38.2766C27.3146 38.3962 27.3696 38.5083 27.4447 38.6065C27.5198 38.7047 27.6136 38.7871 27.7206 38.8489C27.8277 38.9107 27.9459 38.9507 28.0686 38.9667C28.1912 38.9826 28.3157 38.9741 28.435 38.9417C28.5543 38.9094 28.6661 38.8537 28.7638 38.7779C28.8615 38.7022 28.9433 38.6078 29.0044 38.5004L33.0459 31.5C38.6783 21.7308 46.0521 13.0755 54.8025 5.96255C54.9951 5.80557 55.1174 5.57857 55.1428 5.33142C55.1681 5.08427 55.0942 4.83718 54.9375 4.64442Z" fill="#34B2E4"/>
<path d="M2.8125 53.4375V57.1875L26.25 54.7631V55.3125C26.25 55.8098 26.4475 56.2867 26.7992 56.6383C27.1508 56.9899 27.6277 57.1875 28.125 57.1875H30V48.9637C29.9999 48.8248 29.9689 48.6876 29.9092 48.5621C29.8496 48.4366 29.7628 48.3259 29.6551 48.2381C29.5475 48.1502 29.4216 48.0874 29.2867 48.0542C29.1518 48.0209 29.0111 48.0181 28.875 48.0459L2.8125 53.4375Z" fill="#80E1B8"/>
<path d="M30 48.9637V57.1875H31.875C32.3723 57.1875 32.8492 56.9899 33.2008 56.6383C33.5525 56.2867 33.75 55.8098 33.75 55.3125V54.7631L57.1875 57.1875V53.4375L31.125 48.0459C30.9889 48.0181 30.8482 48.0209 30.7133 48.0542C30.5784 48.0874 30.4525 48.1502 30.3449 48.2381C30.2372 48.3259 30.1504 48.4366 30.0908 48.5621C30.0311 48.6876 30.0001 48.8248 30 48.9637Z" fill="#80E1B8"/>
<path d="M2.8125 55.3126V57.1876L26.25 54.7632V55.3126C26.25 55.8098 26.4475 56.2868 26.7992 56.6384C27.1508 56.99 27.6277 57.1876 28.125 57.1876H30V54.2926C29.9993 53.7361 29.8747 53.1867 29.6354 52.6844C29.396 52.182 29.0479 51.7392 28.6161 51.3881C28.1844 51.037 27.68 50.7863 27.1394 50.6544C26.5988 50.5224 26.0356 50.5124 25.4906 50.6251L2.8125 55.3126Z" fill="#3ABA80"/>
<path d="M30 54.2926V57.1876H31.875C32.3723 57.1876 32.8492 56.99 33.2008 56.6384C33.5525 56.2868 33.75 55.8098 33.75 55.3126V54.7632L57.1875 57.1876V55.3126L34.5094 50.6251C33.9644 50.5124 33.4012 50.5224 32.8606 50.6544C32.32 50.7863 31.8156 51.037 31.3839 51.3881C30.9521 51.7392 30.604 52.182 30.3646 52.6844C30.1253 53.1867 30.0007 53.7361 30 54.2926Z" fill="#3ABA80"/>
<path d="M54.375 53.4375L30 48.75V47.0803C30.0001 46.5047 30.1326 45.9369 30.3874 45.4208C30.6421 44.9047 31.0123 44.4542 31.4691 44.1041C31.926 43.754 32.4573 43.5138 33.0219 43.4021C33.5865 43.2903 34.1692 43.31 34.725 43.4597L52.2937 48.1875C52.8915 48.3484 53.4195 48.7021 53.7958 49.1936C54.1721 49.6852 54.3757 50.2872 54.375 50.9062V53.4375Z" fill="#92E5EB"/>
<path d="M5.625 53.4375L30 48.75V47.0803C29.9999 46.5047 29.8674 45.9369 29.6126 45.4208C29.3579 44.9047 28.9877 44.4542 28.5309 44.1041C28.074 43.754 27.5427 43.5138 26.9781 43.4021C26.4135 43.2903 25.8308 43.31 25.275 43.4597L7.70625 48.1875C7.10849 48.3484 6.58054 48.7021 6.20424 49.1936C5.82795 49.6852 5.62435 50.2872 5.625 50.9062V53.4375Z" fill="#92E5EB"/>
<path d="M34.725 46.2722C33.7888 46.0212 32.7918 46.1425 31.9431 46.6105C31.0943 47.0786 30.4598 47.8571 30.1725 48.7828L54.3515 53.4375C54.2941 52.8712 54.0662 52.3356 53.698 51.9016C53.3297 51.4675 52.8384 51.1555 52.289 51.0066L34.725 46.2722Z" fill="#34B2E4"/>
<path d="M25.275 46.2722L7.70625 51C7.15676 51.1501 6.6658 51.4635 6.29834 51.8988C5.93089 52.3341 5.70425 52.8706 5.64844 53.4375L29.8275 48.7875C29.5412 47.8609 28.907 47.0813 28.0582 46.6123C27.2093 46.1433 26.2118 46.0214 25.275 46.2722Z" fill="#34B2E4"/>
</svg>
