<svg width="60" height="60" viewBox="0 0 60 60" fill="none" xmlns="http://www.w3.org/2000/svg">
<g clip-path="url(#clip0_30_473)">
<path d="M37.3255 52.2773L36.2004 47.7767L30 42.3441L23.7996 47.7767L22.8942 51.3984L22.6744 52.2773C22.6721 52.2864 22.6689 52.2949 22.6666 52.3039L33.5952 55.9256H40.8386V55.0202C39.1763 55.0202 37.7276 53.889 37.3255 52.2773Z" fill="#B0D0FF"/>
<path d="M33.7116 52.3038H22.6666C22.2551 53.9011 20.8144 55.0201 19.1613 55.0201V55.9256H37.2169V55.0201C35.5638 55.0201 34.1231 53.9011 33.7116 52.3038Z" fill="#C4E3FA"/>
<path d="M47.3239 56.831H12.6761C12.1759 56.831 11.7706 56.4256 11.7706 55.9256C11.7706 55.4255 12.1759 55.0201 12.6761 55.0201H47.3239C47.8241 55.0201 48.2294 55.4255 48.2294 55.9256C48.2294 56.4256 47.8241 56.831 47.3239 56.831Z" fill="#B0D0FF"/>
<path d="M52.7565 48.6822H56.3783C58.3702 48.6822 60 47.0524 60 45.0604V41.4387L52.7565 36.0061V48.6822Z" fill="#C4E3FA"/>
<path d="M0 41.4387V45.0604C0 47.0523 1.62978 48.6821 3.62173 48.6821H52.7565C54.7485 48.6821 56.3783 47.0523 56.3783 45.0604V25.1409L0 41.4387Z" fill="#E3F5FF"/>
<path d="M56.3783 3.16907H52.7565V37.817L56.3783 41.4387H60V6.7908C60 4.79885 58.3702 3.16907 56.3783 3.16907Z" fill="#384F63"/>
<path d="M56.3781 37.8155L28.1891 22.3032L56.3783 6.7908C56.3783 4.79885 54.7485 3.16907 52.7565 3.16907H3.62173C1.62978 3.16907 0 4.79885 0 6.7908V41.4387H56.3783L56.3781 37.8155Z" fill="#506480"/>
<path d="M56.3783 6.79379L52.7572 6.79077C52.7571 6.79162 28.1891 22.3038 28.1891 22.3038C28.1891 22.3038 52.7568 37.8166 52.7565 37.8169H56.3781C56.3782 37.8169 56.3779 6.79439 56.3783 6.79379Z" fill="#738CFF"/>
<path d="M52.7565 6.79407H3.63236L3.62173 37.817H52.7553C52.7559 37.817 52.7565 6.79407 52.7565 6.79407Z" fill="#8FAFFF"/>
<path d="M13.7022 28.7626H19.1348V34.1952H13.7022V28.7626Z" fill="#FFF7CC"/>
<path d="M22.7565 28.7626H28.1891V34.1952H22.7565V28.7626Z" fill="#FFD45E"/>
<path d="M31.8109 28.7626H37.2434V34.1952H31.8109V28.7626Z" fill="#FF7D4A"/>
<path d="M40.8652 28.7626H46.2978V34.1952H40.8652V28.7626Z" fill="#5E70F2"/>
</g>
<defs>
<clipPath id="clip0_30_473">
<rect width="60" height="60" fill="white"/>
</clipPath>
</defs>
</svg>
