<svg width="60" height="60" viewBox="0 0 60 60" fill="none" xmlns="http://www.w3.org/2000/svg">
<g clip-path="url(#clip0_30_560)">
<path d="M27.1693 52.5165C27.1693 51.4199 28.0146 50.5161 29.1073 50.4252C40.9721 49.4374 50.3252 39.4652 50.3252 27.3497C50.3252 15.2339 40.9719 5.26153 29.1068 4.274C28.0143 4.18306 27.1693 3.27953 27.1693 2.18329V0C34.2289 0 40.8802 2.65659 45.9814 7.49706C51.7266 12.9485 54.8391 20.664 54.4921 28.5764C54.192 35.4213 51.3839 41.8133 46.5083 46.6888C41.8769 51.3202 35.8769 54.0861 29.4202 54.6086C28.2054 54.7069 27.1693 53.7354 27.1693 52.5165Z" fill="url(#paint0_radial_30_560)"/>
<path d="M29.4204 54.6086C35.8771 54.0861 41.8769 51.3202 46.5085 46.6888C51.384 41.8133 54.1921 35.4211 54.4922 28.5763C54.4981 28.4423 54.5005 28.3084 54.5044 28.1745C54.2909 20.9764 51.2401 14.0896 45.9815 9.09984C41.43 4.78102 35.6446 2.20066 29.4361 1.69466C28.4991 1.61831 27.6671 2.17054 27.33 2.9849C27.6246 3.69254 28.2974 4.20666 29.1069 4.27407C40.972 5.2616 50.3253 15.234 50.3253 27.3497C50.3253 27.6181 50.3191 27.8849 50.31 28.1511C50.3191 28.4173 50.3253 28.6842 50.3253 28.9525C50.3253 41.0681 40.9722 51.0403 29.1074 52.0281C28.2974 52.0955 27.6242 52.6101 27.3297 53.3182C27.6646 54.1296 28.4889 54.684 29.4204 54.6086Z" fill="url(#paint1_linear_30_560)"/>
<path d="M28.9194 4.24958C28.9811 4.26017 29.0434 4.26887 29.1068 4.27405C30.5615 4.39511 31.9781 4.65205 33.3447 5.03064L28.9194 0.605225V4.24958Z" fill="url(#paint2_linear_30_560)"/>
<path d="M30.0055 7.33212H24.3331V2.83624C24.3331 1.26976 25.603 0 27.1693 0C28.7357 0 30.0055 1.26976 30.0055 2.83624V7.33212Z" fill="url(#paint3_linear_30_560)"/>
<path d="M24.3331 47.2834H30.0055V54.6156H24.3331V47.2834Z" fill="url(#paint4_linear_30_560)"/>
<path d="M30.0055 47.2834H24.3331V48.8532L30.0055 54.5257V47.2834Z" fill="url(#paint5_linear_30_560)"/>
<path d="M27.1693 49.0374C39.1471 49.0374 48.857 39.3275 48.857 27.3498C48.857 15.372 39.1471 5.66211 27.1693 5.66211C15.1915 5.66211 5.48166 15.372 5.48166 27.3498C5.48166 39.3275 15.1915 49.0374 27.1693 49.0374Z" fill="url(#paint6_linear_30_560)"/>
<path d="M42.4401 15.9425C41.6959 15.3958 40.9068 14.8945 40.0799 14.4391C39.6245 13.6122 39.1232 12.823 38.5765 12.0788C35.5407 7.94617 31.4895 5.67029 27.1693 5.67029C22.8489 5.67029 18.7979 7.94617 15.7621 12.0788C15.2154 12.823 14.7141 13.6121 14.2587 14.439C13.4318 14.8943 12.6427 15.3957 11.8985 15.9424C7.76587 18.9782 5.48999 23.0293 5.48999 27.3496C5.48999 31.6698 7.76587 35.721 11.8985 38.7568C12.6427 39.3035 13.4318 39.8048 14.2587 40.2602C14.714 41.0871 15.2154 41.8763 15.7621 42.6204C18.7979 46.753 22.849 49.0289 27.1693 49.0289C31.4895 49.0289 35.5408 46.753 38.5765 42.6204C39.1232 41.8762 39.6246 41.0871 40.0799 40.2601C40.9068 39.8048 41.6959 39.3033 42.4401 38.7566C46.5727 35.7209 48.8486 31.6697 48.8486 27.3495C48.8486 23.0292 46.5727 18.9783 42.4401 15.9425ZM27.1693 48.0085C25.9787 48.0085 24.7167 46.235 23.719 43.2088C24.8499 43.3418 26.0025 43.4108 27.1693 43.4108C28.3362 43.4108 29.4888 43.3418 30.6195 43.2088C29.6219 46.235 28.36 48.0085 27.1693 48.0085ZM27.1693 42.3901C25.8793 42.3901 24.617 42.3028 23.3919 42.1372C22.712 39.7332 22.2183 36.8473 21.9359 33.6966C23.6272 33.8176 25.3816 33.8798 27.1693 33.8798C28.9568 33.8798 30.7114 33.8175 32.4027 33.6966C32.1202 36.8473 31.6267 39.7331 30.9467 42.1372C29.7216 42.3028 28.4593 42.3901 27.1693 42.3901ZM27.1693 6.69099C28.3599 6.69099 29.6219 8.46452 30.6195 11.4908C29.4887 11.3577 28.3361 11.2888 27.1693 11.2888C26.0023 11.2888 24.8499 11.3577 23.719 11.4908C24.7168 8.46452 25.9787 6.69099 27.1693 6.69099ZM27.1693 12.3095C28.4593 12.3095 29.7216 12.3969 30.9467 12.5623C31.6266 14.9664 32.1202 17.8522 32.4027 21.0029C30.7114 20.8819 28.9569 20.8197 27.1693 20.8197C25.3818 20.8197 23.6272 20.8821 21.9359 21.0029C22.2183 17.8522 22.7119 14.9663 23.3919 12.5623C24.617 12.3968 25.8794 12.3095 27.1693 12.3095ZM21.6598 27.3498C21.6598 25.5302 21.7254 23.7469 21.8519 22.0324C23.5663 21.9059 25.3496 21.8403 27.1693 21.8403C28.989 21.8403 30.7722 21.9059 32.4868 22.0324C32.6133 23.7469 32.6789 25.5302 32.6789 27.3498C32.6789 29.1695 32.6133 30.9528 32.4868 32.6672C30.7722 32.7937 28.989 32.8593 27.1693 32.8593C25.3496 32.8593 23.5663 32.7937 21.8519 32.6672C21.7254 30.9526 21.6598 29.1695 21.6598 27.3498ZM20.8225 32.5831C17.6718 32.3006 14.7859 31.8071 12.3819 31.1271C12.2163 29.9021 12.129 28.6397 12.129 27.3497C12.129 26.0597 12.2165 24.7975 12.3819 23.5723C14.7859 22.8924 17.6718 22.3988 20.8225 22.1163C20.7015 23.8075 20.6393 25.5621 20.6393 27.3497C20.6393 29.1373 20.7015 30.8919 20.8225 32.5831ZM33.5162 22.1164C36.6669 22.3989 39.5527 22.8925 41.9568 23.5724C42.1223 24.7975 42.2096 26.0598 42.2096 27.3498C42.2096 28.6398 42.1222 29.9021 41.9568 31.1272C39.5527 31.8071 36.6669 32.3008 33.5162 32.5832C33.6372 30.8921 33.6994 29.1375 33.6994 27.3498C33.6995 25.5622 33.6372 23.8076 33.5162 22.1164ZM33.4345 21.0846C33.1656 17.9964 32.6972 15.1485 32.0523 12.735C34.7138 13.2064 37.1748 14.0538 39.3233 15.1958C40.4652 17.3443 41.3127 19.8053 41.7841 22.4668C39.3705 21.8219 36.5227 21.3535 33.4345 21.0846ZM20.9042 21.0846C17.816 21.3535 14.9681 21.8218 12.5546 22.4666C13.026 19.8052 13.8734 17.3442 15.0154 15.1957C17.1639 14.0538 19.6249 13.2063 22.2863 12.735C21.6415 15.1486 21.173 17.9964 20.9042 21.0846ZM11.3103 30.8001C8.28411 29.8024 6.51058 28.5404 6.51058 27.3498C6.51058 26.1592 8.28411 24.8972 11.3103 23.8996C11.1773 25.0304 11.1083 26.183 11.1083 27.3498C11.1083 28.5166 11.1774 29.6692 11.3103 30.8001ZM20.9042 33.6148C21.173 36.703 21.6414 39.5509 22.2862 41.9644C19.6248 41.493 17.1638 40.6456 15.0153 39.5037C13.8734 37.3552 13.0259 34.8942 12.5545 32.2328C14.9682 32.8776 17.816 33.3461 20.9042 33.6148ZM33.4345 33.6148C36.5227 33.3461 39.3706 32.8776 41.7841 32.2328C41.3127 34.8942 40.4653 37.3551 39.3233 39.5037C37.1748 40.6456 34.7138 41.4931 32.0523 41.9645C32.6972 39.5509 33.1656 36.7031 33.4345 33.6148ZM43.0283 23.8996C46.0546 24.8972 47.828 26.1592 47.828 27.3498C47.828 28.5404 46.0545 29.8023 43.0283 30.8001C43.1614 29.6692 43.2303 28.5166 43.2303 27.3498C43.2302 26.1829 43.1613 25.0303 43.0283 23.8996ZM47.5871 25.0513C46.5885 24.1998 45.0055 23.4343 42.8742 22.7793C42.5031 20.4295 41.8461 18.1905 40.9266 16.1399C44.4159 18.4121 46.8427 21.5322 47.5871 25.0513ZM38.3793 13.5926C36.3286 12.6731 34.0898 12.0161 31.7398 11.6449C31.0848 9.51347 30.3193 7.93052 29.4678 6.93194C32.9869 7.67641 36.107 10.1032 38.3793 13.5926ZM24.8709 6.93194C24.0194 7.93052 23.2539 9.51347 22.5988 11.6449C20.2488 12.0161 18.01 12.673 15.9593 13.5926C18.2315 10.1032 21.3518 7.67641 24.8709 6.93194ZM13.4122 16.1398C12.4927 18.1904 11.8356 20.4293 11.4646 22.7793C9.33317 23.4344 7.75023 24.1998 6.75164 25.0515C7.49599 21.5322 9.9227 18.4121 13.4122 16.1398ZM6.75152 29.6482C7.75011 30.4997 9.33305 31.2652 11.4645 31.9202C11.8356 34.2702 12.4926 36.509 13.4121 38.5597C9.9227 36.2875 7.49599 33.1674 6.75152 29.6482ZM15.9594 41.1069C18.01 42.0264 20.2489 42.6835 22.5989 43.0546C23.254 45.1861 24.0194 46.769 24.8711 47.7676C21.3518 47.0231 18.2315 44.5964 15.9594 41.1069ZM29.4678 47.7675C30.3193 46.7689 31.0848 45.1859 31.7398 43.0545C34.0898 42.6834 36.3287 42.0264 38.3793 41.1068C36.107 44.5963 32.9869 47.0231 29.4678 47.7675ZM40.9265 38.5597C41.846 36.5091 42.503 34.2702 42.8741 31.9203C45.0055 31.2653 46.5883 30.4998 47.5869 29.6483C46.8427 33.1673 44.4159 36.2875 40.9265 38.5597Z" fill="url(#paint7_linear_30_560)"/>
<path d="M27.1693 46.7088C37.861 46.7088 46.5284 38.0415 46.5284 27.3498C46.5284 16.6581 37.861 7.99072 27.1693 7.99072C16.4776 7.99072 7.81024 16.6581 7.81024 27.3498C7.81024 38.0415 16.4776 46.7088 27.1693 46.7088Z" fill="url(#paint8_linear_30_560)"/>
<path d="M25.1428 28.2529L25.9823 29.0924C26.2894 29.3995 26.462 29.8159 26.462 30.2503C26.462 31.1546 27.1952 31.8877 28.0994 31.8877C29.0426 31.8877 29.807 32.6523 29.807 33.5953C29.807 34.8216 29.5512 36.0345 29.0559 37.1563L26.033 44.0017C25.6193 44.9387 24.3933 45.1679 23.6689 44.4436C22.6132 43.3878 22.0201 41.9559 22.0201 40.4629V39.6666C22.0201 37.5907 21.1955 35.6 19.7276 34.1322L19.6382 34.0427C18.2569 32.6615 17.4809 30.7879 17.4809 28.8344V28.549C17.4809 27.1939 18.5794 26.0953 19.9346 26.0953C21.888 26.0956 23.7614 26.8716 25.1428 28.2529Z" fill="url(#paint9_linear_30_560)"/>
<path d="M19.7103 6.97944C14.2803 8.96838 9.86776 13.0666 7.46399 18.2818C7.17905 18.8998 7.03799 19.5745 7.03799 20.2551C7.03799 21.5227 7.54152 22.7384 8.43788 23.6347L8.88117 24.078C10.8675 26.0644 13.5616 27.1803 16.3707 27.1803C16.7903 27.1803 17.1306 26.84 17.1306 26.4204C17.1306 26.0007 16.7903 25.6605 16.3707 25.6605H14.0348C12.9575 25.6605 12.0842 24.7872 12.0842 23.7099C12.0842 22.6326 12.9575 21.7592 14.0348 21.7592H15.8592C18.0467 21.7592 20.1447 20.8903 21.6915 19.3433L24.5083 16.5265C25.1218 15.9131 25.9536 15.5685 26.8212 15.5685C28.076 15.5685 29.2203 14.8505 29.7662 13.7206C30.4353 12.3358 29.4263 10.7279 27.8885 10.7279H24.2541C23.1855 10.7279 22.3194 9.86167 22.3194 8.7932C22.3194 7.44473 20.9766 6.51555 19.7103 6.97944Z" fill="url(#paint10_linear_30_560)"/>
<path d="M27.8886 10.728H24.2541C23.1855 10.728 22.3194 9.86172 22.3194 8.79325C22.3194 8.72972 22.3155 8.66749 22.3097 8.60596C15.2244 10.4377 9.71307 16.1807 8.2153 23.3943C8.28683 23.4764 8.36036 23.5571 8.43789 23.6348L8.88118 24.0781C10.8675 26.0644 13.5617 27.1803 16.3707 27.1803C16.7904 27.1803 17.1306 26.8401 17.1306 26.4204C17.1306 26.0008 16.7904 25.6605 16.3707 25.6605H14.0348C12.9575 25.6605 12.0842 24.7873 12.0842 23.7098C12.0842 22.6324 12.9575 21.7591 14.0348 21.7591H15.8592C18.0467 21.7591 20.1447 20.8902 21.6915 19.3433L24.5084 16.5264C25.1218 15.913 25.9537 15.5684 26.8212 15.5684C28.076 15.5684 29.2204 14.8504 29.7662 13.7205C30.4354 12.3358 29.4266 10.728 27.8886 10.728Z" fill="url(#paint11_linear_30_560)"/>
<path d="M48.3521 22.6769C48.0526 21.3131 46.8332 20.3485 45.4369 20.3485H42.3796H40.7454C37.9678 20.3485 35.716 22.6003 35.716 25.3779V25.9898C35.716 28.4296 37.6938 30.4073 40.1335 30.4073C41.374 30.4073 42.3796 31.413 42.3796 32.6535V38.5187C42.3796 40.0472 44.3642 40.656 45.2137 39.3853C46.9788 36.7446 48.1797 33.6943 48.6435 30.4073C48.7839 29.4089 48.8571 28.3875 48.8571 27.3498C48.8571 25.7452 48.6827 24.1818 48.3521 22.6769Z" fill="url(#paint12_linear_30_560)"/>
<path d="M46.5283 17.563H40.0501C38.8913 17.563 37.9519 16.6236 37.9519 15.4648C37.9519 14.306 38.8913 13.3666 40.0501 13.3666H43.7481C44.8291 14.6467 45.7646 16.0542 46.5283 17.563Z" fill="url(#paint13_linear_30_560)"/>
<path d="M36.8709 7.94934C38.3336 10.8686 39.1582 14.1632 39.1582 17.6509C39.1582 29.6286 29.4483 39.3385 17.4706 39.3385C13.9829 39.3385 10.6883 38.514 7.76904 37.0512C11.3299 44.1581 18.6793 49.0373 27.1695 49.0373C39.1473 49.0373 48.8572 39.3275 48.8572 27.3497C48.857 18.8596 43.9776 11.5102 36.8709 7.94934Z" fill="url(#paint14_linear_30_560)"/>
<path d="M40.0785 59.3739H14.2601C13.5686 59.3739 13.0079 58.8133 13.0079 58.1217V54.3309C13.0079 53.6393 13.5686 53.0786 14.2601 53.0786H40.0785C40.77 53.0786 41.3307 53.6392 41.3307 54.3309V58.1217C41.3307 58.8133 40.7701 59.3739 40.0785 59.3739Z" fill="url(#paint15_linear_30_560)"/>
<path d="M41.9547 60H12.384C11.6925 60 11.1318 59.4394 11.1318 58.7477V58.0393C11.1318 56.572 12.3213 55.3824 13.7886 55.3824H40.5501C42.0174 55.3824 43.207 56.572 43.207 58.0393V58.7477C43.2068 59.4394 42.6462 60 41.9547 60Z" fill="url(#paint16_linear_30_560)"/>
</g>
<defs>
<radialGradient id="paint0_radial_30_560" cx="0" cy="0" r="1" gradientUnits="userSpaceOnUse" gradientTransform="translate(27.7685 26.5128) scale(27.4931)">
<stop stop-color="#FFDA45"/>
<stop offset="0.509" stop-color="#FFD844"/>
<stop offset="0.6924" stop-color="#FFD140"/>
<stop offset="0.823" stop-color="#FFC639"/>
<stop offset="0.9279" stop-color="#FFB52F"/>
<stop offset="1" stop-color="#FFA425"/>
</radialGradient>
<linearGradient id="paint1_linear_30_560" x1="40.5881" y1="19.1038" x2="44.4224" y2="-17.4417" gradientUnits="userSpaceOnUse">
<stop stop-color="#FFDA45" stop-opacity="0"/>
<stop offset="1" stop-color="#FCEE21"/>
</linearGradient>
<linearGradient id="paint2_linear_30_560" x1="33.4221" y1="4.40228" x2="26.7162" y2="1.46111" gradientUnits="userSpaceOnUse">
<stop stop-color="#FFDA45" stop-opacity="0"/>
<stop offset="1" stop-color="#B53759"/>
</linearGradient>
<linearGradient id="paint3_linear_30_560" x1="25.3235" y1="3.03882" x2="30.0365" y2="6.39388" gradientUnits="userSpaceOnUse">
<stop stop-color="#FFDA45"/>
<stop offset="1" stop-color="#FFA425"/>
</linearGradient>
<linearGradient id="paint4_linear_30_560" x1="24.907" y1="52.56" x2="30.3" y2="48.7209" gradientUnits="userSpaceOnUse">
<stop stop-color="#FFDA45"/>
<stop offset="1" stop-color="#FFA425"/>
</linearGradient>
<linearGradient id="paint5_linear_30_560" x1="30.9178" y1="52.2459" x2="23.2119" y2="43.6577" gradientUnits="userSpaceOnUse">
<stop stop-color="#FFDA45" stop-opacity="0"/>
<stop offset="1" stop-color="#B53759"/>
</linearGradient>
<linearGradient id="paint6_linear_30_560" x1="16.667" y1="16.8473" x2="42.9531" y2="43.1334" gradientUnits="userSpaceOnUse">
<stop stop-color="#18CFFC"/>
<stop offset="1" stop-color="#4A98F7"/>
</linearGradient>
<linearGradient id="paint7_linear_30_560" x1="30.484" y1="51.2271" x2="22.6803" y2="-4.98607" gradientUnits="userSpaceOnUse">
<stop stop-color="#18CFFC" stop-opacity="0"/>
<stop offset="1" stop-color="#65E1DC"/>
</linearGradient>
<linearGradient id="paint8_linear_30_560" x1="31.8518" y1="32.0321" x2="10.2434" y2="10.4239" gradientUnits="userSpaceOnUse">
<stop stop-color="#18CFFC" stop-opacity="0"/>
<stop offset="1" stop-color="#65E1DC"/>
</linearGradient>
<linearGradient id="paint9_linear_30_560" x1="13.3868" y1="28.479" x2="47.5576" y2="52.7248" gradientUnits="userSpaceOnUse">
<stop stop-color="#92F37F"/>
<stop offset="1" stop-color="#4AB272"/>
</linearGradient>
<linearGradient id="paint10_linear_30_560" x1="20.3562" y1="18.6565" x2="54.5272" y2="42.9023" gradientUnits="userSpaceOnUse">
<stop stop-color="#92F37F"/>
<stop offset="1" stop-color="#4AB272"/>
</linearGradient>
<linearGradient id="paint11_linear_30_560" x1="21.8533" y1="20.4388" x2="12.1729" y2="10.7585" gradientUnits="userSpaceOnUse">
<stop stop-color="#92F37F" stop-opacity="0"/>
<stop offset="1" stop-color="#FFEE83"/>
</linearGradient>
<linearGradient id="paint12_linear_30_560" x1="39.0094" y1="29.1997" x2="54.3225" y2="31.8937" gradientUnits="userSpaceOnUse">
<stop stop-color="#92F37F"/>
<stop offset="1" stop-color="#4AB272"/>
</linearGradient>
<linearGradient id="paint13_linear_30_560" x1="41.4372" y1="15.3999" x2="56.7502" y2="18.0939" gradientUnits="userSpaceOnUse">
<stop stop-color="#92F37F"/>
<stop offset="1" stop-color="#4AB272"/>
</linearGradient>
<linearGradient id="paint14_linear_30_560" x1="31.1568" y1="29.6462" x2="60.9676" y2="-25.7978" gradientUnits="userSpaceOnUse">
<stop stop-color="#0469BC" stop-opacity="0"/>
<stop offset="1" stop-color="#0469BC"/>
</linearGradient>
<linearGradient id="paint15_linear_30_560" x1="27.1693" y1="53.9217" x2="27.1693" y2="56.5731" gradientUnits="userSpaceOnUse">
<stop stop-color="#FFDA45"/>
<stop offset="1" stop-color="#FFA425"/>
</linearGradient>
<linearGradient id="paint16_linear_30_560" x1="27.1693" y1="56.7349" x2="27.1693" y2="61.2532" gradientUnits="userSpaceOnUse">
<stop stop-color="#FFDA45"/>
<stop offset="1" stop-color="#FFA425"/>
</linearGradient>
<clipPath id="clip0_30_560">
<rect width="60" height="60" fill="white"/>
</clipPath>
</defs>
</svg>
