<svg width="220" height="195" viewBox="0 0 220 195" fill="none" xmlns="http://www.w3.org/2000/svg">
<g clip-path="url(#clip0_5615_80128)">
<g style="mix-blend-mode:overlay" opacity="0.45">
<path d="M219.96 3.34442C210.679 0.739166 201.882 -0.351404 193.77 0.0969417C189.436 0.325829 185.14 1.0226 180.956 2.17509C175.97 3.56729 171.218 5.69506 166.859 8.48828C162.271 11.3922 158.171 15.0033 154.712 19.188C148.726 26.4585 145.624 35.595 145.485 46.3795C145.449 49.2756 145.667 52.1777 145.873 54.989C146.357 61.4112 146.812 67.5002 144.328 72.947C142.571 76.7883 139.196 80.1448 134.834 82.3986C128.013 85.9188 120.694 86.9548 112.958 88.0454C106.487 88.9663 99.8111 89.9115 93.2257 92.4137C89.192 93.9393 85.3785 95.993 81.8845 98.5209C75.6401 101.752 70.11 106.206 65.6239 111.62C59.5656 118.981 56.288 128.312 55.9306 139.381C55.8336 142.356 55.9851 145.343 56.1365 148.233C56.4758 154.837 56.7969 161.101 54.2221 166.651C50.3811 174.94 41.5844 177.927 33.2966 179.793C26.275 181.374 19.0898 182.143 12.0925 183.779C8.94212 184.506 5.82206 185.094 3.40478 187.36C2.34579 188.334 1.49737 189.514 0.911801 190.828C0.326233 192.142 0.0159241 193.562 0 195H219.96V3.34442Z" fill="#7C2629" fill-opacity="0.5"/>
</g>
</g>
<defs>
<clipPath id="clip0_5615_80128">
<rect width="219.96" height="195" fill="white"/>
</clipPath>
</defs>
</svg>
