<svg xmlns="http://www.w3.org/2000/svg" data-name="Layer 1" viewBox="0 0 4000 4000"><defs><clipPath id="a"><path fill="none" d="M2554.57 1457.5H1384.343a79.421 79.421 0 1 0 0 158.843H2554.57a79.421 79.421 0 1 0 0-158.843Z"/></clipPath></defs><path fill="#ffca28" d="M2538.718 1733.359h72.051c46.44 0 92.404 11.27 132.734 34.297 61.695 35.224 130.676 105.124 130.676 241.605v162.238s7.054 349.164-349.164 349.164h-105.954l83.46-167.775s138.936 30.997 200.867-102.588c10.666-23.007 15.607-48.265 15.607-73.624v-158.183c0-26.99-5.564-53.866-17.634-78.007-14.108-28.215-38.796-58.194-81.12-65.248h-81.523Z"/><path fill="#102770" d="M2525.016 2538.166H2419.06a17.5 17.5 0 0 1-15.669-25.293l83.462-167.779a17.506 17.506 0 0 1 19.478-9.287c5.097 1.109 126.118 25.918 181.181-92.871 9.282-20.015 13.985-42.31 13.985-66.26v-158.183c0-25.254-5.46-49.522-15.791-70.181-15.826-31.655-38.355-50.347-66.978-55.576h-80.01a17.502 17.502 0 0 1-17.5-17.5V1733.36a17.502 17.502 0 0 1 17.5-17.5h72.051c50.581 0 99.478 12.656 141.411 36.601 63.638 36.328 139.502 110.371 139.502 256.797V2171.5c.127 6.202 2.026 161.373-103.286 268.829-63.618 64.921-152.231 97.836-263.379 97.836Zm-77.705-35h77.705c101.387 0 181.592-29.385 238.384-87.334 95.127-97.07 93.315-242.52 93.286-243.98l-.005-162.593c0-129.629-66.265-194.668-121.855-226.401-36.656-20.933-79.556-31.997-124.058-31.997h-54.55v106.875h64.023a17.193 17.193 0 0 1 2.876.24c40.361 6.728 72.827 32.553 93.896 74.682 12.744 25.493 19.483 55.176 19.483 85.835v158.183c0 29.073-5.796 56.319-17.227 80.982-55.107 118.862-167.495 118.462-206.709 114.336Z"/><path fill="#fff" d="m2504.641 2387.917 7.922-15.925c25.838 2.722 83.444 3.812 135.502-29.764-49.776 43.015-109.852 47.372-143.424 45.689Z" opacity=".6"/><path fill="#fff" d="M2743.19 2431.045c95.025-96.753 93.519-242.75 93.49-244.546v-162.236c0-129.627-66.265-194.67-121.854-226.409-36.657-20.93-79.555-31.995-124.057-31.995h-34.551v-15h54.55c44.503 0 87.4 11.065 124.058 31.995 55.589 31.738 121.853 96.782 121.853 226.409v162.236c.03 1.797 1.536 147.793-93.488 244.546a265.248 265.248 0 0 1-40.062 33.349 265.798 265.798 0 0 0 20.062-18.35Z" opacity=".6"/><path fill="#102770" d="M2692.33 2250.3c9.796-23.007 14.334-48.265 14.334-73.624v-158.183c0-26.99-5.11-53.866-16.196-78.007-12.956-28.215-35.63-58.194-74.5-65.248h55.334c38.87 7.054 61.544 37.033 74.5 65.248 11.086 24.141 16.196 51.017 16.196 78.007v158.183c0 25.36-4.538 50.617-14.333 73.624-50.406 118.385-156.341 107.512-179.799 103.505 40.99-6.568 93.325-30.371 124.464-103.505Z" opacity=".2"/><path fill="#102770" d="M2545.575 1875.238v-141.879h79.855l-16.067 141.879h-63.788z" opacity=".2"/><path fill="#102770" d="M2874.18 2171.499v-53.133c-.305 32.193-11.138 309.428-291.808 342.737-21.986 2.61-38.218-19.971-28.425-39.827l32.894-66.694c-42.746 3.973-62.728-1.694-62.728-1.694l-69.842 111.541h-7.237l-27.974 56.234h105.955c356.218 0 349.164-349.164 349.164-349.164Z" opacity=".2"/><path fill="#ffca28" d="M1400.198 1733.359h-72.051c-46.44 0-92.404 11.27-132.734 34.297-61.695 35.224-130.677 105.124-130.677 241.605v162.238s-7.054 349.164 349.165 349.164h105.954l-83.46-167.775s-138.937 30.997-200.867-102.588c-10.667-23.007-15.608-48.265-15.608-73.624v-158.183c0-26.99 5.564-53.866 17.635-78.007 14.108-28.215 38.796-58.194 81.119-65.248h81.524Z"/><path fill="#102770" d="M1519.855 2538.166H1413.9c-111.147 0-199.76-32.916-263.383-97.837-105.308-107.456-103.411-262.627-103.28-269.18l-.002-161.89c0-146.425 75.862-220.468 139.5-256.801 41.936-23.94 90.835-36.597 141.411-36.597h72.05a17.5 17.5 0 0 1 17.5 17.5v141.875a17.5 17.5 0 0 1-17.5 17.5h-80.009c-28.623 5.23-51.152 23.92-66.98 55.576-10.327 20.654-15.786 44.922-15.786 70.18v158.184c0 23.95 4.704 46.245 13.982 66.265 55.364 119.419 176.072 94.009 181.181 92.866a17.506 17.506 0 0 1 19.48 9.287l83.46 167.779a17.5 17.5 0 0 1-15.669 25.293Zm-191.709-787.305c-44.5 0-87.397 11.064-124.058 31.992-55.588 31.738-121.853 96.777-121.853 226.406v162.242c-.029 1.796-1.535 147.792 93.49 244.545 56.779 57.808 136.913 87.12 238.175 87.12h77.703l-65.249-131.172c-39.197 4.14-151.592 4.546-206.704-114.336-11.433-24.663-17.23-51.91-17.23-80.982v-158.183c0-30.664 6.737-60.342 19.483-85.835 21.065-42.13 53.533-67.954 93.892-74.683a17.244 17.244 0 0 1 2.878-.24h64.024v-106.874Z"/><path fill="#fff" d="m1434.274 2387.917-7.921-15.925c-25.839 2.722-83.444 3.812-135.503-29.764 49.777 43.015 109.853 47.372 143.424 45.689Z" opacity=".6"/><path fill="#fff" d="M1195.725 2431.045c-95.024-96.753-93.518-242.75-93.489-244.546v-162.236c0-129.627 66.265-194.67 121.853-226.409 36.658-20.93 79.556-31.995 124.058-31.995h34.55v-15h-54.55c-44.502 0-87.4 11.065-124.058 31.995-55.588 31.738-121.853 96.782-121.853 226.409v162.236c-.029 1.797-1.535 147.793 93.49 244.546a265.248 265.248 0 0 0 40.06 33.349 265.798 265.798 0 0 1-20.06-18.35Z" opacity=".6"/><path fill="#102770" d="M1246.586 2250.3c-9.796-23.007-14.334-48.265-14.334-73.624v-158.183c0-26.99 5.11-53.866 16.196-78.007 12.956-28.215 35.63-58.194 74.5-65.248h-55.335c-38.87 7.054-61.543 37.033-74.5 65.248-11.085 24.141-16.195 51.017-16.195 78.007v158.183c0 25.36 4.537 50.617 14.333 73.624 50.406 118.385 156.34 107.512 179.798 103.505-40.99-6.568-93.325-30.371-124.463-103.505Z" opacity=".2"/><path fill="#102770" d="M1393.341 1875.238v-141.879h-79.855l16.066 141.879h63.789z" opacity=".2"/><path fill="#102770" d="M1064.736 2171.499v-53.133c.305 32.193 11.138 309.428 291.808 342.737 21.985 2.61 38.218-19.971 28.424-39.827l-32.893-66.694c42.746 3.973 62.727-1.694 62.727-1.694l69.842 111.541h7.237l27.974 56.234h-105.954c-356.219 0-349.165-349.164-349.165-349.164Z" opacity=".2"/><path fill="#ffca28" d="M2122.12 2904.309h-305.324l62.311-236.781h180.702l62.311 236.781z"/><path fill="#102770" d="M2122.12 2921.808h-305.326a17.498 17.498 0 0 1-16.924-21.953l62.314-236.782a17.497 17.497 0 0 1 16.924-13.047h180.703a17.497 17.497 0 0 1 16.924 13.047l62.31 236.782a17.504 17.504 0 0 1-16.924 21.953Zm-282.626-35h259.926l-53.1-201.782H1892.6Z"/><path fill="#fff" d="m1892.598 2685.029-53.101 201.782h25l53.101-201.782h-25z" opacity=".6"/><path fill="#ffca28" d="M1790.229 2904.31h358.458a78.174 78.174 0 0 1 78.174 78.173v33.986h-514.806v-33.986a78.174 78.174 0 0 1 78.174-78.174Z"/><path fill="#102770" d="M2226.862 3033.971h-514.805a17.502 17.502 0 0 1-17.5-17.5v-33.99a95.783 95.783 0 0 1 95.674-95.673h358.457a95.783 95.783 0 0 1 95.674 95.674v33.99a17.502 17.502 0 0 1-17.5 17.5Zm-497.305-35h479.805v-16.49a60.74 60.74 0 0 0-60.674-60.673h-358.457a60.74 60.74 0 0 0-60.674 60.674Z"/><path fill="#fff" d="M1754.556 2992.485a60.742 60.742 0 0 1 60.673-60.674h358.457a60.57 60.57 0 0 1 9.492.819 60.297 60.297 0 0 0-34.492-10.819H1790.23a60.742 60.742 0 0 0-60.673 60.674v16.485h25Z" opacity=".6"/><path fill="#dc7633" d="M1645.448 3016.47h648.02a172.92 172.92 0 0 1 172.92 172.92v101.248h-993.86V3189.39a172.92 172.92 0 0 1 172.92-172.92Z"/><path fill="#102770" d="M2466.388 3308.136h-993.86a17.5 17.5 0 0 1-17.5-17.5v-101.245c0-105 85.423-190.42 190.418-190.42h648.022c105 0 190.42 85.42 190.42 190.42v101.245a17.502 17.502 0 0 1-17.5 17.5Zm-976.36-35h958.86v-83.745c0-85.698-69.722-155.42-155.42-155.42h-648.022c-85.698 0-155.418 69.722-155.418 155.42Z"/><path fill="#fff" d="M1520.027 3204.39c0-85.699 69.722-155.42 155.42-155.42h648.02a154.672 154.672 0 0 1 53.718 9.578 154.448 154.448 0 0 0-83.718-24.578h-648.02c-85.698 0-155.42 69.721-155.42 155.42v83.75h30Z" opacity=".6"/><path fill="#ffca28" d="M1972.636 1447.189v-.01l-3.178.005-3.178-.005v.01l-574.345.851v678.304c0 121.275 29.034 241.32 88.122 347.227 78.091 139.966 222.618 284.993 486.223 287.314v.11c1.075 0 2.107-.05 3.178-.055 1.07.005 2.103.054 3.178.054v-.109c263.605-2.32 408.132-147.348 486.223-287.314 59.088-105.906 88.122-225.952 88.122-347.227V1448.04Z"/><path fill="#102770" d="M1972.633 2778.493a74.48 74.48 0 0 1-2.1-.035l-1.152-.019-1 .02a28.412 28.412 0 0 1-4.23-.093c-277.826-3.199-424.901-162.779-499.377-296.27-59.099-105.928-90.339-228.945-90.339-355.752V1448.04a17.501 17.501 0 0 1 17.473-17.5l580.7-.86c.015 0 .035.01.05.01l574.345.85a17.5 17.5 0 0 1 17.476 17.5v678.305c0 126.807-31.24 249.824-90.337 355.752-74.482 133.501-221.533 293.091-499.394 296.27a17.814 17.814 0 0 1-2.115.127Zm-3.252-35.054 1.587.024c.498-.048 1.001-.073 1.51-.078 210.585-1.85 369.086-95.498 471.098-278.34 56.196-100.732 85.903-217.851 85.903-338.7v-660.83l-556.87-.826-6.353-.01-556.82.835v660.83c0 120.85 29.704 237.974 85.905 338.701 102.01 182.842 260.505 276.49 471.096 278.34.508.005 1.01.03 1.509.078Z"/><path fill="#fff" d="M1525.34 2470.044c-56.2-100.728-85.904-217.847-85.904-338.701v-660.83l556.816-.833 533.23.788v-4.955l-563.23-.833-556.816.833v660.83c0 120.854 29.705 237.973 85.903 338.7 87.64 157.084 217.012 248.267 385.245 272.033-153.683-29.97-272.884-119.413-355.245-267.032Z" opacity=".6"/><ellipse cx="1580.051" cy="1866.473" fill="#fff" opacity=".2" rx="117.282" ry="74.493" transform="rotate(-85.229 1580.051 1866.473)"/><path fill="#102770" d="M1844.434 2730.808c2.353-.288 4.645-.643 6.98-.95a641.712 641.712 0 0 0 100.02 8.526c.514.005 1.025.034 1.53.078l1.413-.024 1.58.029c.503-.049 1.01-.078 1.526-.083 210.583-1.85 369.08-95.498 471.091-278.34 56.201-100.732 85.908-217.852 85.908-338.701V1465.49l-548.23-.81-556.816.833v218.955l3.788 2.832 790.315 31.36c137.455 5.455 243.583 123.234 234.158 260.474-19.268 280.553-139.387 696.255-593.263 751.674Z" opacity=".2"/><rect width="1364.07" height="193.842" x="1287.423" y="1440" fill="#ffca28" rx="96.921"/><path fill="#102770" d="M2554.572 1651.34H1384.345a114.419 114.419 0 1 1 0-228.838h1170.227a114.419 114.419 0 0 1 0 228.837Zm-1170.227-193.838a79.419 79.419 0 1 0 0 158.837h1170.227a79.419 79.419 0 0 0 0-158.837Z"/><path fill="#fff" d="M1329.922 1551.921a79.51 79.51 0 0 1 79.421-79.421H2579.57a78.87 78.87 0 0 1 27.548 5.027 79.01 79.01 0 0 0-52.548-20.027H1384.343a79.364 79.364 0 0 0-27.546 153.816 79.168 79.168 0 0 1-26.875-59.395Z" opacity=".6"/><path fill="#102770" d="M1846.58 2789.4s59.01 13.567 119.655 13.056c39.619-.333 49.148 55.205 11.818 68.479-33.004 11.736-81.684 19.58-153.338 18.406l-16.217 20.27h320.274l-38.87-159.029s-157.39 39.355-237.64 1.894Z" opacity=".2"/><path fill="#102770" d="M2041.807 2909.583s7.91 95.3-328.58 83.137v18.243h525.798l-14.982-52.075s-13.792-73.657-182.236-49.305Z" opacity=".2"/><path fill="#102770" d="M2041.609 3025.153s40.541 235.138-567.574 235.138l4.054 26.351h995.282v-125.677s-56.758-198.65-431.762-135.812Z" opacity=".2"/><path fill="#f9b32f" d="M2105.631 2353.556a45.086 45.086 0 0 1-26.611-8.818l-100.483-73.008a15.451 15.451 0 0 0-18.16 0l-100.483 73.008a45.075 45.075 0 0 1-26.611 8.818 46.072 46.072 0 0 1-37.105-19.087 44.725 44.725 0 0 1-6.23-40.547l38.379-118.125a15.412 15.412 0 0 0-5.61-17.28l-100.484-73.003a45.452 45.452 0 0 1 26.719-82.222h124.204a15.411 15.411 0 0 0 14.692-10.678l38.38-118.125a45.456 45.456 0 0 1 86.459 0l38.379 118.13a15.415 15.415 0 0 0 14.697 10.674h124.204a45.45 45.45 0 0 1 26.714 82.221l-100.483 73.003a15.424 15.424 0 0 0-5.61 17.28l38.378 118.125a44.73 44.73 0 0 1-6.225 40.542 46.106 46.106 0 0 1-37.11 19.092Z"/><path fill="#102770" d="M1969.455 1858.082a29.901 29.901 0 0 1 28.964 21.043l38.38 118.125a30.457 30.457 0 0 0 28.964 21.043h124.204c29.497 0 41.763 37.746 17.896 55.085l-100.484 73.005a30.459 30.459 0 0 0-11.06 34.048l38.38 118.125c6.943 21.37-10.034 40-29.068 40a30.03 30.03 0 0 1-17.793-5.954l-100.483-73.006a30.45 30.45 0 0 0-35.796 0l-100.483 73.006a30.02 30.02 0 0 1-17.793 5.954c-19.034 0-36.011-18.628-29.068-40l38.38-118.125a30.451 30.451 0 0 0-11.06-34.048l-100.484-73.005c-23.867-17.339-11.601-55.086 17.9-55.086h124.205a30.45 30.45 0 0 0 28.96-21.042l38.379-118.125a29.891 29.891 0 0 1 28.96-21.043m.004-30a59.55 59.55 0 0 0-57.495 41.773l-38.379 118.125a.456.456 0 0 1-.43.313h-124.203a60.45 60.45 0 0 0-35.533 109.357l100.484 73.003a.46.46 0 0 1 .161.508l-38.379 118.125a59.562 59.562 0 0 0 8.355 53.994 61.14 61.14 0 0 0 49.243 25.276 59.992 59.992 0 0 0 35.425-11.682l100.483-73.008a.436.436 0 0 1 .269-.085.403.403 0 0 1 .258.083l100.489 73.008a59.978 59.978 0 0 0 35.424 11.684 61.147 61.147 0 0 0 49.244-25.276 59.566 59.566 0 0 0 8.354-53.996l-38.379-118.123a.465.465 0 0 1 .171-.513l100.474-73a60.449 60.449 0 0 0-35.528-109.356h-124.204a.457.457 0 0 1-.434-.315l-38.38-118.122a59.548 59.548 0 0 0-57.49-41.773Z"/><path fill="#fff" d="M2045.833 2012.91a30.451 30.451 0 0 0 28.96 21.041H2199a29.638 29.638 0 0 1 20.564 7.954c-2.994-12.74-13.779-23.613-29.597-23.613h-124.205a30.39 30.39 0 0 1-20.9-8.373Z" opacity=".6"/><path fill="#fff" d="m1813.248 2314.216 38.381-118.126a30.395 30.395 0 0 0-8.371-31.742 30.29 30.29 0 0 1-.661 16.082l-38.382 118.126a29.695 29.695 0 0 0 8.17 31.608 30.23 30.23 0 0 1 .863-15.948Z" opacity=".6"/><path fill="#fff" d="M1757.982 2033.951h124.205a30.452 30.452 0 0 0 28.961-21.041l38.381-118.126c7.373-22.69 34.733-27.011 49.754-13l-.864-2.66c-9.116-28.055-48.806-28.055-57.922 0l-38.381 118.126a30.451 30.451 0 0 1-28.962 21.042H1748.95c-28.208 0-40.57 34.47-20.738 52.653-3.687-17.432 8.529-36.994 29.771-36.994Z" opacity=".6"/><path fill="#102770" d="M1971.591 1872.722v242.181l71.895-103.723-49.98-143.476-21.915 5.018z" opacity=".2"/><path fill="#102770" d="m1971.591 2114.903-151.029 220.313 17.111 14.875 135.489-90.326-1.571-144.862z" opacity=".2"/><path fill="#102770" d="m1720 2065 251.591 49.903-124.764 48.817L1720 2065z" opacity=".2"/><path fill="#102770" d="M1971.591 2114.903 2140 2340l-5-60-44.692-112.861-118.717-52.236z" opacity=".2"/><path fill="#102770" d="m1971.591 2114.903 237.433-52.235-118.716 104.471-118.717-52.236z" opacity=".1"/><g clip-path="url(#a)"><path fill="#fff" d="M1563.832 1284.747h172.992v510.122h-172.992z" opacity=".5" transform="rotate(41.031 1650.328 1539.808)"/><path fill="#fff" d="M1922.707 1262.998h76.585v510.122h-76.585z" opacity=".5" transform="rotate(41.031 1961 1518.06)"/></g><path fill="#102770" d="M2612.202 1482.434a79.81 79.81 0 0 1 4.227 4.79c-1.337-1.661-2.763-3.242-4.227-4.79Z" opacity=".2"/><path fill="#102770" d="M2621.933 1495.05c.943 1.507 1.883 3.018 2.725 4.592-.841-1.575-1.783-3.083-2.725-4.593Z" opacity=".2"/><path fill="#102770" d="M2617.366 1488.477c1.197 1.544 2.37 3.11 3.454 4.742-1.082-1.635-2.258-3.196-3.454-4.742Z" opacity=".2"/><path fill="#102770" d="M2633.153 1525.998c.135.973.336 1.924.435 2.908-.1-.984-.3-1.935-.435-2.908Z" opacity=".2"/><path fill="#102770" d="M2625.841 1502.095c.709 1.441 1.433 2.873 2.055 4.36-.62-1.489-1.347-2.918-2.055-4.36Z" opacity=".2"/><path fill="#102770" d="M2631.498 1517.522c.304 1.201.66 2.382.909 3.604-.248-1.223-.606-2.402-.909-3.604Z" opacity=".2"/><path fill="#102770" d="M2629.048 1509.596c.495 1.34 1.025 2.663 1.447 4.035-.422-1.373-.953-2.694-1.447-4.035Z" opacity=".2"/><path fill="#102770" d="M2529.57 1611.343a79.365 79.365 0 0 0 27.871-153.697c-.96-.035-1.902-.146-2.87-.146h-167.267c-19.718 37.592-136.49 143.138-824.005 153.843Z" opacity=".2"/><path fill="#102770" d="M1358.046 1611.774Z" opacity=".2"/><path fill="#102770" d="M1495.87 1612.07c-3.155.02-6.3.04-9.479.057 3.176-.016 6.326-.037 9.48-.057Z" opacity=".2"/><path fill="#102770" d="M1403.941 1612.118q13.153.067 26.068.091-12.926-.027-26.068-.09Z" opacity=".2"/><path fill="#102770" d="M2557.445 1457.646a79.108 79.108 0 0 1 42.854 14.448 78.875 78.875 0 0 0-42.854-14.448Z" opacity=".2"/><path fill="#102770" d="M2600.405 1472.174q2.967 2.1 5.729 4.459-2.757-2.362-5.73-4.46Z" opacity=".2"/><path fill="#102770" d="M2611.523 1481.687Z" opacity=".2"/><path fill="#102770" d="M1467.647 1612.2q-10.652.028-21.472.026c7.204 0 14.377-.007 21.472-.026Z" opacity=".2"/><path fill="#102770" d="M3226.859 3320.658c0-25.117-549.283-45.48-1226.859-45.48s-1226.859 20.363-1226.859 45.48c0 14.52 183.55 27.45 469.328 35.776 61.665 16.28 300.756 28.418 586.302 28.418 239.12 0 445.657-8.511 542.712-20.84 495.966-5.835 855.376-23.038 855.376-43.354Z" opacity=".3"/><path fill="#102770" d="M953.175 3295.324c174.649-9.31 349.302-14.18 523.95-17.49q261.973-4.937 523.946-5.003 261.972-.18 523.95 4.937c174.648 3.295 349.297 8.19 523.945 17.556-174.648 9.367-349.297 14.262-523.945 17.558q-261.973 4.893-523.95 4.937-261.973.051-523.946-5.005c-174.648-3.308-349.301-8.179-523.95-17.49ZM832.36 1767.208a10.571 10.571 0 0 1-9.876-6.806c-14.101-36.973-32.685-60.693-53.31-69.131a118.656 118.656 0 0 1-7.698 21.44c-6.357 13.53-17.849 23.399-31.53 27.08-15.157 4.068-28.363-.449-37.2-12.714-5.332-7.403-5.1-17.544.642-27.818 9.243-16.548 31.709-32.329 57.97-32.529 1.556-45.596-30.153-82.339-35.587-88.291l-1.434-.967a75.723 75.723 0 0 1-25.483 36.802c-28.413 22.378-57.029 26.494-82.761 11.919a43.09 43.09 0 0 1-19.148-52.007c7.724-21.875 21.413-36.572 39.585-42.505 19.114-6.235 42.563-2.568 69.997 10.928-1.687-36.314-13.31-63.594-34.64-81.211-43.092-35.586-112.857-21.606-113.553-21.46a10.567 10.567 0 0 1-4.338-20.684c3.261-.673 80.244-16.264 131.252 25.767 28.801 23.73 43.135 60.586 42.615 109.556q5.317 3.325 10.8 7.075a10.682 10.682 0 0 1 1.656 1.401c2.256 2.354 45.41 48.174 42.11 106.924 22.49 7.241 49.071 28.54 69.801 82.896a10.578 10.578 0 0 1-9.87 14.336Zm-84.204-79.223a48.02 48.02 0 0 0-9.873 1.938c-19.307 5.889-29.143 21.162-28.223 25.127 2.393 3.228 6.12 6.563 14.402 4.331 7.656-2.06 14.177-7.768 17.886-15.654a96.675 96.675 0 0 0 5.808-15.742ZM645.939 1549.86a41.237 41.237 0 0 0-12.85 1.91c-11.86 3.871-20.683 13.783-26.217 29.457a21.983 21.983 0 0 0 9.638 26.577c17.908 10.142 37.847 6.738 59.27-10.132a54.668 54.668 0 0 0 19.756-31.748c-19.221-10.64-35.97-16.064-49.597-16.064ZM3094.035 1959.137a10.58 10.58 0 0 1-9.859-14.37c22.544-58.52 51.26-81.07 75.381-88.525-3.657-63.091 42.945-112.237 45.371-114.751a10.32 10.32 0 0 1 1.66-1.397q6.094-4.138 11.983-7.783a68.16 68.16 0 0 1-.01-1c-.269-52.247 15.269-91.476 46.177-116.607 54.687-44.458 136.714-27.564 140.17-26.822a10.567 10.567 0 0 1-4.404 20.67c-.756-.162-75.771-15.474-122.51 22.616-23.569 19.205-36.362 49.185-38.1 89.22 29.849-14.786 55.25-18.834 75.85-12.037 19.262 6.362 33.745 22.036 41.884 45.327a45.523 45.523 0 0 1-20.405 54.868c-27.236 15.298-57.495 10.928-87.515-12.646a81.055 81.055 0 0 1-27.636-40.742q-1.304.864-2.617 1.748c-5.313 5.879-40.22 46.499-38.653 96.137 28.164.069 52.241 17.027 62.066 34.756 5.976 10.786 6.21 21.372.634 29.048-9.33 12.866-23.247 17.564-39.165 13.228-14.463-3.946-26.591-14.434-33.271-28.78a126.396 126.396 0 0 1-8.35-23.76c-18.603 6.983-40.298 26.749-58.823 74.83a10.57 10.57 0 0 1-9.858 6.772Zm89.746-84.805a101.541 101.541 0 0 0 6.445 18.042c4.048 8.697 11.216 15.005 19.668 17.31 9.346 2.54 13.584-1.226 16.504-5.249 1.25-3.594-8.223-19.702-28.027-27.017a51.576 51.576 0 0 0-14.59-3.085Zm57.187-130.659a60.272 60.272 0 0 0 21.797 35.606c23.076 18.125 44.649 21.777 64.107 10.84a24.406 24.406 0 0 0 10.805-29.468c-5.976-17.1-15.586-27.944-28.564-32.232-16.719-5.512-40.01-.254-68.145 15.254ZM2657.277 842.59a12.657 12.657 0 0 1-3.604-.533 12.505 12.505 0 0 1-8.374-15.571l20.04-66.626a12.502 12.502 0 0 1 23.945 7.197l-20.04 66.626a12.517 12.517 0 0 1-11.967 8.906ZM2598.078 1039.45a12.66 12.66 0 0 1-3.604-.533 12.505 12.505 0 0 1-8.374-15.57l20.04-66.627a12.502 12.502 0 0 1 23.945 7.197l-20.04 66.626a12.517 12.517 0 0 1-11.967 8.907ZM2697.594 875.504a12.5 12.5 0 0 1-5.928-23.51l61.28-32.945a12.5 12.5 0 0 1 11.836 22.022l-61.28 32.944a12.453 12.453 0 0 1-5.908 1.49ZM2516.53 972.848a12.5 12.5 0 0 1-5.928-23.51l61.28-32.95a12.5 12.5 0 0 1 11.835 22.022l-61.279 32.949a12.454 12.454 0 0 1-5.908 1.49ZM2769.44 947.326a12.66 12.66 0 0 1-3.604-.533l-66.625-20.034a12.502 12.502 0 1 1 7.197-23.945l66.626 20.034a12.504 12.504 0 0 1-3.594 24.478ZM2572.58 888.126a12.656 12.656 0 0 1-3.604-.532l-66.626-20.034a12.502 12.502 0 1 1 7.197-23.945l66.626 20.034a12.504 12.504 0 0 1-3.593 24.478ZM2702.843 1028.873a12.492 12.492 0 0 1-11.02-6.582l-32.945-61.279a12.5 12.5 0 1 1 22.022-11.836l32.944 61.28a12.5 12.5 0 0 1-11 18.417ZM2605.504 847.814a12.492 12.492 0 0 1-11.02-6.582l-32.944-61.284a12.5 12.5 0 1 1 22.021-11.836l32.944 61.284a12.5 12.5 0 0 1-11 18.418ZM1315.387 646.066a12.675 12.675 0 0 1-3.606-.532 12.504 12.504 0 0 1-8.369-15.572l22.122-73.56a12.5 12.5 0 1 1 23.94 7.198l-22.122 73.56a12.507 12.507 0 0 1-11.965 8.906ZM1250.023 863.424a12.647 12.647 0 0 1-3.603-.532 12.504 12.504 0 0 1-8.372-15.571l22.122-73.565a12.5 12.5 0 1 1 23.94 7.198l-22.121 73.564a12.508 12.508 0 0 1-11.966 8.906ZM1359.897 682.409a12.5 12.5 0 0 1-5.928-23.511l67.66-36.377a12.5 12.5 0 1 1 11.837 22.021l-67.661 36.377a12.453 12.453 0 0 1-5.909 1.49ZM1159.987 789.884a12.5 12.5 0 0 1-5.93-23.51l67.658-36.377a12.502 12.502 0 0 1 11.841 22.021l-67.659 36.377a12.47 12.47 0 0 1-5.91 1.49ZM1439.225 761.706a12.646 12.646 0 0 1-3.603-.533l-73.562-22.119a12.502 12.502 0 0 1 7.197-23.945l73.562 22.119a12.504 12.504 0 0 1-3.594 24.478ZM1221.87 696.344a12.66 12.66 0 0 1-3.607-.532l-73.562-22.124a12.502 12.502 0 0 1 7.202-23.945l73.562 22.124a12.504 12.504 0 0 1-3.596 24.477ZM1365.695 851.75a12.5 12.5 0 0 1-11.02-6.587L1318.3 777.5a12.5 12.5 0 0 1 22.021-11.836l36.375 67.662a12.508 12.508 0 0 1-11.001 18.422ZM1258.222 651.837a12.5 12.5 0 0 1-11.02-6.586l-36.375-67.662a12.5 12.5 0 0 1 22.021-11.836l36.375 67.662a12.508 12.508 0 0 1-11.001 18.422ZM1140.011 2820.45s-5.998 70.249-78.983 68.221c0 0 63.168 21.113 48.976 94.098 0 0 36.482-78.053 81.084-73.999 0 0-57.159-29.527-51.077-88.32Z"/><circle cx="2866.796" cy="3025.761" r="28.569" fill="#102770" transform="rotate(-22.5 2866.797 3025.761)"/><path fill="#102770" d="M2709.71 2755.432s-5.742 67.247-75.608 65.306c0 0 60.469 20.21 46.884 90.076 0 0 34.923-74.717 77.618-70.836 0 0-54.716-28.265-48.894-84.546Z"/><circle cx="2851.794" cy="1271.284" r="28.569" fill="#102770" transform="rotate(-45 2851.794 1271.284)"/><path fill="#8bc34a" d="m1545.502 1165.809 37.319 21.633s24.948-65.55 95.184-77.167l-10.625-43.067s-88.525 11.56-121.878 98.601Z"/><path fill="#19b5fe" d="m634.7 2180.973 40.192-15.665s14.618 68.597 82.247 90.83l-17.093 40.933s-85.712-24.977-105.345-116.098Z"/><path fill="#ff5722" d="m3216.24 2658.22 6.898-38.63s-63.797-.958-95.556-57.398l-33.52 22.468s37.395 72.095 122.178 73.56Z"/><circle cx="1046.631" cy="1246.001" r="28.569" fill="#102770"/><path fill="#ffca28" d="m3055.53 1467.755-37.325-12.112s-9.669 63.067-69.92 86.815l17.677 36.276s76.529-27.191 89.568-110.978ZM916.63 2528.002l19.175 34.237s-59.961 21.81-71.473 85.54l-39.032-10.244s11.708-80.368 91.33-109.533Z"/><path fill="#19b5fe" d="m2200.215 956.918-39.22 1.281s12.32 62.603-36.286 105.399l28.944 28.118s62.749-51.561 46.562-134.798Z"/><path fill="#ff5722" d="m2443.892 2283.823 6.898-38.63s-63.797-.96-95.556-57.4l-33.52 22.47s37.394 72.094 122.178 73.56ZM1945.893 741.588l6.898-38.63s-63.796-.96-95.556-57.4l-33.52 22.47s37.395 72.094 122.178 73.56Z"/></svg>