<svg width="16" height="16" viewBox="0 0 16 16" fill="none" xmlns="http://www.w3.org/2000/svg">
<path d="M14 2H12.5V1C12.5 0.448667 12.0513 0 11.5 0H4.5C3.94867 0 3.5 0.448667 3.5 1V2H2C1.44867 2 1 2.44867 1 3V5C1 6.3785 2.1215 7.5 3.5 7.5H3.61583C3.95983 9.008 5.06217 10.2268 6.5 10.7375V11.5C6.5 12.3272 5.82717 13 5 13H4.5C3.94867 13 3.5 13.4487 3.5 14V15C3.5 15.5513 3.94867 16 4.5 16H11.5C12.0513 16 12.5 15.5513 12.5 15V14C12.5 13.4487 12.0513 13 11.5 13H11C10.1728 13 9.5 12.3272 9.5 11.5V10.7375C10.9378 10.2268 12.0402 9.008 12.3842 7.5H12.5C13.8785 7.5 15 6.3785 15 5V3C15 2.44867 14.5513 2 14 2ZM2 5V3H3.5V6.5C2.67283 6.5 2 5.82717 2 5ZM11.5 14L11.501 15H4.5V14H11.5ZM9.01283 13H6.98717C7.3045 12.5808 7.5 12.065 7.5 11.5V10.9705C7.66433 10.9888 7.83083 11 8 11C8.16917 11 8.33567 10.9888 8.5 10.9705V11.5C8.5 12.065 8.6955 12.5808 9.01283 13ZM11.5 6.5C11.5 8.42967 9.92967 10 8 10C6.07033 10 4.5 8.42967 4.5 6.5V1H11.5V6.5ZM14 5C14 5.82717 13.3272 6.5 12.5 6.5V3H14V5Z" fill="#333333"/>
</svg>
